<svg width="317" height="128" viewBox="0 0 317 128" fill="none" xmlns="http://www.w3.org/2000/svg">
<path d="M142.443 119.13H143.943V110.526H142.443V119.13Z" fill="#211C1D"/>
<path d="M131.922 96.7083H143.13V100.151H131.922V96.7083ZM129.672 102.406H145.375V94.4531H129.672V102.406Z" fill="#211C1D"/>
<path d="M147.146 119.13H148.646V110.526H147.146V119.13Z" fill="#211C1D"/>
<path d="M140.135 77.1354H128.922V73.6927H140.135V77.1354ZM142.38 71.4375H126.677V79.3854H142.38V71.4375Z" fill="#211C1D"/>
<path d="M133.109 50.0261C130.177 50.0261 127.797 52.4115 127.797 55.3542C127.797 58.2969 130.177 60.6823 133.109 60.6823C136.042 60.6823 138.417 58.2969 138.417 55.3542C138.417 52.4115 136.042 50.0261 133.109 50.0261Z" fill="#211C1D"/>
<path d="M138.573 119.13H140.068V110.526H138.573V119.13Z" fill="#211C1D"/>
<path d="M141.63 88.6459H130.422V85.2032H141.63V88.6459ZM143.88 82.9427H128.177V90.9011H143.88V82.9427Z" fill="#211C1D"/>
<path d="M169.026 38.1459C169.026 36.724 167.875 35.5729 166.453 35.5729C165.036 35.5729 163.885 36.724 163.885 38.1459C163.885 39.5729 165.036 40.7292 166.453 40.7292C167.875 40.7292 169.026 39.5729 169.026 38.1459Z" fill="#211C1D"/>
<path d="M152.401 38.1459C152.401 36.724 151.25 35.5729 149.833 35.5729C148.417 35.5729 147.266 36.724 147.266 38.1459C147.266 39.5729 148.417 40.7292 149.833 40.7292C151.25 40.7292 152.401 39.5729 152.401 38.1459Z" fill="#211C1D"/>
<path d="M152.802 85.2032H164.016V88.6459H152.802V85.2032ZM150.557 90.9011H166.26V82.9427H150.557V90.9011Z" fill="#211C1D"/>
<path d="M151.021 119.13H152.521V110.526H151.021V119.13Z" fill="#211C1D"/>
<path d="M164.297 119.13H165.797V110.526H164.297V119.13Z" fill="#211C1D"/>
<path d="M153.099 63.875C153.099 66.8177 155.479 69.2031 158.411 69.2031C161.344 69.2031 163.719 66.8177 163.719 63.875C163.719 60.9323 161.344 58.5469 158.411 58.5469C155.479 58.5469 153.099 60.9323 153.099 63.875Z" fill="#211C1D"/>
<path d="M64.0729 86.7969C76.6719 86.7969 86.9219 76.5156 86.9219 63.875H85.4271C85.4271 75.6875 75.8438 85.2969 64.0729 85.2969V86.7969Z" fill="#211C1D"/>
<path d="M64.0729 35.8542V34.349C47.8438 34.349 34.6406 47.5938 34.6406 63.875H36.1406C36.1406 48.4219 48.6667 35.8542 64.0729 35.8542Z" fill="#211C1D"/>
<path d="M131.609 43.474C134.542 43.474 136.922 41.0886 136.922 38.1459C136.922 35.2084 134.542 32.8229 131.609 32.8229C128.677 32.8229 126.302 35.2084 126.302 38.1459C126.302 41.0886 128.677 43.474 131.609 43.474Z" fill="#211C1D"/>
<path d="M64.0729 91.8958V93.401C80.3021 93.401 93.5052 80.1563 93.5052 63.875H92.0052C92.0052 79.3281 79.474 91.8958 64.0729 91.8958Z" fill="#211C1D"/>
<path d="M168.172 119.13H169.672V110.526H168.172V119.13Z" fill="#211C1D"/>
<path d="M158.411 13.9115C162.224 13.9115 165.328 17.026 165.328 20.8594C165.328 24.6875 162.224 27.8021 158.411 27.8021C154.594 27.8021 151.484 24.6875 151.484 20.8594C151.484 17.026 154.594 13.9115 158.411 13.9115ZM158.411 30.0573C163.464 30.0573 167.578 25.9271 167.578 20.8594C167.578 15.7865 163.464 11.6562 158.411 11.6562C153.354 11.6562 149.234 15.7865 149.234 20.8594C149.234 25.9271 153.354 30.0573 158.411 30.0573Z" fill="#211C1D"/>
<path d="M64.0729 29.0209V27.5209C44.0885 27.5209 27.8281 43.8282 27.8281 63.875H29.3333C29.3333 44.6563 44.9167 29.0209 64.0729 29.0209Z" fill="#211C1D"/>
<path d="M64.0729 40.9479C51.474 40.9479 41.2188 51.2344 41.2188 63.875H42.7188C42.7188 52.0625 52.2969 42.4531 64.0729 42.4531V40.9479Z" fill="#211C1D"/>
<path d="M10.224 117.63C13.0052 120.505 16.8906 122.307 21.1927 122.307H122.203L121.865 117.63H10.224Z" fill="#211C1D"/>
<path d="M130.109 26.1823C133.047 26.1823 135.422 23.7969 135.422 20.8594C135.422 17.9167 133.047 15.5312 130.109 15.5312C127.182 15.5312 124.802 17.9167 124.802 20.8594C124.802 23.7969 127.182 26.1823 130.109 26.1823Z" fill="#211C1D"/>
<path d="M21.1927 17.4115C19.2969 17.4115 17.7552 18.9584 17.7552 20.8594C17.7552 22.7552 19.2969 24.3021 21.1927 24.3021C23.0886 24.3021 24.6302 22.7552 24.6302 20.8594C24.6302 18.9584 23.0886 17.4115 21.1927 17.4115ZM21.1927 28.0625C17.2292 28.0625 14.0104 24.8334 14.0104 20.8594C14.0104 16.8854 17.2292 13.6511 21.1927 13.6511C25.1511 13.6511 28.375 16.8854 28.375 20.8594C28.375 24.8334 25.1511 28.0625 21.1927 28.0625ZM106.953 17.4115C105.057 17.4115 103.516 18.9584 103.516 20.8594C103.516 22.7552 105.057 24.3021 106.953 24.3021C108.849 24.3021 110.391 22.7552 110.391 20.8594C110.391 18.9584 108.849 17.4115 106.953 17.4115ZM106.953 28.0625C102.99 28.0625 99.7709 24.8334 99.7709 20.8594C99.7709 16.8854 102.99 13.6511 106.953 13.6511C110.911 13.6511 114.135 16.8854 114.135 20.8594C114.135 24.8334 110.911 28.0625 106.953 28.0625ZM64.0729 21.9844C41.0469 21.9844 22.3177 40.7761 22.3177 63.875C22.3177 86.974 41.0469 105.766 64.0729 105.766C87.099 105.766 105.828 86.974 105.828 63.875C105.828 40.7761 87.099 21.9844 64.0729 21.9844ZM64.0729 109.521C38.9792 109.521 18.5729 89.0469 18.5729 63.875C18.5729 38.7031 38.9792 18.2292 64.0729 18.2292C89.1615 18.2292 109.573 38.7031 109.573 63.875C109.573 89.0469 89.1615 109.521 64.0729 109.521Z" fill="#211C1D"/>
<path d="M64.0729 98.7292V100.229C84.0573 100.229 100.313 83.9219 100.313 63.875H98.8125C98.8125 83.0938 83.2292 98.7292 64.0729 98.7292Z" fill="#211C1D"/>
<path d="M59.7448 63.875C59.7448 61.4792 61.6823 59.5365 64.0729 59.5365C66.4636 59.5365 68.4011 61.4792 68.4011 63.875C68.4011 66.2709 66.4636 68.2136 64.0729 68.2136C61.6823 68.2136 59.7448 66.2709 59.7448 63.875ZM78.3646 63.875C78.3646 55.9532 71.9688 49.5365 64.0729 49.5365C56.1771 49.5365 49.7761 55.9532 49.7761 63.875C49.7761 71.7917 56.1771 78.2136 64.0729 78.2136C71.9688 78.2136 78.3646 71.7917 78.3646 63.875Z" fill="#211C1D"/>
<path d="M157.219 111.281H159.599V118.38H157.219V111.281ZM155.724 119.885H161.094V109.776H155.724V119.885Z" fill="#211C1D"/>
<path d="M252.75 91.8958V93.401C268.974 93.401 282.177 80.1563 282.177 63.875H280.677C280.677 79.3281 268.151 91.8958 252.75 91.8958Z" fill="#211C1D"/>
<path d="M185.234 32.8229C182.302 32.8229 179.927 35.2084 179.927 38.1459C179.927 41.0886 182.302 43.474 185.234 43.474C188.167 43.474 190.547 41.0886 190.547 38.1459C190.547 35.2084 188.167 32.8229 185.234 32.8229Z" fill="#211C1D"/>
<path d="M252.75 29.0209V27.5209C232.766 27.5209 216.505 43.8282 216.505 63.875H218.005C218.005 44.6563 233.594 29.0209 252.75 29.0209Z" fill="#211C1D"/>
<path d="M194.729 122.307H295.625C299.932 122.307 303.813 120.505 306.594 117.63H195.057L194.729 122.307Z" fill="#211C1D"/>
<path d="M252.75 35.8542V34.349C236.521 34.349 223.318 47.599 223.318 63.875H224.818C224.818 48.4219 237.344 35.8542 252.75 35.8542Z" fill="#211C1D"/>
<path d="M186.734 15.5312C183.802 15.5312 181.427 17.9167 181.427 20.8594C181.427 23.7969 183.802 26.1823 186.734 26.1823C189.667 26.1823 192.042 23.7969 192.042 20.8594C192.042 17.9167 189.667 15.5312 186.734 15.5312Z" fill="#211C1D"/>
<path d="M252.75 86.8021C265.349 86.8021 275.599 76.5156 275.599 63.875H274.104C274.104 75.6875 264.521 85.2969 252.75 85.2969V86.8021Z" fill="#211C1D"/>
<path d="M209.87 17.4115C207.974 17.4115 206.432 18.9584 206.432 20.8594C206.432 22.7552 207.974 24.3021 209.87 24.3021C211.76 24.3021 213.302 22.7552 213.302 20.8594C213.302 18.9584 211.76 17.4115 209.87 17.4115ZM209.87 28.0625C205.906 28.0625 202.688 24.8334 202.688 20.8594C202.688 16.8854 205.906 13.6511 209.87 13.6511C213.828 13.6511 217.052 16.8854 217.052 20.8594C217.052 24.8334 213.828 28.0625 209.87 28.0625ZM295.625 17.4115C293.734 17.4115 292.193 18.9584 292.193 20.8594C292.193 22.7552 293.734 24.3021 295.625 24.3021C297.521 24.3021 299.062 22.7552 299.062 20.8594C299.062 18.9584 297.521 17.4115 295.625 17.4115ZM295.625 28.0625C291.667 28.0625 288.448 24.8334 288.448 20.8594C288.448 16.8854 291.667 13.6511 295.625 13.6511C299.589 13.6511 302.807 16.8854 302.807 20.8594C302.807 24.8334 299.589 28.0625 295.625 28.0625ZM252.75 21.9844C229.724 21.9844 210.99 40.7761 210.99 63.875C210.99 86.974 229.724 105.766 252.75 105.766C275.776 105.766 294.505 86.974 294.505 63.875C294.505 40.7761 275.776 21.9844 252.75 21.9844ZM252.75 109.521C227.656 109.521 207.245 89.0469 207.245 63.875C207.245 38.7031 227.656 18.2292 252.75 18.2292C277.839 18.2292 298.25 38.7031 298.25 63.875C298.25 89.0469 277.839 109.521 252.75 109.521Z" fill="#211C1D"/>
<path d="M252.75 40.9531C240.151 40.9531 229.896 51.2344 229.896 63.875H231.396C231.396 52.0625 240.974 42.4531 252.75 42.4531V40.9531Z" fill="#211C1D"/>
<mask id="mask0_3_316" style="mask-type:luminance" maskUnits="userSpaceOnUse" x="0" y="0" width="317" height="128">
<path d="M0 0H316.656V127.932H0V0Z" fill="white"/>
</mask>
<g mask="url(#mask0_3_316)">
<path d="M21.1927 3.7344C11.7344 3.7344 4.04169 11.4531 4.04169 20.9427V106.979C4.04169 116.464 11.7344 124.182 21.1927 124.182H295.625C305.083 124.182 312.781 116.464 312.781 106.979V20.9427C312.781 11.4531 305.083 3.7344 295.625 3.7344H21.1927ZM295.625 127.943H21.1927C9.66669 127.943 0.291687 118.536 0.291687 106.979V20.9427C0.291687 9.38023 9.66669 -0.020813 21.1927 -0.020813H295.625C307.151 -0.020813 316.526 9.38023 316.526 20.9427V106.979C316.526 118.536 307.151 127.943 295.625 127.943Z" fill="#211C1D"/>
</g>
<path d="M252.75 98.7292V100.234C272.729 100.234 288.99 83.9219 288.99 63.875H287.49C287.49 83.0938 271.906 98.7292 252.75 98.7292Z" fill="#211C1D"/>
<path d="M252.75 68.2136C250.359 68.2136 248.422 66.2709 248.422 63.875C248.422 61.4792 250.359 59.5365 252.75 59.5365C255.135 59.5365 257.078 61.4792 257.078 63.875C257.078 66.2709 255.135 68.2136 252.75 68.2136ZM267.042 63.875C267.042 55.9532 260.641 49.5365 252.75 49.5365C244.854 49.5365 238.453 55.9532 238.453 63.875C238.453 71.7917 244.854 78.2136 252.75 78.2136C260.641 78.2136 267.042 71.7917 267.042 63.875Z" fill="#211C1D"/>
<path d="M176.714 73.6927H187.922V77.1354H176.714V73.6927ZM174.464 79.3854H190.172V71.4375H174.464V79.3854Z" fill="#211C1D"/>
<path d="M172.875 119.13H174.375V110.526H172.875V119.13Z" fill="#211C1D"/>
<path d="M173.719 96.7083H184.927V100.151H173.719V96.7083ZM171.469 102.406H187.172V94.4531H171.469V102.406Z" fill="#211C1D"/>
<path d="M175.214 85.2032H186.427V88.6459H175.214V85.2032ZM172.969 90.9011H188.672V82.9427H172.969V90.9011Z" fill="#211C1D"/>
<path d="M189.047 55.3542C189.047 52.4115 186.672 50.0261 183.74 50.0261C180.807 50.0261 178.427 52.4115 178.427 55.3542C178.427 58.2969 180.807 60.6823 183.74 60.6823C186.672 60.6823 189.047 58.2969 189.047 55.3542Z" fill="#211C1D"/>
<path d="M176.75 119.13H178.25V110.526H176.75V119.13Z" fill="#211C1D"/>
<path d="M259.16 63.9613C259.16 63.3259 259.306 62.8467 259.598 62.5238C259.889 62.1905 260.306 62.0238 260.848 62.0238C261.4 62.0238 261.832 62.1905 262.139 62.5238C262.457 62.8467 262.619 63.3259 262.619 63.9613C262.619 64.5863 262.457 65.0655 262.139 65.3988C261.832 65.7321 261.4 65.8988 260.848 65.8988C260.358 65.8988 259.957 65.753 259.639 65.4613C259.317 65.1592 259.16 64.6592 259.16 63.9613Z" fill="black"/>
</svg>
