<svg width="317" height="254" viewBox="0 0 317 254" fill="none" xmlns="http://www.w3.org/2000/svg">
<path d="M158.208 230.219C193.49 230.219 222.193 201.516 222.193 166.234C222.193 130.953 193.49 102.25 158.208 102.25C122.927 102.25 94.224 130.953 94.224 166.234C94.224 201.516 122.927 230.219 158.208 230.219ZM158.208 107.266C190.724 107.266 217.177 133.719 217.177 166.234C217.177 198.75 190.724 225.203 158.208 225.203C125.693 225.203 99.2396 198.75 99.2396 166.234C99.2396 133.719 125.693 107.266 158.208 107.266Z" fill="black"/>
<mask id="mask0_3_383" style="mask-type:luminance" maskUnits="userSpaceOnUse" x="0" y="0" width="317" height="254">
<path d="M0 0H316.385V253.333H0V0Z" fill="white"/>
</mask>
<g mask="url(#mask0_3_383)">
<path d="M316.255 227.401C316.141 225.24 315.198 223.25 313.594 221.802L278.641 190.24V93.9323L299.984 113.401C301.479 114.766 303.422 115.521 305.443 115.521C307.719 115.521 309.901 114.557 311.432 112.875C312.891 111.281 313.641 109.208 313.542 107.042C313.443 104.88 312.505 102.885 310.906 101.432L286.365 79.0469C286.365 70.5781 279 63.4792 270.5 64.5729L243.318 39.7813C261.062 34.8438 275.323 26.8073 273.807 18.0677C272.307 9.46355 256.297 7.08855 241.234 7.73959C238.005 2.25001 230.437 -0.854155 222.385 0.546886C214.333 1.94793 208.255 7.42709 207.078 13.6823C192.672 18.1667 178.411 25.8021 179.906 34.4115C181.187 41.7604 192.807 44.8698 207.401 44.8698C212.547 44.8698 218.068 44.4792 223.63 43.7552L257.307 74.474C256.74 76.0521 256.427 77.75 256.427 79.5208C256.427 84.4167 258.792 88.7708 262.437 91.5052V190.24L235.698 214.38L231.375 193.417C233.75 187.047 235.312 180.286 235.943 173.26H238.302C243.651 173.26 248.005 168.911 248.005 163.557V156.385H252.63C254.016 156.385 255.135 155.26 255.135 153.875V123.646C255.135 122.26 254.016 121.135 252.63 121.135H240.896C242.167 119.177 242.745 117.104 242.557 114.99L238.49 69.7396C237.667 60.5833 222.609 54.9792 203.469 56.6979C194.828 57.474 186.802 59.6927 180.865 62.9427C175.583 65.8333 172.365 69.3438 171.521 73.0417H169.276C164.859 73.0417 161.266 76.6354 161.266 81.0521V88.2448C160.25 88.2083 159.234 88.1823 158.208 88.1823C157.187 88.1823 156.167 88.2083 155.156 88.2448V81.0521C155.156 76.6354 151.562 73.0417 147.141 73.0417H144.896C144.052 69.349 140.833 65.8333 135.552 62.9427C129.615 59.6927 121.589 57.474 112.953 56.6979C93.8021 54.974 78.75 60.5833 77.9271 69.7396L74.0677 112.703H55.5208V53.2448C58.8437 53.5104 62.1146 53.6458 65.2656 53.6458C80.7604 53.6458 93.3125 50.3594 94.5104 42.6667C95.849 34.0313 81.4479 26.6563 66.9635 22.4375C65.6667 16.2083 59.4948 10.8386 51.4167 9.58334C46.7604 8.8646 42.1354 9.58855 38.401 11.6354C35.8594 13.0208 33.9167 14.9063 32.6875 17.125C17.6146 16.7552 1.66665 19.4219 0.322902 28.0521C-0.45314 33.0729 3.99999 38.1458 13.2031 42.7188C20.1719 46.1875 29.2969 49.0729 39.3125 51.0261V112.703H25.1354C23.75 112.703 22.625 113.828 22.625 115.214V179.656C22.625 181.042 23.75 182.167 25.1354 182.167H39.3125V191.052L4.35936 222.609C2.75519 224.063 1.81249 226.052 1.70311 228.214C1.59373 230.375 2.32811 232.453 3.77603 234.057C5.31249 235.755 7.50519 236.729 9.79165 236.729C11.8021 236.729 13.7292 235.984 15.2239 234.641L39.3125 212.885V236.688C39.3125 241.156 42.9479 244.792 47.4167 244.792C51.8854 244.792 55.5208 241.156 55.5208 236.688V212.885L77.026 232.302L74.7552 243.307C73.6562 249.307 76.9844 252.297 82.6927 253.042C86.5156 253.042 89.8542 250.323 90.6302 246.578L97.1719 214.828C111.49 232.771 133.526 244.286 158.208 244.286C182.891 244.286 204.932 232.771 219.245 214.828L225.792 246.578C226.562 250.323 229.901 253.042 233.724 253.042C240.641 252.406 242.552 248.052 241.661 243.302L239.495 232.786L262.437 212.073V235.875C262.437 240.344 266.073 243.979 270.536 243.979C275.005 243.979 278.641 240.344 278.641 235.875V212.073L302.734 233.828C304.224 235.172 306.151 235.917 308.161 235.917C310.453 235.917 312.646 234.943 314.177 233.245C315.625 231.641 316.365 229.563 316.255 227.401ZM285.365 84.9219L307.526 105.141C308.135 105.693 308.49 106.453 308.531 107.276C308.568 108.099 308.281 108.891 307.729 109.495C307.141 110.135 306.312 110.505 305.443 110.505C304.672 110.505 303.937 110.219 303.365 109.698L281.937 90.1511C283.422 88.6823 284.594 86.9011 285.365 84.9219ZM184.849 33.5521C184.323 30.5261 190.99 24.1511 207.255 18.8854C209.578 24.1667 213.13 27.3386 217.844 28.5261C218.901 28.5261 219.88 27.849 220.224 26.7917C220.656 25.474 219.932 24.0573 218.615 23.6302C214.974 22.4427 212.49 19.9792 211.979 17.0417C211.083 11.9063 216.141 6.72397 223.245 5.48959C230.349 4.25001 236.859 7.42189 237.75 12.5573C238.26 15.4948 236.76 18.6563 233.729 21C232.635 21.849 232.432 23.4271 233.281 24.5208C234.13 25.6146 235.708 25.8177 236.802 24.9688C241.01 21.7031 243.208 17.1823 242.818 12.6979C259.911 12.1563 268.333 15.9063 268.865 18.9323C269.708 23.7917 254.906 33.3594 228.88 37.8854C202.859 42.4167 185.698 38.4115 184.849 33.5521ZM259.849 70.0052L230.005 42.7813C232.521 42.3386 235.026 41.8281 237.495 41.2604L264.74 66.1146C262.849 67.0573 261.182 68.3854 259.849 70.0052ZM261.443 79.5208C261.443 74.0261 265.911 69.5625 271.401 69.5625C276.896 69.5625 281.359 74.0261 281.359 79.5208C281.359 85.0104 276.896 89.4792 271.401 89.4792C265.911 89.4792 261.443 85.0104 261.443 79.5208ZM273.625 94.3281V188.844H267.453V93.9583C268.714 94.3073 270.036 94.4948 271.401 94.4948C272.156 94.4948 272.901 94.4375 273.625 94.3281ZM242.99 163.557C242.99 166.146 240.885 168.245 238.302 168.245H236.234C236.255 167.578 236.26 166.906 236.26 166.234C236.26 162.901 236.052 159.615 235.641 156.385H242.99V163.557ZM250.12 151.37H234.839C234.057 147.354 232.974 143.448 231.609 139.677H250.12V151.37ZM250.12 126.156V134.661H229.583C228.932 133.193 228.234 131.745 227.495 130.328C230.74 129.115 233.516 127.708 235.771 126.156H250.12ZM225.005 125.891C220.656 118.719 215.182 112.297 208.833 106.875C225.24 105.599 237.099 110.292 237.562 115.438C237.875 118.927 232.792 123.104 225.005 125.891ZM236.521 103.896L236.781 106.776C230.562 102.786 219.906 100.833 207.531 101.948C206.073 102.078 204.62 102.266 203.187 102.479C200.635 100.672 197.974 99.0208 195.214 97.5261C198.849 96.5 202.812 95.7708 206.943 95.4011C214.911 94.6875 222.479 95.3542 228.26 97.2813C233.214 98.9271 236.297 101.401 236.521 103.896ZM183.276 67.3438C188.62 64.4167 195.948 62.4115 203.917 61.6927C220.766 60.1823 233.026 64.9583 233.495 70.1875L235.745 95.2448C234.099 94.1979 232.13 93.2813 229.849 92.5208C223.427 90.3802 215.135 89.625 206.495 90.4063C200.057 90.9844 193.958 92.3698 188.76 94.4115C185.198 92.8906 181.505 91.625 177.703 90.6458L176.328 75.3281C176.099 72.8333 178.698 69.849 183.276 67.3438ZM166.281 81.0521C166.281 79.4011 167.625 78.0573 169.276 78.0573H171.536L172.562 89.5052C170.495 89.1198 168.401 88.8125 166.281 88.5938V81.0521ZM144.88 78.0573H147.141C148.792 78.0573 150.135 79.4011 150.135 81.0521V88.5938C148.016 88.8125 145.922 89.1198 143.854 89.5052L144.88 78.0573ZM82.9219 70.1875C83.3906 64.9583 95.6562 60.1823 112.5 61.6927C120.469 62.4115 127.797 64.4167 133.141 67.3438C137.719 69.849 140.318 72.8333 140.094 75.3229L138.714 90.6458C134.911 91.625 131.219 92.8906 127.661 94.4115C122.458 92.3698 116.359 90.9844 109.922 90.4063C101.281 89.6302 92.9896 90.3802 86.5677 92.5208C84.2865 93.2813 82.3177 94.1979 80.6719 95.2448L82.9219 70.1875ZM79.8958 103.896C80.1198 101.401 83.2083 98.9271 88.1562 97.2813C93.9323 95.3542 101.505 94.6823 109.474 95.4011C113.604 95.7708 117.568 96.5 121.203 97.5261C118.443 99.0208 115.781 100.672 113.229 102.479C111.797 102.26 110.344 102.078 108.885 101.948C100.245 101.167 91.9531 101.922 85.5312 104.063C83.25 104.823 81.2812 105.74 79.6354 106.786L79.8958 103.896ZM78.8594 115.438C79.0833 112.943 82.1719 110.469 87.1198 108.823C92.6927 106.964 99.9323 106.281 107.583 106.875C101.234 112.297 95.7604 118.719 91.4115 125.891C83.625 123.099 78.5417 118.927 78.8594 115.438ZM80.1562 166.234C80.1562 169.938 80.4219 173.583 80.9219 177.151H55.5208V131.417H88.3646C83.1146 141.906 80.1562 153.729 80.1562 166.234ZM85.0417 193.417L80.8177 213.896L55.5156 191.052V182.167H81.7917C82.5937 186.026 83.6875 189.786 85.0417 193.417ZM74.0469 117.719C74.7552 120.865 77.1614 123.839 81.0104 126.401H55.5208V117.719H74.0469ZM15.4323 38.2292C7.47915 34.2761 4.99478 30.6875 5.28124 28.8229C5.75519 25.7865 14.1146 21.8854 31.2083 22.1146C30.901 26.6042 33.1771 31.0833 37.4479 34.2656C38.5625 35.0938 40.1302 34.8646 40.9583 33.7552C41.7864 32.6458 41.5573 31.0729 40.4479 30.2448C37.375 27.9531 35.8125 24.8229 36.2708 21.875C36.6406 19.5052 38.25 17.4323 40.8073 16.0365C43.5781 14.5208 47.0729 13.9896 50.6458 14.5417C57.7708 15.6511 62.9219 20.7396 62.125 25.8854C61.6667 28.8386 59.2292 31.3438 55.6042 32.599C54.2969 33.0521 53.6042 34.4792 54.0521 35.7865C54.4114 36.8229 55.3854 37.4792 56.4271 37.4792C61.7812 36.8333 64.8854 33.0261 66.8802 27.6458C83.2396 32.6094 90.0208 38.8594 89.5469 41.8958C88.7917 46.7708 71.7083 51.0886 45.6042 47.0365C33.9375 45.2292 23.2187 42.099 15.4323 38.2292ZM50.5 52.7604V189.656H44.3281V51.9115L50.5 52.7604ZM27.6406 117.719H39.3125V126.401H27.6406V117.719ZM27.6406 177.151V131.417H39.3125V177.151H27.6406ZM54.6927 205.38C53.9531 204.714 52.8958 204.547 51.9896 204.948C51.0833 205.349 50.5 206.25 50.5 207.24V236.688C50.5 238.385 49.1198 239.771 47.4167 239.771C45.7135 239.771 44.3281 238.385 44.3281 236.688V207.24C44.3281 206.25 43.7448 205.349 42.8385 204.948C41.9323 204.547 40.875 204.714 40.1406 205.38L11.8594 230.917C11.2917 231.432 10.5573 231.714 9.79165 231.714C8.91665 231.714 8.08332 231.344 7.49999 230.698C6.9479 230.083 6.66665 229.292 6.70832 228.469C6.74999 227.646 7.10936 226.885 7.72394 226.333L42.7864 194.672H52.0469L79.6406 219.594L78.1979 226.604L54.6927 205.38ZM85.7135 245.563C85.3802 247.193 83.7292 248.307 82.0677 247.964C80.401 247.62 79.3229 245.984 79.6667 244.318L88.526 201.37C89.9219 204.13 91.4792 206.792 93.1823 209.354L85.7135 245.563ZM158.208 239.271C117.937 239.271 85.1719 206.505 85.1719 166.234C85.1719 125.964 117.937 93.1979 158.208 93.1979C198.479 93.1979 231.245 125.964 231.245 166.234C231.245 206.505 198.484 239.271 158.208 239.271ZM234.349 247.964C232.562 248.318 231.292 247.635 230.703 245.563L223.24 209.354C224.943 206.792 226.495 204.13 227.896 201.37L236.75 244.318C237.094 245.984 236.016 247.62 234.349 247.964ZM310.453 229.88C309.87 230.531 309.036 230.901 308.161 230.901C307.396 230.901 306.661 230.615 306.094 230.104L277.812 204.568C277.078 203.901 276.021 203.734 275.115 204.135C274.208 204.536 273.625 205.438 273.625 206.427V235.875C273.625 237.578 272.24 238.958 270.536 238.958C268.833 238.958 267.453 237.578 267.453 235.875V206.427C267.453 205.438 266.87 204.536 265.964 204.135C265.057 203.734 264 203.901 263.26 204.568L238.318 227.089L236.875 220.078L265.906 193.859H275.167L310.229 225.521C311.495 226.661 311.594 228.62 310.453 229.88Z" fill="black"/>
</g>
<path d="M192.167 100.665C192.167 100.03 192.313 99.5505 192.604 99.2276C192.896 98.8943 193.313 98.7276 193.854 98.7276C194.407 98.7276 194.839 98.8943 195.146 99.2276C195.464 99.5505 195.625 100.03 195.625 100.665C195.625 101.29 195.464 101.769 195.146 102.103C194.839 102.436 194.407 102.603 193.854 102.603C193.365 102.603 192.964 102.457 192.646 102.165C192.323 101.863 192.167 101.363 192.167 100.665Z" fill="black"/>
</svg>
