<svg width="329" height="238" viewBox="0 0 329 238" fill="none" xmlns="http://www.w3.org/2000/svg">
<path d="M127.477 120.989C132.042 130.476 139.29 126.167 142.829 132.393C146.989 139.716 133.041 149.965 135.822 156.119C138.601 162.268 152.352 157.13 156.339 162.404C160.329 167.675 152.93 174.904 145.214 179.258C131.43 187.034 115.043 181.34 108.473 186.961C101.904 192.586 89.9772 222.65 61.9527 226.537C33.9331 230.418 3.86001 166.136 19.0455 142.525C31.656 122.919 69.8034 128.982 80.3274 127.221C90.8496 125.456 107.558 99.6122 123.358 93.3888C139.161 87.1636 148.343 90.3528 148.233 96.172C148.088 103.716 122.723 111.119 127.477 120.989Z" fill="#231815" stroke="#231815" stroke-width="0.744706" stroke-linecap="round" stroke-linejoin="round"/>
<path d="M116.04 124.19C120.424 127.478 117.204 138.107 121.244 149.786C124.672 159.698 137.892 163.808 130.057 172.28C124.44 178.353 114.876 174.62 109.785 176.821C97.156 182.279 88.2675 198.565 80.8257 207.332C76.4153 212.525 67.8418 218.579 63.3729 215.625C55.641 210.513 56.6539 188.29 54.3369 177.604C51.237 163.316 48.677 153.521 57.9234 148.779C72.005 141.557 76.715 145.495 84.439 140.692C94.1235 134.662 106.921 117.344 116.04 124.19Z" fill="white"/>
<path d="M51.8469 162.696L64.6596 186.885L53.7244 192.677L40.9117 168.488L51.8469 162.696Z" fill="white" stroke="#231815" stroke-width="0.744706" stroke-linecap="round" stroke-linejoin="round"/>
<path d="M62.2375 188.168L65.1783 193.72L59.0882 196.946L56.1475 191.394L62.2375 188.168Z" fill="white" stroke="#231815" stroke-width="0.744706" stroke-linecap="round" stroke-linejoin="round"/>
<path d="M67.1328 154.599L79.9455 178.788L76.278 180.73L63.4653 156.542L67.1328 154.599Z" stroke="#231815" stroke-width="0.744706" stroke-linecap="round" stroke-linejoin="round"/>
<path d="M111.071 161.004L99.3311 138.841C99.0353 138.282 99.2455 137.589 99.8074 137.292L101.449 136.422C102.008 136.126 102.703 136.34 102.999 136.898L114.738 159.061C115.034 159.62 114.824 160.313 114.262 160.61L112.62 161.48C112.062 161.776 111.369 161.566 111.071 161.004Z" stroke="#231815" stroke-width="0.744706" stroke-linecap="round" stroke-linejoin="round"/>
<path d="M89.3515 172.508L77.6117 150.345C77.3158 149.787 77.5295 149.092 78.088 148.796L79.73 147.926C80.2885 147.63 80.9867 147.842 81.2826 148.401L93.0224 170.564C93.3182 171.123 93.1046 171.817 92.5427 172.115L90.9007 172.985C90.3422 173.281 89.6491 173.07 89.3515 172.508Z" stroke="#231815" stroke-width="0.744706" stroke-linecap="round" stroke-linejoin="round"/>
<path d="M63.4521 156.549L76.2649 180.738L72.6007 182.679L59.788 158.49L63.4521 156.549Z" stroke="#231815" stroke-width="0.744706" stroke-linecap="round" stroke-linejoin="round"/>
<path d="M73.8862 198.138C73.5161 198.334 73.122 198.452 72.704 198.493C72.2859 198.533 71.8762 198.492 71.4747 198.368C71.075 198.248 70.7128 198.052 70.3896 197.784C70.0683 197.519 69.8087 197.2 69.6127 196.829C69.4166 196.459 69.2984 196.065 69.2597 195.651C69.2192 195.233 69.2607 194.823 69.3841 194.421C69.5093 194.023 69.7052 193.661 69.9736 193.338C70.2419 193.015 70.5611 192.755 70.9312 192.559C71.3014 192.363 71.6954 192.245 72.1135 192.204C72.5316 192.164 72.9413 192.205 73.3376 192.327C73.7391 192.451 74.1014 192.646 74.4278 192.913C74.7492 193.178 75.0087 193.497 75.2048 193.867C75.4008 194.237 75.5191 194.632 75.5578 195.046C75.5949 195.466 75.5534 195.876 75.4282 196.274C75.3082 196.674 75.1123 197.036 74.8439 197.359C74.5756 197.682 74.2564 197.942 73.8862 198.138Z" stroke="#231815" stroke-width="0.744706" stroke-linecap="round" stroke-linejoin="round"/>
<path d="M73.1628 196.78C72.9744 196.88 72.7697 196.941 72.5556 196.96C72.3432 196.982 72.1331 196.959 71.9273 196.896C71.7214 196.833 71.5384 196.732 71.3717 196.596C71.205 196.46 71.0752 196.296 70.9754 196.108C70.8755 195.919 70.8112 195.716 70.7925 195.502C70.7739 195.288 70.7946 195.083 70.8579 194.877C70.9212 194.671 71.0207 194.485 71.1583 194.322C71.294 194.155 71.4595 194.02 71.6479 193.92C71.8363 193.82 72.041 193.759 72.2551 193.741C72.4675 193.719 72.6776 193.741 72.8834 193.804C73.0893 193.868 73.2705 193.966 73.4372 194.101C73.6039 194.237 73.7355 194.404 73.8353 194.593C73.9351 194.781 73.9977 194.981 74.0164 195.195C74.035 195.409 74.0161 195.617 73.9528 195.823C73.8895 196.029 73.79 196.215 73.6524 196.379C73.5167 196.545 73.3512 196.68 73.1628 196.78Z" fill="#231815" stroke="#231815" stroke-width="0.372353" stroke-linecap="round" stroke-linejoin="round"/>
<path d="M68.8158 212.975C68.4456 213.171 68.0516 213.289 67.6335 213.33C67.2155 213.37 66.8057 213.329 66.4042 213.205C66.0028 213.082 65.6423 212.889 65.3192 212.621C64.9961 212.352 64.7383 212.037 64.5422 211.666C64.3462 211.296 64.2279 210.902 64.1874 210.484C64.1488 210.07 64.1902 209.66 64.3136 209.258C64.4371 208.857 64.633 208.495 64.9013 208.171C65.1696 207.848 65.4889 207.589 65.859 207.393C66.2291 207.197 66.6232 207.078 67.0412 207.038C67.4593 206.997 67.869 207.039 68.2705 207.162C68.672 207.286 69.0343 207.482 69.3556 207.747C69.6787 208.015 69.9383 208.334 70.1343 208.704C70.3304 209.074 70.4468 209.465 70.4873 209.883C70.5278 210.301 70.4845 210.708 70.3611 211.109C70.2377 211.511 70.0418 211.873 69.7735 212.196C69.5051 212.519 69.1859 212.779 68.8158 212.975Z" stroke="#231815" stroke-width="0.744706" stroke-linecap="round" stroke-linejoin="round"/>
<path d="M68.0936 211.612C67.9052 211.712 67.7006 211.773 67.4882 211.795C67.274 211.814 67.0658 211.795 66.8599 211.731C66.654 211.668 66.4677 211.569 66.3044 211.431C66.1377 211.295 66.0078 211.131 65.908 210.943C65.8064 210.751 65.7438 210.552 65.7251 210.337C65.7031 210.125 65.7254 209.915 65.7887 209.709C65.8538 209.507 65.9534 209.32 66.0891 209.154C66.2266 208.99 66.3921 208.855 66.5805 208.755C66.7689 208.656 66.9736 208.595 67.186 208.573C67.4002 208.554 67.6102 208.576 67.8143 208.636C68.0202 208.7 68.2031 208.801 68.3698 208.937C68.5365 209.072 68.6664 209.236 68.768 209.428C68.8678 209.616 68.9304 209.816 68.949 210.03C68.9677 210.244 68.9487 210.453 68.8854 210.658C68.8221 210.864 68.7208 211.047 68.5851 211.214C68.4475 211.377 68.2821 211.512 68.0936 211.612Z" fill="#231815" stroke="#231815" stroke-width="0.372353" stroke-linecap="round" stroke-linejoin="round"/>
<path d="M61.208 191.708L80.5233 188.745L102.087 176.491" stroke="#231815" stroke-width="2.23412" stroke-linecap="round" stroke-linejoin="round"/>
<path d="M299.292 49.8849L298.686 46.4789" stroke="#231815" stroke-width="1.86177" stroke-linecap="round" stroke-linejoin="round"/>
<path d="M301.03 45.6079C301.075 45.7993 301.058 46.0024 300.98 46.212C300.901 46.4217 300.766 46.6224 300.573 46.8109C300.381 47.0028 300.147 47.1701 299.874 47.3144C299.599 47.4606 299.303 47.5697 298.985 47.6436C298.668 47.7209 298.353 47.7538 298.042 47.7509C297.73 47.748 297.446 47.7002 297.19 47.6159C296.931 47.5334 296.722 47.4157 296.56 47.2645C296.395 47.1151 296.291 46.9421 296.243 46.7473C296.196 46.5526 296.214 46.3495 296.292 46.1398C296.371 45.9302 296.507 45.7328 296.699 45.541C296.89 45.3491 297.125 45.1818 297.397 45.0374C297.675 44.8946 297.97 44.7855 298.287 44.7082C298.606 44.6343 298.918 44.598 299.23 44.6009C299.54 44.609 299.826 44.6517 300.081 44.7359C300.337 44.8202 300.549 44.9362 300.713 45.0907C300.878 45.2401 300.983 45.4131 301.03 45.6079Z" fill="#231815" stroke="#231815" stroke-width="0.744705" stroke-linecap="round" stroke-linejoin="round"/>
<path d="M291.355 51.2669L290.744 47.868" stroke="#231815" stroke-width="1.86177" stroke-linecap="round" stroke-linejoin="round"/>
<path d="M293.09 46.9918C293.134 47.1883 293.12 47.3896 293.041 47.5993C292.962 47.8089 292.826 48.0063 292.634 48.1982C292.443 48.39 292.208 48.5573 291.936 48.7017C291.658 48.8445 291.363 48.9536 291.046 49.0309C290.728 49.1048 290.412 49.1429 290.103 49.1382C289.79 49.1319 289.508 49.0874 289.252 49.0032C288.993 48.9207 288.784 48.803 288.619 48.6535C288.455 48.499 288.35 48.326 288.303 48.1312C288.258 47.9398 288.275 47.7367 288.354 47.5271C288.432 47.3175 288.569 47.1201 288.76 46.9282C288.952 46.7364 289.183 46.5708 289.459 46.4247C289.736 46.2819 290.03 46.1694 290.349 46.0955C290.665 46.0182 290.98 45.9853 291.291 45.9882C291.6 45.9929 291.887 46.0389 292.143 46.1232C292.399 46.2075 292.611 46.3234 292.773 46.4746C292.94 46.6274 293.044 46.8004 293.09 46.9918Z" fill="#231815" stroke="#231815" stroke-width="0.744705" stroke-linecap="round" stroke-linejoin="round"/>
<path d="M283.917 52.7037L283.309 49.303" stroke="#231815" stroke-width="1.86177" stroke-linecap="round" stroke-linejoin="round"/>
<path d="M285.653 48.4319C285.7 48.6267 285.683 48.8298 285.602 49.0361C285.524 49.2457 285.389 49.4464 285.197 49.6383C285.004 49.8268 284.775 49.9957 284.497 50.1385C284.221 50.2846 283.926 50.3937 283.607 50.4677C283.291 50.5449 282.978 50.5812 282.665 50.575C282.356 50.5703 282.071 50.5276 281.815 50.4433C281.557 50.3557 281.345 50.2397 281.183 50.0885C281.018 49.9391 280.913 49.7662 280.866 49.5714C280.822 49.3748 280.836 49.1735 280.917 48.9672C280.995 48.7576 281.13 48.5569 281.322 48.365C281.513 48.1732 281.747 48.0058 282.025 47.8631C282.298 47.7187 282.593 47.6096 282.91 47.5323C283.228 47.4584 283.544 47.4203 283.854 47.4283C284.166 47.4312 284.448 47.4757 284.704 47.56C284.963 47.6425 285.174 47.7636 285.339 47.913C285.501 48.0642 285.606 48.2372 285.653 48.4319Z" fill="#231815" stroke="#231815" stroke-width="0.744705" stroke-linecap="round" stroke-linejoin="round"/>
<path d="M276.528 54.0797L275.92 50.679" stroke="#231815" stroke-width="1.86177" stroke-linecap="round" stroke-linejoin="round"/>
<path d="M278.265 49.8027C278.309 49.9993 278.293 50.1972 278.215 50.4069C278.136 50.6165 278.001 50.8173 277.81 51.0091C277.617 51.1976 277.382 51.3649 277.106 51.5111C276.834 51.6554 276.535 51.7663 276.217 51.8403C275.903 51.9157 275.585 51.9505 275.277 51.9458C274.965 51.9429 274.683 51.8984 274.426 51.8108C274.167 51.7283 273.958 51.6106 273.792 51.4611C273.63 51.3099 273.526 51.137 273.479 50.9422C273.432 50.7474 273.449 50.5443 273.527 50.3347C273.608 50.1284 273.743 49.9277 273.934 49.7358C274.125 49.544 274.357 49.3784 274.634 49.2356C274.91 49.0895 275.206 48.9804 275.522 48.9031C275.841 48.8292 276.153 48.7929 276.467 48.7992C276.775 48.8038 277.061 48.8465 277.317 48.9308C277.572 49.0151 277.786 49.1344 277.948 49.2856C278.114 49.435 278.218 49.608 278.265 49.8027Z" fill="#231815" stroke="#231815" stroke-width="0.744705" stroke-linecap="round" stroke-linejoin="round"/>
<path d="M269.156 55.481L268.548 52.0802" stroke="#231815" stroke-width="1.86177" stroke-linecap="round" stroke-linejoin="round"/>
<path d="M270.891 51.2056C270.935 51.4021 270.921 51.6035 270.841 51.8097C270.762 52.0194 270.627 52.2201 270.436 52.412C270.243 52.6005 270.01 52.7712 269.732 52.9139C269.46 53.0583 269.161 53.1692 268.842 53.2431C268.529 53.3186 268.211 53.3533 267.903 53.3486C267.591 53.3457 267.309 53.3013 267.053 53.217C266.792 53.1312 266.583 53.0134 266.418 52.864C266.256 52.7128 266.152 52.5398 266.104 52.3451C266.057 52.1503 266.075 51.9472 266.155 51.7409C266.234 51.5313 266.368 51.3305 266.56 51.1387C266.751 50.9468 266.982 50.7813 267.26 50.6385C267.536 50.4924 267.831 50.3832 268.148 50.306C268.467 50.2321 268.779 50.1958 269.093 50.202C269.401 50.2067 269.687 50.2494 269.942 50.3337C270.198 50.4179 270.412 50.5372 270.574 50.6884C270.739 50.8378 270.844 51.0108 270.891 51.2056Z" fill="#231815" stroke="#231815" stroke-width="0.744705" stroke-linecap="round" stroke-linejoin="round"/>
<path d="M260.736 57.1621L260.128 53.7613" stroke="#231815" stroke-width="1.86177" stroke-linecap="round" stroke-linejoin="round"/>
<path d="M262.467 52.8887C262.514 53.0835 262.495 53.2832 262.417 53.4928C262.338 53.7025 262.203 53.9032 262.012 54.0951C261.818 54.2836 261.587 54.4491 261.311 54.5953C261.036 54.7414 260.74 54.8505 260.422 54.9244C260.105 55.0017 259.79 55.0346 259.479 55.0317C259.17 55.0271 258.885 54.9844 258.627 54.8967C258.372 54.8125 258.159 54.6965 257.997 54.5453C257.832 54.3959 257.728 54.2229 257.68 54.0282C257.637 53.8316 257.651 53.6303 257.729 53.4207C257.809 53.2144 257.944 53.0136 258.136 52.8218C258.327 52.6299 258.562 52.4626 258.839 52.3198C259.112 52.1755 259.411 52.0646 259.724 51.9891C260.043 51.9152 260.358 51.8771 260.669 51.8851C260.98 51.888 261.263 51.9325 261.518 52.0168C261.777 52.0993 261.988 52.2204 262.153 52.3698C262.315 52.521 262.42 52.6939 262.467 52.8887Z" fill="#231815" stroke="#231815" stroke-width="0.744705" stroke-linecap="round" stroke-linejoin="round"/>
<path d="M253.458 64.0848L107.961 138.027L116.751 154.824L259.967 76.5191L253.458 64.0848Z" fill="white" stroke="#231815" stroke-width="0.744706" stroke-linecap="round" stroke-linejoin="round"/>
<path d="M251.133 65.0966C251.133 65.0966 257.991 77.8241 257.869 77.8117C264.284 74.6071 268.743 78.3637 271.594 78.6374C274.443 78.9163 291.183 62.7459 296.55 63.0354C300.819 63.269 308.405 67.3167 310.549 59.1963C311.743 54.6733 308.285 49.3569 302.758 49.7422C297.232 50.1274 255.044 58.5136 255.044 58.5136C253.916 58.6372 253.584 59.5886 253.475 59.9437C253.368 60.3022 253.132 64.2576 251.133 65.0966Z" fill="white" stroke="#231815" stroke-width="0.744706" stroke-linecap="round" stroke-linejoin="round"/>
<path d="M300.194 55.2324C299.993 55.3393 299.774 55.4075 299.545 55.4299C299.317 55.4472 299.09 55.4252 298.871 55.3606C298.649 55.2925 298.451 55.1865 298.274 55.039C298.097 54.8916 297.953 54.7178 297.844 54.5126C297.737 54.3107 297.672 54.0908 297.652 53.8648C297.629 53.6354 297.651 53.4083 297.721 53.1903C297.789 52.969 297.899 52.7689 298.043 52.5935C298.19 52.4163 298.367 52.2707 298.569 52.1638C298.774 52.0551 298.991 51.9921 299.22 51.9697C299.45 51.9473 299.677 51.9692 299.898 52.0372C300.114 52.1037 300.314 52.2131 300.495 52.3587C300.67 52.5028 300.812 52.6817 300.919 52.8836C301.028 53.0888 301.094 53.3036 301.117 53.533C301.136 53.7642 301.112 53.9879 301.048 54.2074C300.978 54.4254 300.868 54.6255 300.723 54.8061C300.575 54.9833 300.4 55.1237 300.194 55.2324Z" fill="#231815" stroke="#231815" stroke-width="0.744706" stroke-linecap="round" stroke-linejoin="round"/>
<path d="M292.386 56.8653C292.184 56.9722 291.966 57.0404 291.736 57.0628C291.507 57.0852 291.283 57.0615 291.062 56.9935C290.841 56.9254 290.642 56.8194 290.465 56.6719C290.288 56.5245 290.144 56.3507 290.035 56.1455C289.929 55.9436 289.866 55.7271 289.843 55.4977C289.821 55.2682 289.843 55.0412 289.912 54.8233C289.981 54.6019 290.087 54.4036 290.234 54.2264C290.381 54.0492 290.559 53.9036 290.76 53.7967C290.966 53.688 291.182 53.625 291.412 53.6026C291.641 53.5802 291.865 53.6039 292.086 53.6719C292.306 53.7366 292.506 53.846 292.683 53.9934C292.863 54.1391 293.004 54.3146 293.111 54.5165C293.22 54.7218 293.286 54.9365 293.305 55.1677C293.327 55.3971 293.304 55.6208 293.236 55.8421C293.168 56.0634 293.062 56.2618 292.914 56.439C292.767 56.6162 292.591 56.7566 292.386 56.8653Z" fill="#231815" stroke="#231815" stroke-width="0.744706" stroke-linecap="round" stroke-linejoin="round"/>
<path d="M284.864 58.2512C284.662 58.3581 284.442 58.4229 284.213 58.4453C283.984 58.4677 283.76 58.444 283.539 58.376C283.317 58.3079 283.119 58.2019 282.942 58.0544C282.765 57.907 282.621 57.7333 282.514 57.5314C282.405 57.3261 282.342 57.1096 282.32 56.8802C282.297 56.6508 282.321 56.4271 282.389 56.2058C282.457 55.9844 282.563 55.7861 282.711 55.6089C282.858 55.4317 283.035 55.2862 283.237 55.1792C283.442 55.0705 283.659 55.0075 283.888 54.9851C284.118 54.9627 284.345 54.9846 284.563 55.0544C284.784 55.1225 284.982 55.2285 285.159 55.3759C285.34 55.5216 285.48 55.6971 285.589 55.9024C285.696 56.1043 285.762 56.319 285.782 56.5502C285.804 56.7796 285.78 57.0033 285.712 57.2246C285.647 57.4442 285.538 57.6443 285.391 57.8215C285.243 57.9987 285.069 58.1424 284.864 58.2512Z" fill="#231815" stroke="#231815" stroke-width="0.744706" stroke-linecap="round" stroke-linejoin="round"/>
<path d="M277.189 59.8741C276.987 59.981 276.767 60.0458 276.538 60.0682C276.308 60.0906 276.085 60.0669 275.863 59.9989C275.644 59.9342 275.444 59.8248 275.266 59.6773C275.091 59.5333 274.945 59.3561 274.838 59.1543C274.73 58.949 274.667 58.7325 274.644 58.5031C274.622 58.2736 274.646 58.05 274.714 57.8286C274.783 57.6107 274.89 57.4123 275.035 57.2318C275.183 57.0546 275.362 56.9124 275.563 56.8055C275.769 56.6967 275.983 56.6304 276.213 56.608C276.444 56.5889 276.671 56.6108 276.891 56.6755C277.109 56.7453 277.307 56.8514 277.487 56.997C277.665 57.1445 277.805 57.32 277.914 57.5253C278.021 57.7271 278.089 57.9453 278.11 58.1713C278.129 58.4025 278.107 58.6296 278.04 58.8457C277.972 59.067 277.863 59.2672 277.715 59.4444C277.568 59.6216 277.394 59.7653 277.189 59.8741Z" fill="#231815" stroke="#231815" stroke-width="0.744706" stroke-linecap="round" stroke-linejoin="round"/>
<path d="M269.427 61.4428C269.226 61.5498 269.006 61.6145 268.776 61.6369C268.547 61.6594 268.323 61.6357 268.102 61.5676C267.881 61.4996 267.682 61.3935 267.505 61.2461C267.328 61.0987 267.184 60.9249 267.077 60.723C266.968 60.5178 266.905 60.3012 266.883 60.0718C266.861 59.8424 266.884 59.6187 266.952 59.3974C267.02 59.1761 267.126 58.9777 267.274 58.8005C267.421 58.6233 267.598 58.4778 267.8 58.3709C268.005 58.2621 268.222 58.1992 268.451 58.1767C268.681 58.1543 268.905 58.178 269.126 58.2461C269.347 58.3141 269.546 58.4202 269.723 58.5676C269.903 58.7132 270.044 58.8888 270.152 59.094C270.259 59.2959 270.326 59.5107 270.345 59.7419C270.367 59.9713 270.343 60.195 270.275 60.4163C270.207 60.6376 270.101 60.836 269.954 61.0132C269.806 61.1903 269.633 61.3341 269.427 61.4428Z" fill="#231815" stroke="#231815" stroke-width="0.744706" stroke-linecap="round" stroke-linejoin="round"/>
<path d="M261.672 62.5735C261.47 62.6805 261.252 62.7486 261.021 62.7677C260.791 62.7901 260.567 62.7664 260.348 62.7017C260.127 62.6337 259.926 62.5243 259.751 62.3802C259.574 62.2328 259.43 62.059 259.321 61.8537C259.214 61.6519 259.15 61.432 259.127 61.2025C259.107 60.9765 259.129 60.7494 259.197 60.5281C259.266 60.3102 259.372 60.1118 259.52 59.9346C259.666 59.7541 259.844 59.6119 260.046 59.505C260.252 59.3962 260.466 59.3299 260.698 59.3108C260.927 59.2884 261.154 59.3103 261.37 59.3768C261.591 59.4448 261.792 59.5542 261.967 59.6983C262.148 59.844 262.29 60.0229 262.397 60.2247C262.505 60.43 262.572 60.6448 262.591 60.8759C262.611 61.102 262.59 61.329 262.521 61.5504C262.455 61.7665 262.346 61.9667 262.198 62.1439C262.053 62.3244 261.877 62.4648 261.672 62.5735Z" fill="#231815" stroke="#231815" stroke-width="0.744706" stroke-linecap="round" stroke-linejoin="round"/>
<path d="M103.808 142.859C103.687 142.923 103.56 142.96 103.426 142.975C103.29 142.987 103.158 142.975 103.03 142.935C102.901 142.896 102.785 142.832 102.679 142.746C102.577 142.658 102.493 142.556 102.428 142.435C102.366 142.317 102.329 142.19 102.314 142.056C102.302 141.92 102.315 141.789 102.354 141.66C102.394 141.531 102.457 141.416 102.543 141.31C102.631 141.207 102.733 141.123 102.854 141.059C102.972 140.997 103.102 140.958 103.233 140.945C103.369 140.933 103.501 140.945 103.629 140.985C103.758 141.024 103.877 141.086 103.98 141.174C104.085 141.26 104.17 141.362 104.232 141.48C104.296 141.601 104.333 141.728 104.345 141.864C104.36 141.998 104.344 142.131 104.305 142.26C104.265 142.389 104.202 142.504 104.115 142.61C104.031 142.711 103.926 142.797 103.808 142.859Z" stroke="#231815" stroke-width="0.744706" stroke-linecap="round" stroke-linejoin="round"/>
<path d="M105.343 145.756C105.221 145.82 105.095 145.857 104.96 145.872C104.824 145.884 104.693 145.872 104.564 145.832C104.436 145.793 104.32 145.729 104.214 145.643C104.111 145.555 104.027 145.453 103.963 145.332C103.901 145.214 103.864 145.087 103.849 144.953C103.837 144.817 103.849 144.686 103.889 144.557C103.928 144.428 103.992 144.313 104.078 144.207C104.166 144.104 104.268 144.02 104.389 143.956C104.507 143.894 104.637 143.855 104.768 143.842C104.904 143.83 105.035 143.842 105.164 143.882C105.293 143.921 105.412 143.983 105.514 144.071C105.62 144.157 105.704 144.259 105.767 144.377C105.831 144.498 105.868 144.625 105.88 144.761C105.895 144.895 105.879 145.028 105.839 145.157C105.8 145.286 105.736 145.401 105.65 145.507C105.566 145.608 105.46 145.694 105.343 145.756Z" stroke="#231815" stroke-width="0.744706" stroke-linecap="round" stroke-linejoin="round"/>
<path d="M106.878 148.657C106.757 148.721 106.63 148.758 106.494 148.77C106.36 148.785 106.229 148.772 106.098 148.729C105.969 148.69 105.854 148.626 105.75 148.543C105.647 148.456 105.563 148.354 105.499 148.233C105.436 148.115 105.399 147.988 105.384 147.854C105.373 147.718 105.385 147.586 105.424 147.458C105.464 147.329 105.528 147.213 105.614 147.107C105.702 147.005 105.804 146.921 105.925 146.856C106.042 146.794 106.173 146.755 106.304 146.742C106.44 146.73 106.571 146.743 106.7 146.782C106.828 146.822 106.947 146.884 107.05 146.971C107.156 147.058 107.24 147.159 107.302 147.277C107.366 147.398 107.403 147.525 107.415 147.661C107.428 147.792 107.413 147.925 107.373 148.054C107.336 148.186 107.272 148.302 107.184 148.404C107.101 148.508 106.996 148.594 106.878 148.657Z" stroke="#231815" stroke-width="0.744706" stroke-linecap="round" stroke-linejoin="round"/>
<path d="M108.413 151.554C108.292 151.618 108.165 151.655 108.029 151.666C107.895 151.682 107.763 151.669 107.633 151.626C107.504 151.587 107.388 151.523 107.284 151.44C107.182 151.353 107.098 151.251 107.033 151.129C106.971 151.012 106.934 150.885 106.919 150.751C106.907 150.615 106.92 150.483 106.959 150.355C106.999 150.226 107.062 150.11 107.148 150.004C107.236 149.902 107.338 149.818 107.459 149.753C107.577 149.691 107.707 149.652 107.838 149.639C107.974 149.627 108.106 149.639 108.234 149.679C108.363 149.719 108.482 149.781 108.584 149.868C108.69 149.955 108.775 150.056 108.837 150.174C108.901 150.295 108.938 150.422 108.95 150.558C108.963 150.689 108.948 150.822 108.908 150.951C108.87 151.083 108.806 151.199 108.719 151.301C108.636 151.405 108.531 151.491 108.413 151.554Z" stroke="#231815" stroke-width="0.744706" stroke-linecap="round" stroke-linejoin="round"/>
<path d="M109.947 154.451C109.826 154.515 109.699 154.552 109.563 154.563C109.429 154.579 109.298 154.566 109.167 154.523C109.039 154.484 108.923 154.42 108.819 154.337C108.716 154.25 108.632 154.148 108.568 154.026C108.506 153.909 108.468 153.782 108.453 153.648C108.442 153.512 108.454 153.38 108.493 153.252C108.533 153.123 108.597 153.007 108.683 152.901C108.771 152.799 108.873 152.715 108.994 152.65C109.112 152.588 109.242 152.549 109.373 152.536C109.509 152.524 109.64 152.537 109.769 152.576C109.897 152.616 110.016 152.678 110.119 152.765C110.225 152.852 110.309 152.953 110.371 153.071C110.436 153.192 110.473 153.319 110.484 153.455C110.498 153.586 110.482 153.719 110.442 153.848C110.405 153.98 110.341 154.096 110.253 154.198C110.17 154.302 110.065 154.388 109.947 154.451Z" stroke="#231815" stroke-width="0.744706" stroke-linecap="round" stroke-linejoin="round"/>
<path d="M111.482 157.348C111.361 157.412 111.234 157.449 111.098 157.46C110.964 157.476 110.833 157.463 110.702 157.42C110.574 157.381 110.458 157.317 110.354 157.234C110.251 157.147 110.167 157.045 110.103 156.923C110.041 156.806 110.004 156.679 109.989 156.545C109.977 156.409 109.989 156.277 110.029 156.149C110.068 156.02 110.132 155.904 110.218 155.798C110.306 155.696 110.408 155.612 110.529 155.547C110.647 155.485 110.777 155.446 110.908 155.433C111.044 155.421 111.175 155.433 111.304 155.473C111.433 155.513 111.552 155.575 111.654 155.662C111.76 155.748 111.844 155.85 111.907 155.968C111.971 156.089 112.008 156.216 112.019 156.352C112.033 156.483 112.017 156.616 111.978 156.745C111.94 156.877 111.876 156.993 111.788 157.095C111.705 157.199 111.6 157.285 111.482 157.348Z" stroke="#231815" stroke-width="0.744706" stroke-linecap="round" stroke-linejoin="round"/>
<path d="M81.9463 154.021C81.8285 154.084 81.7017 154.121 81.5675 154.136C81.4315 154.148 81.3 154.135 81.1714 154.096C81.0409 154.053 80.9237 153.994 80.8211 153.906C80.7152 153.82 80.6311 153.718 80.5669 153.597C80.5045 153.479 80.4675 153.353 80.4558 153.217C80.4407 153.082 80.4563 152.949 80.4959 152.821C80.5355 152.692 80.5992 152.576 80.6852 152.47C80.7731 152.368 80.875 152.284 80.9928 152.221C81.1139 152.157 81.2408 152.12 81.375 152.105C81.511 152.093 81.6424 152.105 81.7711 152.145C81.8998 152.185 82.0154 152.248 82.1213 152.334C82.2272 152.42 82.308 152.524 82.3704 152.642C82.4346 152.763 82.475 152.888 82.4867 153.024C82.4984 153.16 82.4844 153.288 82.4466 153.42C82.407 153.549 82.3433 153.665 82.2572 153.77C82.1694 153.873 82.0674 153.957 81.9463 154.021Z" stroke="#231815" stroke-width="0.744706" stroke-linecap="round" stroke-linejoin="round"/>
<path d="M83.5344 157.019C83.4167 157.082 83.2898 157.119 83.1556 157.134C83.0196 157.145 82.8882 157.133 82.7595 157.094C82.629 157.051 82.5118 156.992 82.4093 156.904C82.3034 156.818 82.2192 156.716 82.1551 156.595C82.0927 156.477 82.0556 156.351 82.0439 156.215C82.0288 156.08 82.0445 155.947 82.084 155.818C82.1236 155.69 82.1873 155.574 82.2734 155.468C82.3612 155.366 82.4632 155.282 82.5809 155.219C82.7021 155.155 82.8289 155.118 82.9631 155.103C83.0991 155.091 83.2306 155.103 83.3592 155.143C83.4879 155.183 83.6035 155.246 83.7094 155.332C83.8154 155.418 83.8962 155.522 83.9585 155.64C84.0227 155.761 84.0631 155.886 84.0748 156.022C84.0865 156.158 84.0725 156.286 84.0347 156.418C83.9951 156.547 83.9314 156.662 83.8454 156.768C83.7575 156.871 83.6556 156.955 83.5344 157.019Z" stroke="#231815" stroke-width="0.744706" stroke-linecap="round" stroke-linejoin="round"/>
<path d="M85.1218 160.017C85.0041 160.08 84.8772 160.117 84.743 160.132C84.607 160.143 84.4756 160.131 84.3469 160.092C84.2165 160.049 84.0992 159.99 83.9967 159.902C83.8908 159.816 83.8066 159.714 83.7425 159.593C83.6801 159.475 83.643 159.349 83.6313 159.213C83.6163 159.078 83.6319 158.945 83.6714 158.816C83.711 158.688 83.7747 158.572 83.8608 158.466C83.9486 158.364 84.0506 158.28 84.1683 158.217C84.2895 158.153 84.4163 158.116 84.5505 158.101C84.6865 158.089 84.818 158.101 84.9466 158.141C85.0753 158.181 85.1909 158.244 85.2969 158.33C85.4028 158.416 85.4836 158.52 85.5459 158.638C85.6101 158.759 85.6505 158.884 85.6622 159.02C85.6739 159.156 85.6599 159.284 85.6221 159.416C85.5826 159.545 85.5188 159.66 85.4328 159.766C85.3449 159.869 85.243 159.953 85.1218 160.017Z" stroke="#231815" stroke-width="0.744706" stroke-linecap="round" stroke-linejoin="round"/>
<path d="M86.7083 163.012C86.5905 163.074 86.4636 163.111 86.3294 163.126C86.1934 163.138 86.062 163.126 85.9333 163.086C85.8047 163.047 85.6857 162.985 85.5831 162.897C85.4772 162.811 85.393 162.709 85.3307 162.591C85.2665 162.47 85.2295 162.343 85.2177 162.207C85.2027 162.073 85.2183 161.94 85.2578 161.811C85.2974 161.682 85.3611 161.567 85.4472 161.461C85.5351 161.358 85.637 161.274 85.7548 161.212C85.8759 161.148 86.0028 161.11 86.137 161.095C86.2729 161.084 86.4044 161.096 86.5331 161.136C86.6617 161.175 86.7774 161.239 86.8833 161.325C86.9892 161.411 87.07 161.515 87.1341 161.636C87.1965 161.754 87.2369 161.879 87.2486 162.015C87.2603 162.151 87.2481 162.282 87.2085 162.411C87.169 162.539 87.1053 162.655 87.0192 162.761C86.9313 162.863 86.8294 162.948 86.7083 163.012Z" stroke="#231815" stroke-width="0.744706" stroke-linecap="round" stroke-linejoin="round"/>
<path d="M88.2967 166.01C88.1789 166.072 88.052 166.109 87.9178 166.124C87.7818 166.136 87.6504 166.124 87.5217 166.084C87.393 166.044 87.274 165.983 87.1715 165.895C87.0656 165.809 86.9814 165.707 86.919 165.589C86.8549 165.468 86.8178 165.341 86.8061 165.205C86.7911 165.071 86.8067 164.938 86.8462 164.809C86.8858 164.68 86.9495 164.565 87.0356 164.459C87.1235 164.356 87.2254 164.272 87.3431 164.21C87.4643 164.145 87.5911 164.108 87.7253 164.093C87.8613 164.082 87.9928 164.094 88.1214 164.133C88.2501 164.173 88.3657 164.237 88.4717 164.323C88.5776 164.409 88.6584 164.513 88.7225 164.634C88.7849 164.751 88.8253 164.876 88.837 165.012C88.8487 165.148 88.8365 165.28 88.7969 165.409C88.7574 165.537 88.6936 165.653 88.6076 165.759C88.5197 165.861 88.4178 165.945 88.2967 166.01Z" stroke="#231815" stroke-width="0.744706" stroke-linecap="round" stroke-linejoin="round"/>
<path d="M89.8848 169.008C89.767 169.07 89.6401 169.107 89.5059 169.122C89.37 169.134 89.2385 169.122 89.1098 169.082C88.9812 169.042 88.8622 168.981 88.7596 168.893C88.6537 168.807 88.5696 168.705 88.5072 168.587C88.443 168.466 88.406 168.339 88.3943 168.203C88.3792 168.069 88.3948 167.936 88.4344 167.807C88.4739 167.678 88.5376 167.563 88.6237 167.457C88.7116 167.354 88.8135 167.27 88.9313 167.208C89.0524 167.143 89.1793 167.106 89.3135 167.091C89.4495 167.08 89.5809 167.092 89.7096 167.131C89.8382 167.171 89.9539 167.235 90.0598 167.321C90.1657 167.407 90.2465 167.51 90.3107 167.632C90.373 167.749 90.4134 167.874 90.4252 168.01C90.4369 168.146 90.4246 168.278 90.385 168.407C90.3455 168.535 90.2818 168.651 90.1957 168.757C90.1078 168.859 90.0059 168.943 89.8848 169.008Z" stroke="#231815" stroke-width="0.744706" stroke-linecap="round" stroke-linejoin="round"/>
<path d="M260.861 61.5298L48.6397 169.859" stroke="#231815" stroke-width="0.372353" stroke-linecap="round" stroke-linejoin="round"/>
<path d="M268.597 60.2155L50.3146 173.021" stroke="#231815" stroke-width="0.372353" stroke-linecap="round" stroke-linejoin="round"/>
<path d="M276.165 59.0244L51.9899 176.184" stroke="#231815" stroke-width="0.372353" stroke-linecap="round" stroke-linejoin="round"/>
<path d="M284.408 57.1615L53.6651 179.347" stroke="#231815" stroke-width="0.372353" stroke-linecap="round" stroke-linejoin="round"/>
<path d="M291.576 55.8247L55.413 182.459" stroke="#231815" stroke-width="0.372353" stroke-linecap="round" stroke-linejoin="round"/>
<path d="M299.395 53.9107L57.0892 185.681" stroke="#231815" stroke-width="0.372353" stroke-linecap="round" stroke-linejoin="round"/>
<path d="M46.1055 171.908L45.5192 170.801C45.4087 170.592 45.4878 170.335 45.6964 170.224L50.5987 167.627C50.804 167.519 51.0647 167.596 51.1752 167.805L51.7616 168.912C51.8721 169.12 51.7896 169.379 51.5843 169.488L46.682 172.085C46.4734 172.195 46.216 172.116 46.1055 171.908Z" fill="#231815" stroke="#231815" stroke-width="0.744706" stroke-linecap="round" stroke-linejoin="round"/>
<path d="M47.7813 175.07L47.1949 173.963C47.0844 173.755 47.1636 173.497 47.3722 173.387L52.2745 170.79C52.4798 170.681 52.7405 170.759 52.851 170.967L53.4373 172.074C53.5461 172.28 53.4654 172.542 53.2601 172.651L48.3578 175.248C48.1491 175.358 47.89 175.276 47.7813 175.07Z" fill="#231815" stroke="#231815" stroke-width="0.744706" stroke-linecap="round" stroke-linejoin="round"/>
<path d="M49.4579 178.236L48.8715 177.13C48.761 176.921 48.8384 176.66 49.047 176.55L53.9493 173.953C54.1546 173.844 54.4171 173.925 54.5276 174.134L55.1139 175.24C55.2227 175.446 55.1419 175.708 54.9367 175.817L50.0343 178.414C49.824 178.521 49.5666 178.442 49.4579 178.236Z" fill="#231815" stroke="#231815" stroke-width="0.744706" stroke-linecap="round" stroke-linejoin="round"/>
<path d="M51.1329 181.399L50.5448 180.289C50.4361 180.084 50.5134 179.823 50.722 179.713L55.6244 177.116C55.8296 177.007 56.0921 177.088 56.2008 177.293L56.789 178.403C56.8977 178.609 56.817 178.871 56.6118 178.98L51.7094 181.577C51.499 181.684 51.2417 181.605 51.1329 181.399Z" fill="#231815" stroke="#231815" stroke-width="0.744706" stroke-linecap="round" stroke-linejoin="round"/>
<path d="M52.8069 184.559L52.2206 183.452C52.1119 183.246 52.1892 182.986 52.3978 182.875L57.3002 180.279C57.5054 180.17 57.7679 180.25 57.8766 180.456L58.463 181.563C58.5735 181.771 58.4928 182.034 58.2875 182.143L53.3852 184.739C53.1766 184.85 52.9174 184.767 52.8069 184.559Z" fill="#231815" stroke="#231815" stroke-width="0.744706" stroke-linecap="round" stroke-linejoin="round"/>
<path d="M54.4822 187.721L53.8959 186.615C53.7871 186.409 53.8645 186.149 54.0731 186.038L58.9755 183.441C59.1807 183.333 59.4432 183.413 59.5519 183.619L60.1383 184.725C60.2488 184.934 60.1663 185.193 59.961 185.302L55.0587 187.899C54.8501 188.009 54.5927 187.93 54.4822 187.721Z" fill="#231815" stroke="#231815" stroke-width="0.744706" stroke-linecap="round" stroke-linejoin="round"/>
<path d="M29.8018 156.711C30.2123 156.493 30.5718 156.424 30.8802 156.501C31.1953 156.576 31.4456 156.788 31.6309 157.138C31.8198 157.495 31.8601 157.831 31.7499 158.143C31.65 158.459 31.3957 158.727 30.9852 158.945C30.5815 159.159 30.2167 159.218 29.8926 159.127C29.5721 159.043 29.3165 158.821 29.1276 158.464C28.9601 158.148 28.917 157.839 28.9967 157.534C29.0814 157.222 29.3509 156.95 29.8018 156.711Z" fill="black"/>
</svg>
