<svg width="100" height="72" viewBox="0 0 100 72" fill="none" xmlns="http://www.w3.org/2000/svg">
<path d="M39.039 36.3334C40.4083 39.1795 42.5828 37.8868 43.6445 39.7545C44.8923 41.9516 40.7081 45.0263 41.5424 46.8723C42.3762 48.7173 46.5014 47.1759 47.6975 48.7579C48.8945 50.3393 46.6747 52.5079 44.3599 53.8142C40.2247 56.1468 35.3088 54.4386 33.3377 56.1251C31.3671 57.8126 27.789 66.8316 19.3816 67.9979C10.9758 69.162 1.95383 49.8775 6.50947 42.7941C10.2926 36.9123 21.7368 38.7314 24.894 38.203C28.0507 37.6736 33.0632 29.9204 37.8032 28.0533C42.5441 26.1858 45.2988 27.1426 45.2657 28.8883C45.2223 31.1514 37.6128 33.3725 39.039 36.3334Z" fill="#231815" stroke="#231815" stroke-width="0.744706" stroke-linecap="round" stroke-linejoin="round"/>
<path d="M35.608 37.2938C36.9229 38.2803 35.9569 41.469 37.1689 44.9724C38.1974 47.9461 42.1634 49.179 39.8128 51.7206C38.1279 53.5425 35.2586 52.4229 33.7314 53.0831C29.9426 54.7204 27.2761 59.6061 25.0436 62.2364C23.7204 63.7943 21.1484 65.6104 19.8077 64.7242C17.4882 63.1905 17.792 56.5238 17.0969 53.3179C16.167 49.0316 15.3989 46.0932 18.1729 44.6704C22.3973 42.5037 23.8103 43.6852 26.1275 42.2445C29.0329 40.4353 32.872 35.24 35.608 37.2938Z" fill="white"/>
<path d="M16.3499 48.8455L20.1937 56.1021L16.9131 57.8398L13.0693 50.5832L16.3499 48.8455Z" fill="white" stroke="#231815" stroke-width="0.744706" stroke-linecap="round" stroke-linejoin="round"/>
<path d="M19.467 56.4871L20.3493 58.1526L18.5222 59.1204L17.64 57.4549L19.467 56.4871Z" fill="white" stroke="#231815" stroke-width="0.744706" stroke-linecap="round" stroke-linejoin="round"/>
<path d="M20.9355 46.4165L24.7794 53.6731L23.6791 54.2559L19.8353 46.9993L20.9355 46.4165Z" stroke="#231815" stroke-width="0.744706" stroke-linecap="round" stroke-linejoin="round"/>
<path d="M34.117 48.3379L30.5951 41.6889C30.5064 41.5214 30.5694 41.3135 30.738 41.2242L31.2306 40.9632C31.3982 40.8745 31.6066 40.9386 31.6954 41.1061L35.2173 47.7551C35.3061 47.9226 35.243 48.1305 35.0744 48.2198L34.5818 48.4808C34.4143 48.5695 34.2063 48.5064 34.117 48.3379Z" stroke="#231815" stroke-width="0.744706" stroke-linecap="round" stroke-linejoin="round"/>
<path d="M27.6011 51.7892L24.0792 45.1403C23.9905 44.9727 24.0545 44.7643 24.2221 44.6755L24.7147 44.4146C24.8823 44.3259 25.0917 44.3894 25.1805 44.557L28.7024 51.2059C28.7912 51.3735 28.7271 51.5819 28.5585 51.6712L28.0659 51.9321C27.8984 52.0209 27.6904 51.9578 27.6011 51.7892Z" stroke="#231815" stroke-width="0.744706" stroke-linecap="round" stroke-linejoin="round"/>
<path d="M19.8313 47.0014L23.6751 54.258L22.5759 54.8403L18.7321 47.5837L19.8313 47.0014Z" stroke="#231815" stroke-width="0.744706" stroke-linecap="round" stroke-linejoin="round"/>
<path d="M22.9615 59.478C22.8505 59.5369 22.7322 59.5723 22.6068 59.5845C22.4814 59.5966 22.3585 59.5842 22.238 59.5472C22.1181 59.5111 22.0095 59.4524 21.9125 59.3719C21.8161 59.2924 21.7383 59.1966 21.6794 59.0856C21.6206 58.9745 21.5851 58.8563 21.5735 58.7319C21.5614 58.6065 21.5738 58.4836 21.6109 58.3631C21.6484 58.2437 21.7072 58.135 21.7877 58.0381C21.8682 57.9411 21.964 57.8633 22.075 57.8045C22.186 57.7456 22.3043 57.7102 22.4297 57.698C22.5551 57.6859 22.678 57.6983 22.7969 57.7349C22.9174 57.7719 23.026 57.8307 23.124 57.9106C23.2204 57.9901 23.2983 58.0859 23.3571 58.1969C23.4159 58.308 23.4514 58.4262 23.463 58.5506C23.4741 58.6766 23.4617 58.7995 23.4241 58.9189C23.3881 59.0388 23.3293 59.1475 23.2488 59.2444C23.1683 59.3414 23.0725 59.4192 22.9615 59.478Z" stroke="#231815" stroke-width="0.744706" stroke-linecap="round" stroke-linejoin="round"/>
<path d="M22.7445 59.0708C22.6879 59.1007 22.6265 59.119 22.5623 59.1246C22.4986 59.1312 22.4356 59.1245 22.3738 59.1056C22.312 59.0866 22.2572 59.0562 22.2072 59.0155C22.1571 58.9747 22.1182 58.9256 22.0882 58.869C22.0583 58.8125 22.039 58.7517 22.0334 58.6874C22.0278 58.6231 22.034 58.5617 22.053 58.4999C22.072 58.4382 22.1018 58.3823 22.1431 58.3333C22.1838 58.2833 22.2335 58.2427 22.29 58.2128C22.3465 58.1829 22.4079 58.1646 22.4722 58.159C22.5359 58.1524 22.5989 58.1591 22.6607 58.178C22.7224 58.197 22.7768 58.2264 22.8268 58.2671C22.8768 58.3079 22.9163 58.358 22.9462 58.4146C22.9762 58.4711 22.9949 58.5309 23.0005 58.5952C23.0061 58.6594 23.0005 58.7219 22.9815 58.7837C22.9625 58.8454 22.9326 58.9013 22.8914 58.9503C22.8506 59.0003 22.801 59.0409 22.7445 59.0708Z" fill="#231815" stroke="#231815" stroke-width="0.372353" stroke-linecap="round" stroke-linejoin="round"/>
<path d="M21.4403 63.9291C21.3293 63.9879 21.2111 64.0234 21.0856 64.0356C20.9602 64.0477 20.8373 64.0353 20.7169 63.9982C20.5964 63.9612 20.4883 63.9034 20.3913 63.8229C20.2944 63.7424 20.2171 63.6477 20.1582 63.5367C20.0994 63.4256 20.064 63.3074 20.0518 63.182C20.0402 63.0576 20.0526 62.9346 20.0897 62.8142C20.1267 62.6938 20.1855 62.5851 20.266 62.4881C20.3465 62.3912 20.4422 62.3133 20.5533 62.2545C20.6643 62.1957 20.7825 62.1602 20.908 62.1481C21.0334 62.136 21.1563 62.1484 21.2767 62.1854C21.3972 62.2225 21.5059 62.2812 21.6023 62.3607C21.6992 62.4412 21.7771 62.537 21.8359 62.648C21.8947 62.7591 21.9296 62.8763 21.9418 63.0017C21.9539 63.1271 21.9409 63.249 21.9039 63.3695C21.8669 63.4899 21.8081 63.5986 21.7276 63.6955C21.6471 63.7924 21.5513 63.8703 21.4403 63.9291Z" stroke="#231815" stroke-width="0.744706" stroke-linecap="round" stroke-linejoin="round"/>
<path d="M21.2237 63.5203C21.1671 63.5503 21.1058 63.5686 21.042 63.5752C20.9778 63.5808 20.9153 63.5751 20.8535 63.5561C20.7918 63.5371 20.7359 63.5073 20.6869 63.466C20.6369 63.4253 20.5979 63.3761 20.568 63.3196C20.5375 63.2621 20.5187 63.2022 20.5131 63.138C20.5065 63.0742 20.5132 63.0112 20.5322 62.9495C20.5517 62.8887 20.5816 62.8328 20.6223 62.7828C20.6636 62.7338 20.7132 62.6933 20.7697 62.6634C20.8263 62.6334 20.8877 62.6151 20.9514 62.6085C21.0156 62.6029 21.0786 62.6096 21.1399 62.6276C21.2016 62.6466 21.2565 62.677 21.3065 62.7177C21.3565 62.7584 21.3955 62.8076 21.426 62.8651C21.4559 62.9216 21.4747 62.9815 21.4803 63.0458C21.4859 63.11 21.4802 63.1725 21.4612 63.2342C21.4422 63.296 21.4118 63.3509 21.3711 63.4009C21.3298 63.4499 21.2802 63.4904 21.2237 63.5203Z" fill="#231815" stroke="#231815" stroke-width="0.372353" stroke-linecap="round" stroke-linejoin="round"/>
<path d="M19.1582 57.549L24.9528 56.6603L31.4219 52.9842" stroke="#231815" stroke-width="2.23412" stroke-linecap="round" stroke-linejoin="round"/>
<path d="M90.5833 15.0022L90.4014 13.9805" stroke="#231815" stroke-width="1.86177" stroke-linecap="round" stroke-linejoin="round"/>
<path d="M91.1047 13.7191C91.1183 13.7766 91.1131 13.8375 91.0896 13.9004C91.066 13.9633 91.0255 14.0235 90.9676 14.08C90.9101 14.1376 90.8398 14.1878 90.758 14.2311C90.6753 14.2749 90.5866 14.3077 90.4911 14.3299C90.3961 14.353 90.3018 14.3629 90.2082 14.362C90.1147 14.3612 90.0295 14.3468 89.9528 14.3215C89.8751 14.2968 89.8124 14.2615 89.7638 14.2161C89.7142 14.1713 89.6829 14.1194 89.6687 14.061C89.6546 14.0025 89.6598 13.9416 89.6833 13.8787C89.7069 13.8158 89.7479 13.7566 89.8053 13.6991C89.8627 13.6415 89.9331 13.5913 90.0149 13.548C90.0982 13.5052 90.1868 13.4724 90.2818 13.4492C90.3774 13.4271 90.4711 13.4162 90.5647 13.4171C90.6577 13.4195 90.7434 13.4323 90.8201 13.4576C90.8968 13.4828 90.9605 13.5176 91.0096 13.564C91.0592 13.6088 91.0906 13.6607 91.1047 13.7191Z" fill="#231815" stroke="#231815" stroke-width="0.744705" stroke-linecap="round" stroke-linejoin="round"/>
<path d="M88.2022 15.4169L88.0188 14.3972" stroke="#231815" stroke-width="1.86177" stroke-linecap="round" stroke-linejoin="round"/>
<path d="M88.7226 14.1343C88.7358 14.1933 88.7316 14.2537 88.708 14.3166C88.6844 14.3795 88.6434 14.4387 88.586 14.4962C88.5286 14.5538 88.4582 14.604 88.3765 14.6473C88.2932 14.6901 88.2045 14.7229 88.1095 14.746C88.014 14.7682 87.9192 14.7796 87.8267 14.7782C87.7326 14.7763 87.648 14.763 87.5712 14.7377C87.4935 14.713 87.4309 14.6777 87.3813 14.6328C87.3321 14.5865 87.3008 14.5346 87.2866 14.4761C87.273 14.4187 87.2782 14.3578 87.3018 14.2949C87.3253 14.232 87.3664 14.1728 87.4238 14.1152C87.4812 14.0577 87.5505 14.008 87.6333 13.9642C87.7166 13.9213 87.8047 13.8876 87.9003 13.8654C87.9953 13.8422 88.0896 13.8324 88.1831 13.8332C88.2756 13.8346 88.3618 13.8485 88.4385 13.8737C88.5153 13.899 88.5789 13.9338 88.6275 13.9792C88.6776 14.025 88.709 14.0769 88.7226 14.1343Z" fill="#231815" stroke="#231815" stroke-width="0.744705" stroke-linecap="round" stroke-linejoin="round"/>
<path d="M85.9707 15.8479L85.7883 14.8277" stroke="#231815" stroke-width="1.86177" stroke-linecap="round" stroke-linejoin="round"/>
<path d="M86.4914 14.5663C86.5056 14.6248 86.5004 14.6857 86.4763 14.7476C86.4527 14.8105 86.4122 14.8707 86.3548 14.9282C86.2969 14.9848 86.228 15.0355 86.1447 15.0783C86.062 15.1221 85.9733 15.1549 85.8778 15.1771C85.7828 15.2002 85.689 15.2111 85.5949 15.2092C85.5024 15.2078 85.4168 15.195 85.3401 15.1698C85.2628 15.1435 85.1991 15.1087 85.1505 15.0633C85.1009 15.0185 85.0696 14.9666 85.0554 14.9082C85.0423 14.8492 85.0465 14.7888 85.0706 14.7269C85.0942 14.664 85.1346 14.6038 85.192 14.5463C85.2495 14.4887 85.3198 14.4385 85.4031 14.3957C85.4849 14.3524 85.5735 14.3196 85.6685 14.2964C85.7641 14.2743 85.8589 14.2628 85.9519 14.2653C86.0454 14.2661 86.1301 14.2795 86.2068 14.3048C86.2845 14.3295 86.3477 14.3658 86.3973 14.4107C86.4459 14.456 86.4773 14.5079 86.4914 14.5663Z" fill="#231815" stroke="#231815" stroke-width="0.744705" stroke-linecap="round" stroke-linejoin="round"/>
<path d="M83.7539 16.2607L83.5715 15.2404" stroke="#231815" stroke-width="1.86177" stroke-linecap="round" stroke-linejoin="round"/>
<path d="M84.2754 14.9776C84.2885 15.0366 84.2838 15.0959 84.2602 15.1588C84.2366 15.2217 84.1962 15.2819 84.1387 15.3395C84.0808 15.396 84.0104 15.4462 83.9277 15.4901C83.8459 15.5334 83.7562 15.5667 83.6607 15.5888C83.5667 15.6115 83.4714 15.6219 83.3789 15.6205C83.2853 15.6196 83.2007 15.6063 83.1235 15.58C83.0457 15.5553 82.9831 15.5199 82.9335 15.4751C82.8849 15.4298 82.8535 15.3779 82.8394 15.3194C82.8252 15.261 82.8304 15.2001 82.854 15.1372C82.8781 15.0753 82.9186 15.0151 82.976 14.9575C83.0334 14.9 83.1027 14.8503 83.1861 14.8075C83.2688 14.7636 83.3575 14.7309 83.4525 14.7077C83.548 14.6855 83.6418 14.6746 83.7359 14.6765C83.8284 14.6779 83.914 14.6907 83.9907 14.716C84.0675 14.7413 84.1317 14.7771 84.1803 14.8224C84.2299 14.8673 84.2612 14.9192 84.2754 14.9776Z" fill="#231815" stroke="#231815" stroke-width="0.744705" stroke-linecap="round" stroke-linejoin="round"/>
<path d="M81.5425 16.6811L81.3601 15.6608" stroke="#231815" stroke-width="1.86177" stroke-linecap="round" stroke-linejoin="round"/>
<path d="M82.063 15.3985C82.0761 15.4574 82.0719 15.5178 82.0478 15.5797C82.0242 15.6426 81.9838 15.7028 81.9263 15.7604C81.8684 15.8169 81.7986 15.8681 81.7153 15.911C81.6335 15.9543 81.5438 15.9875 81.4483 16.0097C81.3543 16.0324 81.259 16.0428 81.1665 16.0414C81.0729 16.0405 80.9883 16.0272 80.9116 16.0019C80.8333 15.9761 80.7707 15.9408 80.7211 15.896C80.6725 15.8506 80.6411 15.7987 80.627 15.7403C80.6128 15.6819 80.618 15.6209 80.6421 15.5591C80.6657 15.4962 80.7062 15.4359 80.7636 15.3784C80.821 15.3208 80.8903 15.2712 80.9737 15.2283C81.0564 15.1845 81.1451 15.1517 81.2401 15.1286C81.3356 15.1064 81.4294 15.0955 81.5235 15.0974C81.616 15.0988 81.7016 15.1116 81.7783 15.1369C81.8551 15.1622 81.9193 15.198 81.9679 15.2433C82.0175 15.2881 82.0488 15.34 82.063 15.3985Z" fill="#231815" stroke="#231815" stroke-width="0.744705" stroke-linecap="round" stroke-linejoin="round"/>
<path d="M79.0166 17.1854L78.8342 16.1652" stroke="#231815" stroke-width="1.86177" stroke-linecap="round" stroke-linejoin="round"/>
<path d="M79.5356 15.9034C79.5498 15.9618 79.544 16.0217 79.5205 16.0846C79.4969 16.1475 79.4564 16.2077 79.399 16.2653C79.3411 16.3218 79.2717 16.3715 79.1889 16.4153C79.1062 16.4592 79.0175 16.4919 78.922 16.5141C78.827 16.5373 78.7327 16.5472 78.6391 16.5463C78.5466 16.5449 78.461 16.5321 78.3837 16.5058C78.307 16.4805 78.2433 16.4457 78.1947 16.4004C78.1451 16.3555 78.1138 16.3036 78.0996 16.2452C78.0865 16.1862 78.0907 16.1259 78.1142 16.063C78.1383 16.0011 78.1788 15.9409 78.2362 15.8833C78.2936 15.8257 78.364 15.7755 78.4473 15.7327C78.5291 15.6894 78.6187 15.6561 78.7127 15.6335C78.8083 15.6113 78.9031 15.5999 78.9961 15.6023C79.0896 15.6032 79.1743 15.6165 79.251 15.6418C79.3287 15.6665 79.3919 15.7029 79.4415 15.7477C79.4901 15.793 79.5215 15.8449 79.5356 15.9034Z" fill="#231815" stroke="#231815" stroke-width="0.744705" stroke-linecap="round" stroke-linejoin="round"/>
<path d="M76.8332 19.2622L33.184 41.4447L35.821 46.4839L78.7859 22.9925L76.8332 19.2622Z" fill="white" stroke="#231815" stroke-width="0.744706" stroke-linecap="round" stroke-linejoin="round"/>
<path d="M76.1356 19.5658C76.1356 19.5658 78.1931 23.384 78.1562 23.3803C80.081 22.4189 81.4186 23.5459 82.2739 23.628C83.1286 23.7117 88.1506 18.8605 89.7607 18.9474C91.0413 19.0175 93.3171 20.2318 93.9605 17.7957C94.3185 16.4388 93.281 14.8439 91.6231 14.9594C89.9651 15.075 77.309 17.5909 77.309 17.5909C76.9705 17.6279 76.871 17.9134 76.8382 18.0199C76.806 18.1274 76.7352 19.3141 76.1356 19.5658Z" fill="white" stroke="#231815" stroke-width="0.744706" stroke-linecap="round" stroke-linejoin="round"/>
<path d="M90.854 16.6065C90.7934 16.6386 90.728 16.659 90.6591 16.6657C90.5908 16.6709 90.5227 16.6643 90.4568 16.6449C90.3904 16.6245 90.3309 16.5927 90.2778 16.5485C90.2246 16.5042 90.1815 16.4521 90.1489 16.3905C90.1168 16.33 90.0973 16.264 90.0912 16.1962C90.0844 16.1274 90.091 16.0593 90.1119 15.9939C90.1324 15.9275 90.1652 15.8674 90.2084 15.8148C90.2526 15.7616 90.3058 15.718 90.3663 15.6859C90.4279 15.6533 90.4929 15.6344 90.5617 15.6277C90.6305 15.6209 90.6986 15.6275 90.765 15.6479C90.8299 15.6679 90.8899 15.7007 90.9441 15.7444C90.9967 15.7876 91.0394 15.8413 91.0715 15.9018C91.1041 15.9634 91.124 16.0278 91.1307 16.0967C91.1364 16.166 91.1293 16.2331 91.1099 16.299C91.089 16.3644 91.0561 16.4244 91.0124 16.4786C90.9682 16.5318 90.9155 16.5739 90.854 16.6065Z" fill="#231815" stroke="#231815" stroke-width="0.744706" stroke-linecap="round" stroke-linejoin="round"/>
<path d="M88.5114 17.0964C88.4509 17.1284 88.3854 17.1489 88.3166 17.1556C88.2478 17.1623 88.1807 17.1552 88.1143 17.1348C88.0479 17.1144 87.9884 17.0826 87.9352 17.0383C87.8821 16.9941 87.8389 16.942 87.8063 16.8804C87.7742 16.8198 87.7553 16.7549 87.7486 16.6861C87.7419 16.6172 87.7485 16.5491 87.7694 16.4837C87.7898 16.4173 87.8216 16.3578 87.8659 16.3047C87.9101 16.2515 87.9632 16.2079 88.0238 16.1758C88.0854 16.1432 88.1503 16.1243 88.2192 16.1175C88.288 16.1108 88.3551 16.1179 88.4215 16.1383C88.4874 16.1577 88.5474 16.1906 88.6006 16.2348C88.6547 16.2785 88.6968 16.3312 88.7289 16.3917C88.7615 16.4533 88.7814 16.5177 88.7872 16.5871C88.7939 16.6559 88.7868 16.723 88.7664 16.7894C88.746 16.8558 88.7141 16.9153 88.6699 16.9685C88.6257 17.0216 88.573 17.0637 88.5114 17.0964Z" fill="#231815" stroke="#231815" stroke-width="0.744706" stroke-linecap="round" stroke-linejoin="round"/>
<path d="M86.2549 17.5121C86.1943 17.5442 86.1284 17.5636 86.0595 17.5704C85.9907 17.5771 85.9236 17.57 85.8572 17.5496C85.7908 17.5292 85.7313 17.4973 85.6781 17.4531C85.625 17.4089 85.5819 17.3568 85.5498 17.2962C85.5172 17.2346 85.4983 17.1697 85.4915 17.1008C85.4848 17.032 85.4919 16.9649 85.5123 16.8985C85.5328 16.8321 85.5646 16.7726 85.6088 16.7194C85.653 16.6663 85.7062 16.6226 85.7667 16.5905C85.8283 16.5579 85.8933 16.539 85.9621 16.5323C86.0309 16.5256 86.099 16.5322 86.1644 16.5531C86.2308 16.5735 86.2903 16.6053 86.3435 16.6496C86.3976 16.6933 86.4398 16.7459 86.4724 16.8075C86.5045 16.8681 86.5244 16.9325 86.5301 17.0018C86.5368 17.0707 86.5297 17.1378 86.5093 17.2042C86.4899 17.27 86.4571 17.3301 86.4128 17.3832C86.3686 17.4364 86.3165 17.4795 86.2549 17.5121Z" fill="#231815" stroke="#231815" stroke-width="0.744706" stroke-linecap="round" stroke-linejoin="round"/>
<path d="M83.9524 17.999C83.8918 18.0311 83.8258 18.0505 83.757 18.0572C83.6882 18.0639 83.6211 18.0568 83.5547 18.0364C83.4888 18.017 83.4288 17.9842 83.3756 17.94C83.323 17.8967 83.2793 17.8436 83.2472 17.783C83.2146 17.7215 83.1957 17.6565 83.189 17.5877C83.1823 17.5188 83.1894 17.4517 83.2098 17.3853C83.2307 17.32 83.2626 17.2605 83.3063 17.2063C83.3505 17.1531 83.4042 17.1105 83.4647 17.0784C83.5263 17.0458 83.5907 17.0259 83.6596 17.0191C83.7289 17.0134 83.797 17.02 83.8629 17.0394C83.9283 17.0604 83.9878 17.0922 84.042 17.1359C84.0951 17.1801 84.1372 17.2328 84.1698 17.2943C84.2019 17.3549 84.2224 17.4203 84.2286 17.4881C84.2343 17.5575 84.2277 17.6256 84.2078 17.6905C84.1873 17.7569 84.1545 17.8169 84.1103 17.8701C84.0661 17.9232 84.0139 17.9664 83.9524 17.999Z" fill="#231815" stroke="#231815" stroke-width="0.744706" stroke-linecap="round" stroke-linejoin="round"/>
<path d="M81.6238 18.4696C81.5632 18.5017 81.4973 18.5211 81.4284 18.5278C81.3596 18.5346 81.2925 18.5274 81.2261 18.507C81.1597 18.4866 81.1002 18.4548 81.047 18.4106C80.9939 18.3663 80.9508 18.3142 80.9187 18.2536C80.8861 18.1921 80.8672 18.1271 80.8604 18.0583C80.8537 17.9895 80.8608 17.9224 80.8812 17.856C80.9016 17.7896 80.9335 17.7301 80.9777 17.6769C81.0219 17.6237 81.0751 17.5801 81.1356 17.548C81.1972 17.5154 81.2622 17.4965 81.331 17.4898C81.3998 17.483 81.4669 17.4901 81.5333 17.5106C81.5997 17.531 81.6592 17.5628 81.7124 17.607C81.7665 17.6507 81.8087 17.7034 81.8413 17.7649C81.8734 17.8255 81.8933 17.8899 81.899 17.9593C81.9057 18.0281 81.8986 18.0952 81.8782 18.1616C81.8578 18.228 81.826 18.2875 81.7817 18.3407C81.7375 18.3938 81.6854 18.437 81.6238 18.4696Z" fill="#231815" stroke="#231815" stroke-width="0.744706" stroke-linecap="round" stroke-linejoin="round"/>
<path d="M79.2971 18.8088C79.2365 18.8409 79.1711 18.8613 79.1017 18.8671C79.0329 18.8738 78.9658 18.8667 78.8999 18.8473C78.8335 18.8269 78.7735 18.794 78.7209 18.7508C78.6677 18.7066 78.6246 18.6544 78.592 18.5929C78.5599 18.5323 78.5405 18.4663 78.5337 18.3975C78.5275 18.3297 78.5341 18.2616 78.5545 18.1952C78.5755 18.1298 78.6073 18.0703 78.6515 18.0171C78.6952 17.963 78.7489 17.9203 78.8095 17.8882C78.871 17.8556 78.9355 17.8357 79.0048 17.83C79.0736 17.8233 79.1418 17.8298 79.2066 17.8498C79.273 17.8702 79.333 17.903 79.3857 17.9462C79.4398 17.9899 79.4825 18.0436 79.5146 18.1042C79.5472 18.1658 79.5671 18.2302 79.5728 18.2995C79.579 18.3674 79.5724 18.4355 79.552 18.5019C79.5321 18.5667 79.4992 18.6268 79.455 18.6799C79.4113 18.7341 79.3587 18.7762 79.2971 18.8088Z" fill="#231815" stroke="#231815" stroke-width="0.744706" stroke-linecap="round" stroke-linejoin="round"/>
<path d="M31.9381 42.8945C31.9018 42.9137 31.8637 42.9248 31.8235 42.9294C31.7827 42.9329 31.7432 42.9292 31.7046 42.9173C31.666 42.9055 31.6314 42.8864 31.5996 42.8605C31.5688 42.8342 31.5436 42.8036 31.5243 42.7673C31.5056 42.7319 31.4945 42.6939 31.49 42.6536C31.4865 42.6128 31.4901 42.5734 31.502 42.5348C31.5139 42.4962 31.533 42.4615 31.5588 42.4297C31.5852 42.3989 31.6157 42.3737 31.6521 42.3544C31.6874 42.3357 31.7265 42.3241 31.7657 42.3201C31.8065 42.3166 31.846 42.3203 31.8846 42.3321C31.9232 42.344 31.9589 42.3626 31.9896 42.3889C32.0214 42.4148 32.0467 42.4453 32.0654 42.4807C32.0846 42.517 32.0957 42.5551 32.0992 42.5959C32.1038 42.6361 32.0991 42.6761 32.0872 42.7147C32.0753 42.7533 32.0562 42.788 32.0304 42.8198C32.0051 42.85 31.9735 42.8758 31.9381 42.8945Z" stroke="#231815" stroke-width="0.744706" stroke-linecap="round" stroke-linejoin="round"/>
<path d="M32.3983 43.7636C32.362 43.7828 32.3239 43.7939 32.2837 43.7985C32.2429 43.802 32.2035 43.7983 32.1649 43.7864C32.1262 43.7746 32.0916 43.7555 32.0598 43.7296C32.029 43.7033 32.0038 43.6727 31.9845 43.6364C31.9658 43.601 31.9547 43.563 31.9502 43.5227C31.9467 43.4819 31.9503 43.4425 31.9622 43.4039C31.9741 43.3653 31.9932 43.3306 32.019 43.2988C32.0454 43.2681 32.076 43.2428 32.1123 43.2236C32.1476 43.2048 32.1867 43.1932 32.2259 43.1892C32.2667 43.1857 32.3062 43.1894 32.3448 43.2012C32.3834 43.2131 32.4191 43.2317 32.4498 43.258C32.4816 43.2839 32.5069 43.3144 32.5256 43.3498C32.5448 43.3861 32.5559 43.4242 32.5594 43.465C32.564 43.5052 32.5593 43.5452 32.5474 43.5838C32.5355 43.6224 32.5164 43.6571 32.4906 43.6889C32.4653 43.7191 32.4337 43.7449 32.3983 43.7636Z" stroke="#231815" stroke-width="0.744706" stroke-linecap="round" stroke-linejoin="round"/>
<path d="M32.8593 44.6337C32.8229 44.653 32.7849 44.6641 32.7441 44.6676C32.7038 44.6721 32.6644 44.6684 32.6253 44.6556C32.5867 44.6437 32.552 44.6246 32.5207 44.5998C32.49 44.5734 32.4647 44.5428 32.4455 44.5065C32.4268 44.4712 32.4156 44.4331 32.4111 44.3928C32.4076 44.352 32.4113 44.3126 32.4231 44.274C32.435 44.2354 32.4541 44.2007 32.48 44.1689C32.5063 44.1382 32.5369 44.1129 32.5732 44.0937C32.6086 44.075 32.6476 44.0633 32.6869 44.0593C32.7277 44.0558 32.7671 44.0595 32.8057 44.0714C32.8443 44.0832 32.88 44.1018 32.9108 44.1282C32.9425 44.154 32.9678 44.1846 32.9865 44.2199C33.0058 44.2562 33.0169 44.2943 33.0204 44.3351C33.0244 44.3743 33.0197 44.4143 33.0078 44.4529C32.9965 44.4925 32.9774 44.5272 32.951 44.558C32.9262 44.5892 32.8946 44.615 32.8593 44.6337Z" stroke="#231815" stroke-width="0.744706" stroke-linecap="round" stroke-linejoin="round"/>
<path d="M33.3195 45.5028C33.2831 45.522 33.2451 45.5331 33.2043 45.5367C33.164 45.5412 33.1246 45.5375 33.0855 45.5246C33.0469 45.5128 33.0122 45.4936 32.9809 45.4688C32.9502 45.4425 32.9249 45.4119 32.9057 45.3756C32.887 45.3402 32.8758 45.3022 32.8713 45.2619C32.8678 45.2211 32.8715 45.1817 32.8833 45.1431C32.8952 45.1045 32.9143 45.0698 32.9402 45.038C32.9665 45.0072 32.9971 44.982 33.0334 44.9628C33.0688 44.944 33.1078 44.9324 33.1471 44.9284C33.1879 44.9249 33.2273 44.9286 33.2659 44.9404C33.3045 44.9523 33.3402 44.9709 33.371 44.9972C33.4028 45.0231 33.428 45.0536 33.4467 45.089C33.466 45.1253 33.4771 45.1634 33.4806 45.2042C33.4846 45.2434 33.4799 45.2834 33.468 45.322C33.4567 45.3616 33.4376 45.3963 33.4112 45.427C33.3864 45.4583 33.3548 45.4841 33.3195 45.5028Z" stroke="#231815" stroke-width="0.744706" stroke-linecap="round" stroke-linejoin="round"/>
<path d="M33.7799 46.3719C33.7436 46.3911 33.7055 46.4023 33.6647 46.4058C33.6245 46.4103 33.585 46.4066 33.5459 46.3937C33.5073 46.3819 33.4726 46.3628 33.4414 46.3379C33.4106 46.3116 33.3854 46.281 33.3661 46.2447C33.3474 46.2093 33.3363 46.1713 33.3318 46.131C33.3283 46.0902 33.3319 46.0508 33.3438 46.0122C33.3557 45.9736 33.3748 45.9389 33.4006 45.9071C33.427 45.8764 33.4575 45.8511 33.4939 45.8319C33.5292 45.8131 33.5683 45.8015 33.6075 45.7975C33.6483 45.794 33.6878 45.7977 33.7264 45.8095C33.765 45.8214 33.8007 45.84 33.8314 45.8663C33.8632 45.8922 33.8884 45.9227 33.9072 45.9581C33.9264 45.9944 33.9375 46.0325 33.941 46.0733C33.945 46.1125 33.9403 46.1525 33.9285 46.1911C33.9171 46.2307 33.898 46.2654 33.8717 46.2962C33.8469 46.3274 33.8153 46.3532 33.7799 46.3719Z" stroke="#231815" stroke-width="0.744706" stroke-linecap="round" stroke-linejoin="round"/>
<path d="M34.2404 47.241C34.204 47.2603 34.166 47.2714 34.1252 47.2749C34.0849 47.2794 34.0455 47.2757 34.0064 47.2629C33.9678 47.251 33.9331 47.2319 33.9018 47.2071C33.8711 47.1807 33.8458 47.1501 33.8266 47.1138C33.8079 47.0784 33.7967 47.0404 33.7922 47.0001C33.7887 46.9593 33.7924 46.9199 33.8042 46.8813C33.8161 46.8427 33.8352 46.808 33.8611 46.7762C33.8874 46.7455 33.918 46.7202 33.9543 46.701C33.9897 46.6823 34.0287 46.6706 34.068 46.6666C34.1088 46.6631 34.1482 46.6668 34.1868 46.6787C34.2254 46.6905 34.2611 46.7091 34.2919 46.7355C34.3236 46.7613 34.3489 46.7919 34.3676 46.8272C34.3869 46.8635 34.398 46.9016 34.4015 46.9424C34.4055 46.9816 34.4008 47.0216 34.3889 47.0602C34.3776 47.0998 34.3585 47.1345 34.3321 47.1653C34.3073 47.1965 34.2757 47.2223 34.2404 47.241Z" stroke="#231815" stroke-width="0.744706" stroke-linecap="round" stroke-linejoin="round"/>
<path d="M25.3795 46.2431C25.3442 46.2618 25.3062 46.2729 25.2659 46.2775C25.2251 46.281 25.1857 46.2773 25.1471 46.2654C25.1079 46.2526 25.0728 46.235 25.042 46.2086C25.0102 46.1828 24.985 46.1522 24.9657 46.1159C24.947 46.0806 24.9359 46.0425 24.9324 46.0017C24.9279 45.9614 24.9326 45.9215 24.9444 45.8829C24.9563 45.8443 24.9754 45.8096 25.0012 45.7778C25.0276 45.747 25.0582 45.7218 25.0935 45.7031C25.1298 45.6838 25.1679 45.6727 25.2082 45.6682C25.2489 45.6647 25.2884 45.6684 25.327 45.6802C25.3656 45.6921 25.4003 45.7112 25.432 45.737C25.4638 45.7629 25.4881 45.794 25.5068 45.8293C25.526 45.8656 25.5381 45.9032 25.5417 45.944C25.5452 45.9848 25.541 46.0232 25.5296 46.0628C25.5178 46.1014 25.4986 46.1361 25.4728 46.1678C25.4465 46.1986 25.4159 46.2239 25.3795 46.2431Z" stroke="#231815" stroke-width="0.744706" stroke-linecap="round" stroke-linejoin="round"/>
<path d="M25.8561 47.1425C25.8208 47.1612 25.7827 47.1723 25.7425 47.1768C25.7017 47.1804 25.6622 47.1767 25.6236 47.1648C25.5845 47.1519 25.5493 47.1344 25.5186 47.108C25.4868 47.0822 25.4615 47.0516 25.4423 47.0153C25.4236 46.9799 25.4125 46.9419 25.409 46.9011C25.4044 46.8608 25.4091 46.8209 25.421 46.7822C25.4329 46.7436 25.452 46.709 25.4778 46.6772C25.5041 46.6464 25.5347 46.6212 25.5701 46.6025C25.6064 46.5832 25.6445 46.5721 25.6847 46.5676C25.7255 46.5641 25.7649 46.5677 25.8035 46.5796C25.8421 46.5915 25.8768 46.6106 25.9086 46.6364C25.9404 46.6622 25.9646 46.6933 25.9833 46.7287C26.0026 46.765 26.0147 46.8025 26.0182 46.8433C26.0217 46.8841 26.0175 46.9226 26.0062 46.9622C25.9943 47.0008 25.9752 47.0355 25.9494 47.0672C25.923 47.098 25.8924 47.1232 25.8561 47.1425Z" stroke="#231815" stroke-width="0.744706" stroke-linecap="round" stroke-linejoin="round"/>
<path d="M26.3322 48.0419C26.2969 48.0606 26.2588 48.0717 26.2185 48.0763C26.1777 48.0798 26.1383 48.0761 26.0997 48.0642C26.0606 48.0514 26.0254 48.0338 25.9946 48.0074C25.9629 47.9816 25.9376 47.951 25.9184 47.9147C25.8997 47.8794 25.8885 47.8413 25.885 47.8005C25.8805 47.7602 25.8852 47.7203 25.8971 47.6817C25.9089 47.6431 25.928 47.6084 25.9539 47.5766C25.9802 47.5458 26.0108 47.5206 26.0461 47.5019C26.0825 47.4826 26.1205 47.4715 26.1608 47.467C26.2016 47.4635 26.241 47.4672 26.2796 47.479C26.3182 47.4909 26.3529 47.51 26.3847 47.5358C26.4165 47.5617 26.4407 47.5928 26.4594 47.6281C26.4787 47.6644 26.4908 47.702 26.4943 47.7428C26.4978 47.7835 26.4936 47.822 26.4823 47.8616C26.4704 47.9002 26.4513 47.9349 26.4255 47.9666C26.3991 47.9974 26.3685 48.0227 26.3322 48.0419Z" stroke="#231815" stroke-width="0.744706" stroke-linecap="round" stroke-linejoin="round"/>
<path d="M26.8083 48.9403C26.7729 48.959 26.7349 48.9701 26.6946 48.9746C26.6538 48.9781 26.6144 48.9744 26.5758 48.9626C26.5372 48.9507 26.5015 48.9321 26.4707 48.9058C26.4389 48.8799 26.4137 48.8494 26.395 48.814C26.3757 48.7777 26.3646 48.7396 26.3611 48.6988C26.3566 48.6586 26.3613 48.6186 26.3731 48.58C26.385 48.5414 26.4041 48.5067 26.4299 48.4749C26.4563 48.4442 26.4869 48.4189 26.5222 48.4002C26.5585 48.381 26.5966 48.3699 26.6369 48.3653C26.6777 48.3618 26.7171 48.3655 26.7557 48.3774C26.7943 48.3892 26.829 48.4083 26.8608 48.4342C26.8925 48.46 26.9168 48.4911 26.936 48.5274C26.9547 48.5628 26.9669 48.6003 26.9704 48.6411C26.9739 48.6819 26.9702 48.7213 26.9583 48.7599C26.9465 48.7985 26.9274 48.8332 26.9015 48.865C26.8752 48.8958 26.8446 48.921 26.8083 48.9403Z" stroke="#231815" stroke-width="0.744706" stroke-linecap="round" stroke-linejoin="round"/>
<path d="M27.2846 49.8396C27.2492 49.8584 27.2112 49.8695 27.1709 49.874C27.1301 49.8775 27.0907 49.8738 27.0521 49.862C27.0135 49.8501 26.9778 49.8315 26.947 49.8052C26.9153 49.7793 26.89 49.7488 26.8713 49.7134C26.852 49.6771 26.8409 49.639 26.8374 49.5982C26.8329 49.558 26.8376 49.518 26.8495 49.4794C26.8613 49.4408 26.8804 49.4061 26.9063 49.3743C26.9326 49.3436 26.9632 49.3183 26.9985 49.2996C27.0349 49.2804 27.0729 49.2692 27.1132 49.2647C27.154 49.2612 27.1934 49.2649 27.232 49.2768C27.2706 49.2886 27.3053 49.3077 27.3371 49.3336C27.3689 49.3594 27.3931 49.3905 27.4123 49.4268C27.4311 49.4622 27.4432 49.4997 27.4467 49.5405C27.4502 49.5813 27.4465 49.6207 27.4347 49.6593C27.4228 49.6979 27.4037 49.7326 27.3778 49.7644C27.3515 49.7951 27.3209 49.8204 27.2846 49.8396Z" stroke="#231815" stroke-width="0.744706" stroke-linecap="round" stroke-linejoin="round"/>
<path d="M27.7611 50.739C27.7258 50.7577 27.6877 50.7688 27.6475 50.7734C27.6067 50.7769 27.5673 50.7732 27.5287 50.7613C27.4901 50.7495 27.4544 50.7309 27.4236 50.7045C27.3918 50.6787 27.3666 50.6481 27.3479 50.6128C27.3286 50.5765 27.3175 50.5384 27.314 50.4976C27.3095 50.4573 27.3141 50.4174 27.326 50.3788C27.3379 50.3402 27.357 50.3055 27.3828 50.2737C27.4092 50.2429 27.4398 50.2177 27.4751 50.199C27.5114 50.1797 27.5495 50.1686 27.5897 50.1641C27.6305 50.1606 27.67 50.1643 27.7086 50.1761C27.7472 50.188 27.7819 50.2071 27.8136 50.2329C27.8454 50.2588 27.8697 50.2899 27.8889 50.3262C27.9076 50.3615 27.9197 50.3991 27.9232 50.4399C27.9268 50.4807 27.9231 50.5201 27.9112 50.5587C27.8994 50.5973 27.8802 50.632 27.8544 50.6638C27.8281 50.6945 27.7975 50.7198 27.7611 50.739Z" stroke="#231815" stroke-width="0.744706" stroke-linecap="round" stroke-linejoin="round"/>
<path d="M79.054 18.4957L15.3877 50.9943" stroke="#231815" stroke-width="0.372353" stroke-linecap="round" stroke-linejoin="round"/>
<path d="M81.3746 18.1014L15.8901 51.9431" stroke="#231815" stroke-width="0.372353" stroke-linecap="round" stroke-linejoin="round"/>
<path d="M83.6452 17.7441L16.3928 52.892" stroke="#231815" stroke-width="0.372353" stroke-linecap="round" stroke-linejoin="round"/>
<path d="M86.1178 17.1852L16.8952 53.8408" stroke="#231815" stroke-width="0.372353" stroke-linecap="round" stroke-linejoin="round"/>
<path d="M88.2686 16.7842L17.4196 54.7743" stroke="#231815" stroke-width="0.372353" stroke-linecap="round" stroke-linejoin="round"/>
<path d="M90.6143 16.21L17.9226 55.741" stroke="#231815" stroke-width="0.372353" stroke-linecap="round" stroke-linejoin="round"/>
<path d="M14.6274 51.609L14.4515 51.2769C14.4183 51.2143 14.442 51.1371 14.5046 51.104L15.9753 50.3249C16.0369 50.2923 16.1151 50.3155 16.1483 50.3781L16.3242 50.7102C16.3573 50.7728 16.3326 50.8505 16.271 50.8831L14.8003 51.6622C14.7377 51.6953 14.6605 51.6716 14.6274 51.609Z" fill="#231815" stroke="#231815" stroke-width="0.744706" stroke-linecap="round" stroke-linejoin="round"/>
<path d="M15.13 52.5578L14.9541 52.2257C14.921 52.1631 14.9447 52.0859 15.0073 52.0528L16.478 51.2738C16.5396 51.2411 16.6178 51.2643 16.6509 51.3269L16.8269 51.659C16.8595 51.7206 16.8353 51.7993 16.7737 51.832L15.303 52.611C15.2404 52.6441 15.1627 52.6194 15.13 52.5578Z" fill="#231815" stroke="#231815" stroke-width="0.744706" stroke-linecap="round" stroke-linejoin="round"/>
<path d="M15.633 53.5077L15.4571 53.1756C15.424 53.113 15.4472 53.0348 15.5097 53.0016L16.9805 52.2226C17.042 52.19 17.1208 52.2142 17.1539 52.2768L17.3298 52.6089C17.3624 52.6704 17.3382 52.7492 17.2767 52.7818L15.806 53.5608C15.7428 53.593 15.6656 53.5692 15.633 53.5077Z" fill="#231815" stroke="#231815" stroke-width="0.744706" stroke-linecap="round" stroke-linejoin="round"/>
<path d="M16.1357 54.4565L15.9593 54.1234C15.9266 54.0619 15.9499 53.9836 16.0124 53.9505L17.4831 53.1715C17.5447 53.1388 17.6235 53.1631 17.6561 53.2246L17.8325 53.5577C17.8651 53.6193 17.8409 53.698 17.7794 53.7307L16.3086 54.5097C16.2455 54.5418 16.1683 54.5181 16.1357 54.4565Z" fill="#231815" stroke="#231815" stroke-width="0.744706" stroke-linecap="round" stroke-linejoin="round"/>
<path d="M16.6379 55.4043L16.462 55.0722C16.4293 55.0107 16.4525 54.9325 16.5151 54.8993L17.9858 54.1203C18.0474 54.0877 18.1261 54.1119 18.1588 54.1734L18.3347 54.5055C18.3678 54.5681 18.3436 54.6469 18.282 54.6795L16.8113 55.4585C16.7487 55.4917 16.671 55.4669 16.6379 55.4043Z" fill="#231815" stroke="#231815" stroke-width="0.744706" stroke-linecap="round" stroke-linejoin="round"/>
<path d="M17.1403 56.3532L16.9644 56.0211C16.9318 55.9595 16.955 55.8813 17.0176 55.8481L18.4883 55.0691C18.5498 55.0365 18.6286 55.0607 18.6612 55.1223L18.8371 55.4544C18.8703 55.5169 18.8455 55.5947 18.7839 55.6273L17.3132 56.4063C17.2507 56.4395 17.1735 56.4157 17.1403 56.3532Z" fill="#231815" stroke="#231815" stroke-width="0.744706" stroke-linecap="round" stroke-linejoin="round"/>
<path d="M9.73632 47.0499C9.85947 46.9847 9.9673 46.9638 10.0598 46.9871C10.1544 47.0094 10.2294 47.0731 10.2851 47.1781C10.3417 47.2851 10.3538 47.3859 10.3208 47.4797C10.2908 47.5744 10.2145 47.6549 10.0913 47.7202C9.97022 47.7843 9.86078 47.8022 9.76356 47.7749C9.66741 47.7495 9.59073 47.6829 9.53406 47.5759C9.4838 47.481 9.47089 47.3883 9.4948 47.2968C9.5202 47.2032 9.60106 47.1216 9.73632 47.0499Z" fill="black"/>
</svg>
