<svg width="308" height="239" viewBox="0 0 308 239" fill="none" xmlns="http://www.w3.org/2000/svg">
<path d="M126.373 92.4628C127.54 93.5528 128.138 94.9444 128.109 96.5074C128.088 97.5558 127.631 98.5713 126.907 99.5495C126.183 100.528 125.173 101.498 124 102.461C121.662 104.382 118.597 106.342 115.734 108.342C112.85 110.357 110.165 112.416 108.492 114.566C106.881 116.635 106.251 118.728 107.217 120.941L107.316 121.156L107.528 121.582C108.594 123.661 109.79 125.002 111.03 125.928C112.356 126.917 113.753 127.448 115.152 127.887C117.926 128.758 120.799 129.271 122.656 132.538C123.767 134.493 123.652 136.626 122.955 138.768C122.26 140.903 120.97 143.098 119.663 145.219C118.344 147.356 117.011 149.414 116.173 151.324C115.333 153.239 115.037 154.905 115.665 156.293L115.665 156.294C116.296 157.689 117.553 158.472 119.239 158.922C120.933 159.375 122.995 159.474 125.143 159.546C127.272 159.618 129.486 159.663 131.414 160.025C133.341 160.387 135.059 161.08 136.139 162.508C137.202 163.913 137.509 165.458 137.24 167.04C136.973 168.608 136.143 170.198 134.965 171.731C132.607 174.795 128.781 177.72 124.899 179.911C117.921 183.847 110.296 184.367 103.655 184.619C100.322 184.745 97.2538 184.802 94.6028 185.177C91.9521 185.551 89.7802 186.236 88.2181 187.573C87.431 188.247 86.5473 189.304 85.5408 190.667C84.537 192.028 83.4275 193.672 82.1863 195.509C79.7073 199.178 76.714 203.599 73.0472 207.968C65.8286 216.569 55.9638 225.005 42.1667 227.138L41.5072 227.235C34.3479 228.226 27.1085 224.858 20.547 218.974C13.98 213.084 8.04219 204.632 3.4662 195.333C-1.11038 186.034 -4.33604 175.865 -5.46355 166.531C-6.58967 157.208 -5.62858 148.66 -1.7645 142.652C4.64324 132.69 17.4997 129.295 29.9374 128.139C36.1712 127.56 42.3367 127.54 47.59 127.554C52.8642 127.569 57.178 127.616 59.769 127.182C62.2914 126.759 65.2413 124.875 68.5315 122.109C71.8094 119.353 75.3658 115.776 79.1038 112.042C82.8359 108.314 86.7455 104.433 90.7121 101.096C94.6765 97.7602 98.7201 94.9485 102.725 93.371C110.661 90.245 116.981 89.4628 121.331 90.2256C123.507 90.6073 125.213 91.3796 126.373 92.4628ZM100.747 150.114C96.707 138.436 99.9266 127.807 95.5437 124.519C86.4238 117.673 73.6267 134.991 63.9422 141.021C56.2182 145.824 51.508 141.886 37.4264 149.108C31.947 151.919 30.6148 156.503 31.0829 162.746L20.2405 168.489C20.059 168.585 19.9897 168.81 20.0859 168.992L32.8984 193.18C32.9947 193.361 33.2202 193.431 33.4018 193.336L35.5722 192.186C36.5246 202.094 37.854 212.633 42.8761 215.953C47.3449 218.907 55.918 212.854 60.3285 207.662C67.7703 198.894 76.6591 182.608 89.2883 177.151C94.3788 174.95 103.943 178.681 109.559 172.608C117.394 164.136 104.175 160.026 100.747 150.114Z" fill="#231815"/>
<path d="M41.7404 188.497L44.6811 194.049L38.591 197.275L35.6503 191.723L41.7404 188.497Z" stroke="#231815" stroke-width="0.744706" stroke-linecap="round" stroke-linejoin="round"/>
<path d="M46.6356 154.928L59.4483 179.117L55.7808 181.059L42.9681 156.871L46.6356 154.928Z" stroke="#231815" stroke-width="0.744706" stroke-linecap="round" stroke-linejoin="round"/>
<path d="M90.5738 161.333L78.834 139.17C78.5382 138.611 78.7485 137.918 79.3104 137.621L80.9523 136.751C81.5109 136.455 82.2057 136.669 82.5015 137.227L94.2413 159.39C94.5372 159.949 94.3269 160.642 93.765 160.939L92.1231 161.809C91.5645 162.105 90.8715 161.895 90.5738 161.333Z" stroke="#231815" stroke-width="0.744706" stroke-linecap="round" stroke-linejoin="round"/>
<path d="M68.8544 172.837L57.1146 150.674C56.8188 150.116 57.0324 149.421 57.5909 149.125L59.2329 148.255C59.7914 147.959 60.4896 148.171 60.7855 148.73L72.5253 170.893C72.8211 171.451 72.6075 172.146 72.0456 172.444L70.4036 173.314C69.8451 173.61 69.152 173.399 68.8544 172.837Z" stroke="#231815" stroke-width="0.744706" stroke-linecap="round" stroke-linejoin="round"/>
<path d="M42.955 156.878L55.7677 181.067L52.1035 183.007L39.2908 158.819L42.955 156.878Z" stroke="#231815" stroke-width="0.744706" stroke-linecap="round" stroke-linejoin="round"/>
<path d="M53.389 198.467C53.0189 198.663 52.6248 198.781 52.2068 198.822C51.7887 198.862 51.379 198.821 50.9775 198.697C50.5778 198.577 50.2156 198.381 49.8925 198.113C49.5711 197.848 49.3115 197.529 49.1155 197.158C48.9194 196.788 48.8012 196.394 48.7625 195.98C48.722 195.562 48.7635 195.152 48.8869 194.75C49.0121 194.352 49.208 193.99 49.4764 193.667C49.7447 193.344 50.0639 193.084 50.434 192.888C50.8042 192.692 51.1983 192.574 51.6163 192.533C52.0344 192.493 52.4441 192.534 52.8404 192.656C53.2419 192.78 53.6042 192.975 53.9306 193.242C54.252 193.507 54.5116 193.826 54.7076 194.196C54.9037 194.566 55.0219 194.961 55.0606 195.375C55.0977 195.795 55.0562 196.205 54.931 196.603C54.811 197.003 54.6151 197.365 54.3467 197.688C54.0784 198.011 53.7592 198.271 53.389 198.467Z" stroke="#231815" stroke-width="0.744706" stroke-linecap="round" stroke-linejoin="round"/>
<path d="M52.6656 197.109C52.4772 197.209 52.2725 197.27 52.0584 197.289C51.846 197.311 51.636 197.288 51.4301 197.225C51.2242 197.162 51.0413 197.061 50.8746 196.925C50.7079 196.789 50.578 196.625 50.4782 196.437C50.3784 196.248 50.314 196.045 50.2953 195.831C50.2767 195.617 50.2974 195.412 50.3607 195.206C50.424 195 50.5235 194.814 50.6611 194.651C50.7968 194.484 50.9623 194.349 51.1507 194.249C51.3391 194.149 51.5438 194.088 51.758 194.07C51.9703 194.048 52.1804 194.07 52.3862 194.133C52.5921 194.197 52.7733 194.295 52.94 194.43C53.1067 194.566 53.2383 194.733 53.3381 194.922C53.438 195.11 53.5005 195.31 53.5192 195.524C53.5379 195.738 53.5189 195.946 53.4556 196.152C53.3923 196.358 53.2928 196.544 53.1552 196.708C53.0195 196.874 52.854 197.009 52.6656 197.109Z" fill="#231815" stroke="#231815" stroke-width="0.372353" stroke-linecap="round" stroke-linejoin="round"/>
<path d="M48.3186 213.304C47.9484 213.5 47.5544 213.618 47.1363 213.658C46.7183 213.699 46.3085 213.657 45.907 213.534C45.5056 213.411 45.1451 213.218 44.822 212.95C44.4989 212.681 44.2411 212.366 44.045 211.995C43.849 211.625 43.7307 211.231 43.6902 210.813C43.6516 210.399 43.693 209.989 43.8164 209.587C43.9399 209.186 44.1358 208.824 44.4041 208.5C44.6724 208.177 44.9917 207.918 45.3618 207.722C45.7319 207.526 46.126 207.407 46.544 207.367C46.9621 207.326 47.3719 207.368 47.7733 207.491C48.1748 207.615 48.5371 207.811 48.8584 208.076C49.1815 208.344 49.4411 208.663 49.6371 209.033C49.8332 209.403 49.9497 209.794 49.9901 210.212C50.0306 210.63 49.9873 211.037 49.8639 211.438C49.7405 211.84 49.5446 212.202 49.2763 212.525C49.0079 212.848 48.6887 213.108 48.3186 213.304Z" stroke="#231815" stroke-width="0.744706" stroke-linecap="round" stroke-linejoin="round"/>
<path d="M47.5965 211.941C47.408 212.041 47.2034 212.102 46.991 212.124C46.7768 212.143 46.5686 212.124 46.3627 212.06C46.1568 211.997 45.9705 211.897 45.8072 211.76C45.6405 211.624 45.5106 211.46 45.4108 211.272C45.3092 211.08 45.2466 210.881 45.228 210.666C45.2059 210.454 45.2282 210.244 45.2915 210.038C45.3566 209.836 45.4562 209.649 45.5919 209.483C45.7295 209.319 45.8949 209.184 46.0833 209.084C46.2717 208.985 46.4764 208.924 46.6888 208.902C46.903 208.883 47.113 208.905 47.3171 208.965C47.523 209.029 47.7059 209.13 47.8726 209.266C48.0393 209.401 48.1692 209.565 48.2708 209.757C48.3706 209.945 48.4332 210.145 48.4518 210.359C48.4705 210.573 48.4515 210.782 48.3882 210.987C48.3249 211.193 48.2236 211.376 48.0879 211.543C47.9503 211.706 47.7849 211.841 47.5965 211.941Z" fill="#231815" stroke="#231815" stroke-width="0.372353" stroke-linecap="round" stroke-linejoin="round"/>
<path d="M40.7108 192.037L60.0261 189.074L81.5896 176.82" stroke="#231815" stroke-width="2.23412" stroke-linecap="round" stroke-linejoin="round"/>
<path d="M278.795 50.2138L278.189 46.8079" stroke="#231815" stroke-width="1.86177" stroke-linecap="round" stroke-linejoin="round"/>
<path d="M280.533 45.9368C280.578 46.1282 280.561 46.3313 280.482 46.541C280.404 46.7506 280.269 46.9514 280.076 47.1399C279.884 47.3317 279.65 47.499 279.377 47.6434C279.101 47.7895 278.806 47.8987 278.487 47.9726C278.171 48.0499 277.856 48.0828 277.545 48.0799C277.233 48.077 276.949 48.0291 276.693 47.9449C276.434 47.8624 276.225 47.7447 276.063 47.5935C275.898 47.4441 275.793 47.2711 275.746 47.0763C275.699 46.8815 275.716 46.6784 275.795 46.4688C275.873 46.2592 276.01 46.0618 276.202 45.8699C276.393 45.6781 276.627 45.5108 276.9 45.3664C277.178 45.2236 277.473 45.1145 277.79 45.0372C278.108 44.9633 278.421 44.927 278.733 44.9299C279.043 44.938 279.328 44.9806 279.584 45.0649C279.84 45.1492 280.052 45.2651 280.216 45.4197C280.381 45.5691 280.486 45.7421 280.533 45.9368Z" fill="#231815" stroke="#231815" stroke-width="0.744705" stroke-linecap="round" stroke-linejoin="round"/>
<path d="M270.858 51.5959L270.246 48.1969" stroke="#231815" stroke-width="1.86177" stroke-linecap="round" stroke-linejoin="round"/>
<path d="M272.593 47.3207C272.636 47.5173 272.622 47.7186 272.544 47.9282C272.465 48.1379 272.329 48.3353 272.137 48.5271C271.946 48.719 271.711 48.8863 271.439 49.0307C271.161 49.1734 270.866 49.2826 270.549 49.3598C270.23 49.4337 269.914 49.4718 269.606 49.4671C269.292 49.4609 269.01 49.4164 268.755 49.3321C268.495 49.2497 268.287 49.1319 268.121 48.9825C267.958 48.828 267.853 48.655 267.806 48.4602C267.761 48.2688 267.778 48.0657 267.856 47.8561C267.935 47.6464 268.072 47.449 268.263 47.2572C268.454 47.0653 268.686 46.8998 268.961 46.7537C269.239 46.6109 269.533 46.4984 269.851 46.4245C270.168 46.3472 270.482 46.3143 270.794 46.3172C271.103 46.3218 271.39 46.3679 271.646 46.4522C271.901 46.5364 272.114 46.6524 272.276 46.8036C272.443 46.9564 272.547 47.1293 272.593 47.3207Z" fill="#231815" stroke="#231815" stroke-width="0.744705" stroke-linecap="round" stroke-linejoin="round"/>
<path d="M263.42 53.0327L262.812 49.6319" stroke="#231815" stroke-width="1.86177" stroke-linecap="round" stroke-linejoin="round"/>
<path d="M265.156 48.7609C265.203 48.9557 265.185 49.1587 265.105 49.365C265.027 49.5747 264.892 49.7754 264.7 49.9673C264.507 50.1558 264.278 50.3247 264 50.4674C263.724 50.6136 263.429 50.7227 263.11 50.7966C262.793 50.8739 262.481 50.9102 262.167 50.9039C261.859 50.8992 261.573 50.8565 261.318 50.7723C261.06 50.6846 260.848 50.5687 260.686 50.4175C260.521 50.2681 260.416 50.0951 260.369 49.9003C260.325 49.7038 260.339 49.5025 260.42 49.2962C260.498 49.0866 260.633 48.8858 260.824 48.694C261.016 48.5021 261.25 48.3348 261.528 48.192C261.8 48.0477 262.096 47.9385 262.413 47.8612C262.731 47.7873 263.047 47.7493 263.357 47.7573C263.669 47.7602 263.951 47.8047 264.207 47.8889C264.466 47.9714 264.677 48.0925 264.842 48.2419C265.004 48.3931 265.108 48.5661 265.156 48.7609Z" fill="#231815" stroke="#231815" stroke-width="0.744705" stroke-linecap="round" stroke-linejoin="round"/>
<path d="M256.031 54.4087L255.423 51.0079" stroke="#231815" stroke-width="1.86177" stroke-linecap="round" stroke-linejoin="round"/>
<path d="M257.768 50.1317C257.812 50.3283 257.796 50.5262 257.718 50.7359C257.639 50.9455 257.504 51.1462 257.313 51.3381C257.12 51.5266 256.885 51.6939 256.609 51.84C256.337 51.9844 256.038 52.0953 255.719 52.1692C255.406 52.2447 255.088 52.2794 254.78 52.2748C254.468 52.2719 254.186 52.2274 253.928 52.1398C253.669 52.0573 253.461 51.9395 253.295 51.7901C253.133 51.6389 253.029 51.4659 252.982 51.2712C252.934 51.0764 252.952 50.8733 253.03 50.6637C253.111 50.4574 253.246 50.2567 253.437 50.0648C253.628 49.8729 253.859 49.7074 254.137 49.5646C254.413 49.4185 254.709 49.3093 255.025 49.2321C255.344 49.1582 255.656 49.1219 255.97 49.1281C256.278 49.1328 256.564 49.1755 256.819 49.2598C257.075 49.344 257.289 49.4634 257.451 49.6146C257.616 49.764 257.721 49.9369 257.768 50.1317Z" fill="#231815" stroke="#231815" stroke-width="0.744705" stroke-linecap="round" stroke-linejoin="round"/>
<path d="M248.659 55.8099L248.051 52.4092" stroke="#231815" stroke-width="1.86177" stroke-linecap="round" stroke-linejoin="round"/>
<path d="M250.394 51.5346C250.438 51.7311 250.424 51.9324 250.343 52.1387C250.265 52.3484 250.13 52.5491 249.939 52.741C249.745 52.9294 249.513 53.1001 249.235 53.2429C248.962 53.3873 248.664 53.4982 248.345 53.5721C248.032 53.6476 247.714 53.6823 247.406 53.6776C247.094 53.6747 246.812 53.6302 246.556 53.546C246.295 53.4601 246.086 53.3424 245.921 53.193C245.759 53.0418 245.654 52.8688 245.607 52.674C245.56 52.4793 245.577 52.2762 245.658 52.0699C245.736 51.8603 245.871 51.6595 246.063 51.4677C246.254 51.2758 246.485 51.1103 246.763 50.9675C247.039 50.8213 247.334 50.7122 247.651 50.6349C247.969 50.561 248.282 50.5247 248.596 50.531C248.904 50.5357 249.189 50.5784 249.445 50.6626C249.701 50.7469 249.915 50.8662 250.077 51.0174C250.242 51.1668 250.347 51.3398 250.394 51.5346Z" fill="#231815" stroke="#231815" stroke-width="0.744705" stroke-linecap="round" stroke-linejoin="round"/>
<path d="M240.239 57.4911L239.631 54.0903" stroke="#231815" stroke-width="1.86177" stroke-linecap="round" stroke-linejoin="round"/>
<path d="M241.97 53.2177C242.017 53.4124 241.998 53.6122 241.919 53.8218C241.841 54.0315 241.706 54.2322 241.514 54.4241C241.321 54.6125 241.09 54.7781 240.814 54.9242C240.538 55.0704 240.243 55.1795 239.924 55.2534C239.608 55.3307 239.293 55.3636 238.982 55.3607C238.673 55.356 238.388 55.3133 238.13 55.2257C237.874 55.1414 237.662 55.0255 237.5 54.8743C237.335 54.7249 237.23 54.5519 237.183 54.3571C237.139 54.1606 237.153 53.9593 237.232 53.7496C237.312 53.5434 237.447 53.3426 237.639 53.1508C237.83 52.9589 238.064 52.7916 238.342 52.6488C238.615 52.5044 238.914 52.3935 239.227 52.318C239.545 52.2441 239.861 52.2061 240.171 52.2141C240.483 52.217 240.765 52.2615 241.021 52.3457C241.28 52.4282 241.491 52.5493 241.656 52.6987C241.818 52.8499 241.923 53.0229 241.97 53.2177Z" fill="#231815" stroke="#231815" stroke-width="0.744705" stroke-linecap="round" stroke-linejoin="round"/>
<path d="M232.961 64.4138L87.4637 138.356L96.2535 155.153L239.47 76.848L232.961 64.4138Z" stroke="#231815" stroke-width="0.744706" stroke-linecap="round" stroke-linejoin="round"/>
<path d="M230.636 65.4256C230.636 65.4256 237.494 78.1531 237.371 78.1407C243.787 74.9361 248.246 78.6927 251.097 78.9664C253.946 79.2452 270.686 63.0748 276.053 63.3644C280.322 63.598 287.908 67.6457 290.052 59.5253C291.246 55.0023 287.788 49.6859 282.261 50.0711C276.734 50.4564 234.547 58.8426 234.547 58.8426C233.419 58.9662 233.087 59.9176 232.978 60.2727C232.871 60.6312 232.635 64.5866 230.636 65.4256Z" stroke="#231815" stroke-width="0.744706" stroke-linecap="round" stroke-linejoin="round"/>
<path d="M279.697 55.5614C279.495 55.6683 279.277 55.7364 279.048 55.7589C278.82 55.7761 278.593 55.7542 278.373 55.6895C278.152 55.6215 277.954 55.5154 277.777 55.368C277.599 55.2206 277.456 55.0468 277.347 54.8416C277.24 54.6397 277.175 54.4198 277.155 54.1937C277.132 53.9643 277.154 53.7373 277.224 53.5193C277.292 53.298 277.401 53.0978 277.545 52.9224C277.693 52.7452 277.87 52.5997 278.072 52.4928C278.277 52.384 278.494 52.3211 278.723 52.2986C278.952 52.2762 279.18 52.2981 279.401 52.3662C279.617 52.4326 279.817 52.5421 279.998 52.6877C280.173 52.8318 280.315 53.0107 280.422 53.2126C280.531 53.4178 280.597 53.6326 280.62 53.862C280.639 54.0932 280.615 54.3169 280.55 54.5364C280.481 54.7544 280.371 54.9545 280.225 55.1351C280.078 55.3123 279.903 55.4526 279.697 55.5614Z" fill="#231815" stroke="#231815" stroke-width="0.744706" stroke-linecap="round" stroke-linejoin="round"/>
<path d="M271.889 57.1942C271.687 57.3012 271.469 57.3693 271.239 57.3917C271.01 57.4142 270.786 57.3905 270.565 57.3224C270.344 57.2544 270.145 57.1483 269.968 57.0009C269.791 56.8535 269.647 56.6797 269.538 56.4744C269.431 56.2726 269.368 56.056 269.346 55.8266C269.324 55.5972 269.345 55.3702 269.415 55.1522C269.483 54.9309 269.589 54.7325 269.737 54.5553C269.884 54.3781 270.061 54.2326 270.263 54.1257C270.468 54.0169 270.685 53.9539 270.914 53.9315C271.144 53.9091 271.368 53.9328 271.589 54.0009C271.808 54.0655 272.009 54.1749 272.186 54.3224C272.366 54.468 272.507 54.6436 272.614 54.8455C272.722 55.0507 272.789 55.2655 272.808 55.4966C272.83 55.7261 272.806 55.9497 272.738 56.1711C272.67 56.3924 272.564 56.5908 272.417 56.7679C272.269 56.9451 272.094 57.0855 271.889 57.1942Z" fill="#231815" stroke="#231815" stroke-width="0.744706" stroke-linecap="round" stroke-linejoin="round"/>
<path d="M264.367 58.5801C264.165 58.6871 263.945 58.7518 263.716 58.7743C263.486 58.7967 263.263 58.773 263.041 58.7049C262.82 58.6369 262.622 58.5308 262.445 58.3834C262.267 58.236 262.124 58.0622 262.017 57.8603C261.908 57.6551 261.845 57.4385 261.823 57.2091C261.8 56.9797 261.824 56.756 261.892 56.5347C261.96 56.3134 262.066 56.115 262.213 55.9378C262.361 55.7606 262.538 55.6151 262.74 55.5082C262.945 55.3995 263.162 55.3365 263.391 55.314C263.62 55.2916 263.847 55.3135 264.065 55.3834C264.287 55.4514 264.485 55.5575 264.662 55.7049C264.843 55.8505 264.983 56.0261 265.092 56.2313C265.199 56.4332 265.265 56.648 265.284 56.8792C265.307 57.1086 265.283 57.3323 265.215 57.5536C265.15 57.7731 265.041 57.9733 264.893 58.1505C264.746 58.3277 264.572 58.4714 264.367 58.5801Z" fill="#231815" stroke="#231815" stroke-width="0.744706" stroke-linecap="round" stroke-linejoin="round"/>
<path d="M256.692 60.203C256.49 60.31 256.27 60.3747 256.04 60.3972C255.811 60.4196 255.587 60.3959 255.366 60.3278C255.146 60.2632 254.946 60.1537 254.769 60.0063C254.594 59.8622 254.448 59.6851 254.341 59.4832C254.233 59.278 254.17 59.0615 254.147 58.832C254.125 58.6026 254.148 58.3789 254.216 58.1576C254.286 57.9397 254.392 57.7413 254.538 57.5607C254.685 57.3835 254.864 57.2414 255.066 57.1344C255.271 57.0257 255.486 56.9594 255.716 56.9369C255.947 56.9179 256.174 56.9398 256.393 57.0045C256.611 57.0743 256.81 57.1804 256.99 57.326C257.167 57.4734 257.308 57.649 257.417 57.8542C257.524 58.0561 257.592 58.2742 257.612 58.5003C257.631 58.7315 257.609 58.9585 257.543 59.1747C257.475 59.396 257.366 59.5962 257.218 59.7734C257.071 59.9506 256.897 60.0943 256.692 60.203Z" fill="#231815" stroke="#231815" stroke-width="0.744706" stroke-linecap="round" stroke-linejoin="round"/>
<path d="M248.93 61.7718C248.728 61.8787 248.508 61.9435 248.279 61.9659C248.05 61.9883 247.826 61.9646 247.605 61.8966C247.383 61.8285 247.185 61.7225 247.008 61.5751C246.831 61.4276 246.687 61.2539 246.58 61.052C246.471 60.8467 246.408 60.6302 246.386 60.4008C246.363 60.1714 246.387 59.9477 246.455 59.7264C246.523 59.5051 246.629 59.3067 246.777 59.1295C246.924 58.9523 247.101 58.8068 247.303 58.6998C247.508 58.5911 247.725 58.5281 247.954 58.5057C248.184 58.4833 248.407 58.507 248.629 58.575C248.85 58.6431 249.048 58.7491 249.226 58.8966C249.406 59.0422 249.546 59.2177 249.655 59.423C249.762 59.6249 249.828 59.8396 249.848 60.0708C249.87 60.3002 249.846 60.5239 249.778 60.7452C249.71 60.9666 249.604 61.1649 249.457 61.3421C249.309 61.5193 249.135 61.6631 248.93 61.7718Z" fill="#231815" stroke="#231815" stroke-width="0.744706" stroke-linecap="round" stroke-linejoin="round"/>
<path d="M241.175 62.9025C240.973 63.0094 240.755 63.0776 240.523 63.0966C240.294 63.1191 240.07 63.0954 239.851 63.0307C239.629 62.9626 239.429 62.8532 239.254 62.7092C239.077 62.5617 238.933 62.388 238.824 62.1827C238.717 61.9808 238.652 61.7609 238.63 61.5315C238.609 61.3055 238.631 61.0784 238.699 60.8571C238.769 60.6391 238.875 60.4408 239.023 60.2636C239.168 60.083 239.347 59.9409 239.549 59.8339C239.754 59.7252 239.969 59.6588 240.2 59.6398C240.43 59.6174 240.657 59.6393 240.873 59.7057C241.094 59.7738 241.294 59.8832 241.47 60.0273C241.65 60.1729 241.793 60.3518 241.9 60.5537C242.008 60.759 242.075 60.9737 242.094 61.2049C242.114 61.431 242.092 61.658 242.024 61.8793C241.958 62.0955 241.848 62.2956 241.701 62.4728C241.555 62.6534 241.38 62.7938 241.175 62.9025Z" fill="#231815" stroke="#231815" stroke-width="0.744706" stroke-linecap="round" stroke-linejoin="round"/>
<path d="M83.3108 143.188C83.1897 143.252 83.0628 143.289 82.9286 143.304C82.7926 143.316 82.6612 143.304 82.5325 143.264C82.4038 143.225 82.2882 143.161 82.1823 143.075C82.0797 142.987 81.9956 142.885 81.9314 142.764C81.869 142.646 81.832 142.519 81.8169 142.385C81.8052 142.249 81.8175 142.118 81.857 141.989C81.8966 141.86 81.9603 141.745 82.0464 141.639C82.1342 141.536 82.2362 141.452 82.3573 141.388C82.4751 141.326 82.6053 141.287 82.7361 141.274C82.8721 141.262 83.0036 141.274 83.1322 141.314C83.2609 141.353 83.3799 141.415 83.4824 141.503C83.5884 141.589 83.6725 141.691 83.7349 141.809C83.7991 141.93 83.8361 142.057 83.8478 142.193C83.8629 142.327 83.8473 142.46 83.8077 142.589C83.7682 142.718 83.7044 142.833 83.6184 142.939C83.5339 143.04 83.4286 143.126 83.3108 143.188Z" stroke="#231815" stroke-width="0.744706" stroke-linecap="round" stroke-linejoin="round"/>
<path d="M84.8454 146.085C84.7242 146.149 84.5973 146.186 84.4631 146.201C84.3271 146.213 84.1957 146.201 84.067 146.161C83.9384 146.122 83.8228 146.058 83.7168 145.972C83.6143 145.884 83.5301 145.782 83.466 145.661C83.4036 145.543 83.3665 145.416 83.3515 145.282C83.3398 145.146 83.352 145.015 83.3916 144.886C83.4311 144.757 83.4948 144.642 83.5809 144.536C83.6688 144.433 83.7707 144.349 83.8918 144.285C84.0096 144.223 84.1398 144.184 84.2707 144.171C84.4067 144.159 84.5381 144.171 84.6668 144.211C84.7955 144.25 84.9144 144.312 85.017 144.4C85.1229 144.486 85.2071 144.588 85.2694 144.706C85.3336 144.827 85.3706 144.954 85.3823 145.09C85.3974 145.224 85.3818 145.357 85.3423 145.486C85.3027 145.615 85.239 145.73 85.1529 145.836C85.0684 145.937 84.9631 146.023 84.8454 146.085Z" stroke="#231815" stroke-width="0.744706" stroke-linecap="round" stroke-linejoin="round"/>
<path d="M86.3811 148.986C86.26 149.05 86.1331 149.087 85.9971 149.098C85.8629 149.114 85.7315 149.101 85.601 149.058C85.4724 149.019 85.3567 148.955 85.2526 148.872C85.1501 148.785 85.0659 148.683 85.0017 148.561C84.9394 148.444 84.9023 148.317 84.8872 148.183C84.8755 148.047 84.8878 147.915 84.9273 147.787C84.9669 147.658 85.0306 147.542 85.1167 147.436C85.2045 147.334 85.3065 147.25 85.4276 147.185C85.5454 147.123 85.6756 147.084 85.8065 147.071C85.9424 147.059 86.0739 147.071 86.2025 147.111C86.3312 147.151 86.4502 147.213 86.5528 147.3C86.6587 147.386 86.7428 147.488 86.8052 147.606C86.8694 147.727 86.9064 147.854 86.9181 147.99C86.9314 148.121 86.9158 148.254 86.8762 148.383C86.8385 148.515 86.7748 148.631 86.6869 148.733C86.6042 148.837 86.4989 148.923 86.3811 148.986Z" stroke="#231815" stroke-width="0.744706" stroke-linecap="round" stroke-linejoin="round"/>
<path d="M87.9158 151.883C87.7947 151.947 87.6678 151.984 87.5318 151.995C87.3976 152.011 87.2661 151.998 87.1357 151.955C87.007 151.916 86.8914 151.852 86.7873 151.769C86.6847 151.682 86.6006 151.58 86.5364 151.458C86.474 151.341 86.437 151.214 86.4219 151.08C86.4102 150.944 86.4224 150.812 86.462 150.684C86.5016 150.555 86.5653 150.439 86.6513 150.333C86.7392 150.231 86.8411 150.147 86.9623 150.082C87.08 150.02 87.2103 149.981 87.3411 149.968C87.4771 149.956 87.6085 149.968 87.7372 150.008C87.8659 150.048 87.9849 150.11 88.0874 150.197C88.1933 150.283 88.2775 150.385 88.3399 150.503C88.404 150.624 88.4411 150.751 88.4528 150.887C88.4661 151.018 88.4505 151.151 88.4109 151.28C88.3731 151.412 88.3094 151.528 88.2216 151.63C88.1388 151.734 88.0336 151.82 87.9158 151.883Z" stroke="#231815" stroke-width="0.744706" stroke-linecap="round" stroke-linejoin="round"/>
<path d="M89.4501 154.78C89.329 154.844 89.2021 154.881 89.0661 154.892C88.9319 154.908 88.8004 154.895 88.67 154.852C88.5413 154.813 88.4257 154.749 88.3216 154.666C88.219 154.578 88.1349 154.477 88.0707 154.355C88.0083 154.238 87.9713 154.111 87.9562 153.977C87.9445 153.841 87.9567 153.709 87.9963 153.58C88.0359 153.452 88.0996 153.336 88.1856 153.23C88.2735 153.128 88.3754 153.044 88.4966 152.979C88.6143 152.917 88.7446 152.878 88.8754 152.865C89.0114 152.853 89.1428 152.865 89.2715 152.905C89.4002 152.945 89.5192 153.007 89.6217 153.094C89.7276 153.18 89.8118 153.282 89.8742 153.4C89.9383 153.521 89.9754 153.648 89.9871 153.784C90.0004 153.915 89.9848 154.048 89.9452 154.177C89.9074 154.309 89.8437 154.425 89.7559 154.527C89.6731 154.631 89.5679 154.717 89.4501 154.78Z" stroke="#231815" stroke-width="0.744706" stroke-linecap="round" stroke-linejoin="round"/>
<path d="M90.9852 157.676C90.8641 157.741 90.7372 157.778 90.6012 157.789C90.467 157.804 90.3356 157.792 90.2052 157.749C90.0765 157.71 89.9609 157.646 89.8567 157.563C89.7542 157.475 89.67 157.374 89.6059 157.252C89.5435 157.135 89.5064 157.008 89.4914 156.874C89.4797 156.738 89.4919 156.606 89.5315 156.477C89.571 156.349 89.6347 156.233 89.7208 156.127C89.8087 156.025 89.9106 155.941 90.0317 155.876C90.1495 155.814 90.2797 155.775 90.4106 155.762C90.5466 155.75 90.678 155.762 90.8067 155.802C90.9353 155.842 91.0543 155.903 91.1569 155.991C91.2628 156.077 91.347 156.179 91.4093 156.297C91.4735 156.418 91.5105 156.545 91.5222 156.681C91.5355 156.812 91.5199 156.945 91.4804 157.074C91.4426 157.206 91.3789 157.321 91.291 157.424C91.2083 157.528 91.103 157.614 90.9852 157.676Z" stroke="#231815" stroke-width="0.744706" stroke-linecap="round" stroke-linejoin="round"/>
<path d="M61.4492 154.35C61.3315 154.413 61.2046 154.45 61.0704 154.465C60.9344 154.476 60.803 154.464 60.6743 154.425C60.5438 154.382 60.4266 154.323 60.3241 154.235C60.2182 154.149 60.134 154.047 60.0699 153.926C60.0075 153.808 59.9704 153.682 59.9587 153.546C59.9436 153.411 59.9593 153.278 59.9988 153.149C60.0384 153.021 60.1021 152.905 60.1882 152.799C60.276 152.697 60.378 152.613 60.4957 152.55C60.6169 152.486 60.7437 152.449 60.8779 152.434C61.0139 152.422 61.1454 152.434 61.274 152.474C61.4027 152.514 61.5183 152.577 61.6242 152.663C61.7302 152.749 61.8109 152.853 61.8733 152.971C61.9375 153.092 61.9779 153.217 61.9896 153.353C62.0013 153.489 61.9873 153.617 61.9495 153.749C61.9099 153.878 61.8462 153.994 61.7601 154.099C61.6723 154.202 61.5704 154.286 61.4492 154.35Z" stroke="#231815" stroke-width="0.744706" stroke-linecap="round" stroke-linejoin="round"/>
<path d="M63.0374 157.348C62.9196 157.411 62.7927 157.448 62.6585 157.463C62.5225 157.474 62.3911 157.462 62.2624 157.423C62.132 157.38 62.0148 157.321 61.9122 157.233C61.8063 157.147 61.7221 157.045 61.658 156.924C61.5956 156.806 61.5586 156.68 61.5468 156.544C61.5318 156.409 61.5474 156.276 61.587 156.147C61.6265 156.019 61.6902 155.903 61.7763 155.797C61.8642 155.695 61.9661 155.611 62.0839 155.548C62.205 155.484 62.3319 155.447 62.4661 155.432C62.602 155.42 62.7335 155.432 62.8622 155.472C62.9908 155.512 63.1065 155.575 63.2124 155.661C63.3183 155.747 63.3991 155.851 63.4615 155.969C63.5256 156.09 63.566 156.215 63.5777 156.351C63.5894 156.487 63.5754 156.615 63.5376 156.747C63.4981 156.876 63.4344 156.991 63.3483 157.097C63.2604 157.2 63.1585 157.284 63.0374 157.348Z" stroke="#231815" stroke-width="0.744706" stroke-linecap="round" stroke-linejoin="round"/>
<path d="M64.6248 160.346C64.507 160.409 64.3801 160.446 64.2459 160.461C64.1099 160.472 63.9785 160.46 63.8498 160.421C63.7194 160.378 63.6022 160.319 63.4996 160.231C63.3937 160.145 63.3095 160.043 63.2454 159.922C63.183 159.804 63.146 159.677 63.1343 159.542C63.1192 159.407 63.1348 159.274 63.1744 159.145C63.2139 159.017 63.2776 158.901 63.3637 158.795C63.4516 158.693 63.5535 158.608 63.6713 158.546C63.7924 158.482 63.9193 158.445 64.0535 158.43C64.1895 158.418 64.3209 158.43 64.4496 158.47C64.5782 158.509 64.6939 158.573 64.7998 158.659C64.9057 158.745 64.9865 158.849 65.0489 158.967C65.113 159.088 65.1534 159.213 65.1651 159.349C65.1769 159.485 65.1628 159.613 65.125 159.745C65.0855 159.874 65.0218 159.989 64.9357 160.095C64.8478 160.198 64.7459 160.282 64.6248 160.346Z" stroke="#231815" stroke-width="0.744706" stroke-linecap="round" stroke-linejoin="round"/>
<path d="M66.2111 163.341C66.0933 163.403 65.9664 163.44 65.8322 163.455C65.6962 163.467 65.5648 163.455 65.4361 163.415C65.3075 163.376 65.1885 163.314 65.0859 163.226C64.98 163.14 64.8959 163.038 64.8335 162.92C64.7693 162.799 64.7323 162.672 64.7206 162.536C64.7055 162.402 64.7211 162.269 64.7607 162.14C64.8002 162.011 64.8639 161.896 64.95 161.79C65.0379 161.687 65.1398 161.603 65.2576 161.541C65.3787 161.477 65.5056 161.439 65.6398 161.424C65.7758 161.413 65.9072 161.425 66.0359 161.464C66.1645 161.504 66.2802 161.568 66.3861 161.654C66.492 161.74 66.5728 161.844 66.6369 161.965C66.6993 162.083 66.7397 162.208 66.7514 162.344C66.7632 162.48 66.7509 162.611 66.7113 162.74C66.6718 162.868 66.6081 162.984 66.522 163.09C66.4341 163.192 66.3322 163.277 66.2111 163.341Z" stroke="#231815" stroke-width="0.744706" stroke-linecap="round" stroke-linejoin="round"/>
<path d="M67.7996 166.339C67.6818 166.401 67.5549 166.438 67.4207 166.453C67.2847 166.465 67.1533 166.453 67.0246 166.413C66.896 166.373 66.777 166.312 66.6744 166.224C66.5685 166.138 66.4844 166.036 66.422 165.918C66.3578 165.797 66.3208 165.67 66.3091 165.534C66.294 165.4 66.3096 165.267 66.3492 165.138C66.3887 165.009 66.4524 164.894 66.5385 164.788C66.6264 164.685 66.7283 164.601 66.8461 164.539C66.9672 164.474 67.0941 164.437 67.2283 164.422C67.3643 164.411 67.4957 164.423 67.6244 164.462C67.753 164.502 67.8687 164.566 67.9746 164.652C68.0805 164.738 68.1613 164.841 68.2255 164.963C68.2878 165.08 68.3282 165.205 68.3399 165.341C68.3517 165.477 68.3394 165.609 68.2998 165.738C68.2603 165.866 68.1966 165.982 68.1105 166.088C68.0226 166.19 67.9207 166.274 67.7996 166.339Z" stroke="#231815" stroke-width="0.744706" stroke-linecap="round" stroke-linejoin="round"/>
<path d="M69.3877 169.337C69.2699 169.399 69.1431 169.436 69.0089 169.451C68.8729 169.463 68.7414 169.451 68.6128 169.411C68.4841 169.371 68.3651 169.31 68.2626 169.222C68.1566 169.136 68.0725 169.034 68.0101 168.916C67.9459 168.795 67.9089 168.668 67.8972 168.532C67.8821 168.398 67.8977 168.264 67.9373 168.136C67.9769 168.007 68.0406 167.892 68.1266 167.786C68.2145 167.683 68.3164 167.599 68.4342 167.537C68.5553 167.472 68.6822 167.435 68.8164 167.42C68.9524 167.409 69.0838 167.421 69.2125 167.46C69.3412 167.5 69.4568 167.564 69.5627 167.65C69.6686 167.736 69.7494 167.839 69.8136 167.961C69.876 168.078 69.9164 168.203 69.9281 168.339C69.9398 168.475 69.9275 168.607 69.888 168.736C69.8484 168.864 69.7847 168.98 69.6986 169.086C69.6108 169.188 69.5088 169.272 69.3877 169.337Z" stroke="#231815" stroke-width="0.744706" stroke-linecap="round" stroke-linejoin="round"/>
<path d="M240.364 61.8588L28.1425 170.188" stroke="#231815" stroke-width="0.372353" stroke-linecap="round" stroke-linejoin="round"/>
<path d="M248.099 60.5444L29.8174 173.35" stroke="#231815" stroke-width="0.372353" stroke-linecap="round" stroke-linejoin="round"/>
<path d="M255.668 59.3533L31.4927 176.513" stroke="#231815" stroke-width="0.372353" stroke-linecap="round" stroke-linejoin="round"/>
<path d="M263.91 57.4905L33.1679 179.676" stroke="#231815" stroke-width="0.372353" stroke-linecap="round" stroke-linejoin="round"/>
<path d="M271.079 56.1537L34.9158 182.788" stroke="#231815" stroke-width="0.372353" stroke-linecap="round" stroke-linejoin="round"/>
<path d="M278.898 54.2397L36.592 186.01" stroke="#231815" stroke-width="0.372353" stroke-linecap="round" stroke-linejoin="round"/>
<path d="M25.6083 172.237L25.022 171.13C24.9115 170.921 24.9906 170.664 25.1992 170.553L30.1016 167.956C30.3068 167.848 30.5675 167.925 30.678 168.134L31.2644 169.241C31.3749 169.449 31.2924 169.708 31.0871 169.817L26.1848 172.414C25.9762 172.524 25.7188 172.445 25.6083 172.237Z" fill="#231815" stroke="#231815" stroke-width="0.744706" stroke-linecap="round" stroke-linejoin="round"/>
<path d="M27.2841 175.399L26.6977 174.292C26.5872 174.084 26.6664 173.826 26.875 173.716L31.7773 171.119C31.9826 171.01 32.2433 171.088 32.3538 171.296L32.9402 172.403C33.0489 172.608 32.9682 172.871 32.7629 172.98L27.8606 175.576C27.652 175.687 27.3928 175.605 27.2841 175.399Z" fill="#231815" stroke="#231815" stroke-width="0.744706" stroke-linecap="round" stroke-linejoin="round"/>
<path d="M28.9607 178.565L28.3743 177.458C28.2638 177.25 28.3412 176.989 28.5498 176.879L33.4521 174.282C33.6574 174.173 33.9199 174.254 34.0304 174.462L34.6167 175.569C34.7255 175.775 34.6448 176.037 34.4395 176.146L29.5372 178.743C29.3268 178.85 29.0694 178.771 28.9607 178.565Z" fill="#231815" stroke="#231815" stroke-width="0.744706" stroke-linecap="round" stroke-linejoin="round"/>
<path d="M30.6357 181.728L30.0476 180.618C29.9389 180.413 30.0162 180.152 30.2248 180.042L35.1272 177.445C35.3324 177.336 35.5949 177.417 35.7036 177.622L36.2918 178.732C36.4005 178.938 36.3198 179.2 36.1146 179.309L31.2122 181.906C31.0018 182.013 30.7445 181.934 30.6357 181.728Z" fill="#231815" stroke="#231815" stroke-width="0.744706" stroke-linecap="round" stroke-linejoin="round"/>
<path d="M32.3097 184.888L31.7234 183.781C31.6147 183.575 31.692 183.315 31.9006 183.204L36.803 180.607C37.0082 180.499 37.2707 180.579 37.3794 180.785L37.9658 181.892C38.0763 182.1 37.9956 182.363 37.7903 182.472L32.888 185.068C32.6794 185.179 32.4202 185.096 32.3097 184.888Z" fill="#231815" stroke="#231815" stroke-width="0.744706" stroke-linecap="round" stroke-linejoin="round"/>
<path d="M33.985 188.05L33.3987 186.943C33.29 186.738 33.3673 186.478 33.5759 186.367L38.4783 183.77C38.6835 183.662 38.946 183.742 39.0547 183.947L39.6411 185.054C39.7516 185.263 39.6691 185.522 39.4639 185.631L34.5615 188.228C34.3529 188.338 34.0955 188.259 33.985 188.05Z" fill="#231815" stroke="#231815" stroke-width="0.744706" stroke-linecap="round" stroke-linejoin="round"/>
</svg>
