<svg width="317" height="317" viewBox="0 0 317 317" fill="none" xmlns="http://www.w3.org/2000/svg">
<mask id="mask0_3_227" style="mask-type:luminance" maskUnits="userSpaceOnUse" x="0" y="0" width="137" height="317">
<path d="M0 0H136.656V316.839H0V0Z" fill="white"/>
</mask>
<g mask="url(#mask0_3_227)">
<path d="M132.552 181.052H71.125V3.23438C71.125 1.44792 69.6771 0 67.8906 0C66.1094 0 64.6563 1.44792 64.6563 3.23438V181.052H3.22917C1.44792 181.052 0 182.5 0 184.281V236.01C0 237.797 1.44792 239.245 3.22917 239.245H64.6563V313.604C64.6563 315.391 66.1094 316.839 67.8906 316.839C69.6771 316.839 71.125 315.391 71.125 313.604V239.245H132.552C134.339 239.245 135.786 237.797 135.786 236.01V184.281C135.786 182.5 134.339 181.052 132.552 181.052ZM129.318 232.781H6.46354V187.516H129.318V232.781Z" fill="black"/>
</g>
<path d="M25.8646 210.146C25.8646 211.932 27.3125 213.38 29.0938 213.38H106.688C108.474 213.38 109.922 211.932 109.922 210.146C109.922 208.365 108.474 206.917 106.688 206.917H29.0938C27.3125 206.917 25.8646 208.365 25.8646 210.146Z" fill="black"/>
<mask id="mask1_3_227" style="mask-type:luminance" maskUnits="userSpaceOnUse" x="180" y="0" width="137" height="317">
<path d="M180.656 0H316.833V316.839H180.656V0Z" fill="white"/>
</mask>
<g mask="url(#mask1_3_227)">
<path d="M313.604 64.6615H252.172V3.23438C252.172 1.44792 250.724 0 248.943 0C247.156 0 245.708 1.44792 245.708 3.23438V64.6615H184.281C182.495 64.6615 181.047 66.1094 181.047 67.8958V119.625C181.047 121.406 182.495 122.854 184.281 122.854H245.708V313.604C245.708 315.391 247.156 316.839 248.943 316.839C250.724 316.839 252.172 315.391 252.172 313.604V122.854H313.604C315.385 122.854 316.833 121.406 316.833 119.625V67.8958C316.833 66.1094 315.385 64.6615 313.604 64.6615ZM310.37 116.391H187.516V71.125H310.37V116.391Z" fill="black"/>
</g>
<path d="M206.911 93.7604C206.911 95.5417 208.359 96.9896 210.146 96.9896H287.74C289.521 96.9896 290.969 95.5417 290.969 93.7604C290.969 91.974 289.521 90.5261 287.74 90.5261H210.146C208.359 90.5261 206.911 91.974 206.911 93.7604Z" fill="black"/>
<path d="M247.348 121.795C247.348 121.16 247.493 120.681 247.785 120.358C248.077 120.024 248.493 119.858 249.035 119.858C249.587 119.858 250.02 120.024 250.327 120.358C250.645 120.681 250.806 121.16 250.806 121.795C250.806 122.42 250.645 122.899 250.327 123.233C250.02 123.566 249.587 123.733 249.035 123.733C248.546 123.733 248.145 123.587 247.827 123.295C247.504 122.993 247.348 122.493 247.348 121.795Z" fill="black"/>
</svg>
