<svg width="240" height="272" viewBox="0 0 240 272" fill="none" xmlns="http://www.w3.org/2000/svg">
<mask id="mask0_3_407" style="mask-type:luminance" maskUnits="userSpaceOnUse" x="157" y="0" width="83" height="79">
<path d="M157.48 0H240V78.813H157.48V0Z" fill="white"/>
</mask>
<g mask="url(#mask0_3_407)">
<path d="M230.198 78.4042C229.51 78.4042 228.827 78.2475 228.159 77.9572C225.871 76.8951 224.935 74.2551 226.052 72.0774C229.205 65.9608 230.793 59.4316 230.793 52.6464C230.793 28.4474 210.098 8.77567 184.652 8.77567C177.515 8.77567 170.648 10.2809 164.211 13.28C161.923 14.3612 159.165 13.452 158.047 11.2781C156.93 9.10041 157.866 6.46045 160.158 5.39836C167.854 1.81473 176.108 0 184.652 0C215.185 0 240.02 23.6145 240.02 52.6464C240.02 60.7688 238.11 68.6161 234.343 75.9361C233.531 77.4949 231.89 78.4042 230.198 78.4042Z" fill="black"/>
</g>
<path d="M134.133 61.6437C131.752 61.6437 129.734 59.913 129.537 57.6169C129.392 55.9702 129.284 54.3083 129.284 52.6464C129.284 40.8564 133.284 29.7311 140.835 20.5123C142.403 18.5944 145.286 18.2505 147.308 19.7405C149.306 21.2343 149.668 23.9927 148.116 25.9106C141.828 33.5707 138.511 42.8239 138.511 52.6464C138.511 54.0676 138.6 55.4736 138.728 56.8795C138.945 59.2941 137.052 61.4183 134.527 61.6246C134.382 61.6246 134.257 61.6437 134.133 61.6437Z" fill="black"/>
<path d="M184.652 105.293C182.903 105.293 181.174 105.205 179.425 105.052C176.884 104.846 174.99 102.722 175.207 100.322C175.424 97.9039 177.588 96.0892 180.201 96.3108C192.022 97.2697 203.557 94.221 212.784 87.4014C214.787 85.9076 217.689 86.2514 219.258 88.154C220.826 90.0719 220.464 92.8303 218.445 94.3241C208.748 101.503 197.068 105.293 184.652 105.293Z" fill="black"/>
<path d="M156.966 10.5904L147.344 19.7405L219.257 88.1197L228.879 78.9696L156.966 10.5904ZM219.257 96.8954C216.893 96.8954 214.533 96.0358 212.732 94.3242L140.819 25.945C137.212 22.518 137.212 16.9668 140.819 13.5398L150.444 4.38594C154.047 0.958959 159.905 0.958959 163.491 4.38594L235.404 72.7651C239.011 76.1921 239.011 81.7433 235.404 85.1703L225.779 94.3242C223.978 96.0358 221.618 96.8954 219.257 96.8954Z" fill="black"/>
<path d="M134.241 63.5615L33.9945 179.582L51.1505 195.896L173.169 100.578L134.241 63.5615ZM51.1505 204.671C48.7703 204.671 46.4303 203.812 44.625 202.1L27.469 185.783C24.0956 182.581 23.8464 177.523 26.8538 174.012L130.329 54.2395C131.157 53.2959 132.363 52.7151 133.682 52.6464C134.961 52.6273 136.239 53.0552 137.16 53.9301L183.301 97.8008C184.218 98.6757 184.704 99.8753 184.652 101.109C184.579 102.359 183.964 103.509 182.975 104.296L57.0086 202.681C55.2958 204.018 53.2051 204.671 51.1505 204.671Z" fill="black"/>
<path d="M129.284 100.903C126.743 100.903 124.668 102.874 124.668 105.293C124.668 107.707 126.743 109.679 129.284 109.679C131.841 109.679 133.895 107.707 133.895 105.293C133.895 102.874 131.841 100.903 129.284 100.903ZM129.284 118.451C121.66 118.451 115.441 112.556 115.441 105.293C115.441 98.0262 121.66 92.1312 129.284 92.1312C136.923 92.1312 143.127 98.0262 143.127 105.293C143.127 112.556 136.923 118.451 129.284 118.451Z" fill="black"/>
<mask id="mask1_3_407" style="mask-type:luminance" maskUnits="userSpaceOnUse" x="0" y="185" width="126" height="87">
<path d="M0 185.42H125.573V272H0V185.42Z" fill="white"/>
</mask>
<g mask="url(#mask1_3_407)">
<path d="M110.322 272C109.546 272 108.754 271.813 108.035 271.419C105.815 270.22 105.059 267.53 106.322 265.421L112.972 254.452C115.441 250.391 116.088 245.681 114.809 241.138C113.547 236.595 110.483 232.825 106.213 230.479C100.516 227.342 93.6688 227.323 87.9193 230.41L41.4005 255.411C37.2552 257.658 32.5149 258.838 27.7384 258.838C20.4047 258.838 13.4651 256.114 8.20209 251.163C-2.56116 240.882 -2.56116 224.156 8.18199 213.89L35.8681 187.567C37.6694 185.852 40.5883 185.852 42.3896 187.567C44.1949 189.279 44.1949 192.056 42.3896 193.772L14.7075 220.095C7.55075 226.93 7.55075 238.085 14.7236 244.959C20.4932 250.391 29.8291 251.576 36.8572 247.786L83.376 222.784C91.8837 218.207 102.41 218.242 110.845 222.888C117.242 226.399 121.821 232.072 123.731 238.876C125.641 245.662 124.668 252.756 120.973 258.838L114.323 269.807C113.474 271.213 111.927 272 110.322 272Z" fill="black"/>
</g>
<path d="M125.701 113.532C125.701 113.066 125.814 112.715 126.039 112.478C126.264 112.233 126.586 112.111 127.004 112.111C127.43 112.111 127.764 112.233 128.001 112.478C128.247 112.715 128.371 113.066 128.371 113.532C128.371 113.991 128.247 114.342 128.001 114.587C127.764 114.831 127.43 114.954 127.004 114.954C126.626 114.954 126.317 114.847 126.071 114.633C125.822 114.411 125.701 114.044 125.701 113.532Z" fill="black"/>
</svg>
