<svg width="307" height="307" viewBox="0 0 307 307" fill="none" xmlns="http://www.w3.org/2000/svg">
<mask id="mask0_3_244" style="mask-type:luminance" maskUnits="userSpaceOnUse" x="52" y="0" width="201" height="307">
<path d="M52.7331 0H252.733V306.844H52.7331V0Z" fill="white"/>
</mask>
<g mask="url(#mask0_3_244)">
<path d="M228.16 306.844H78.1185C64.7956 306.844 53.9518 295.974 53.9518 282.62V24.224C53.9518 10.8698 64.7956 0 78.1185 0H228.16C241.488 0 252.332 10.8698 252.332 24.224V282.62C252.332 295.974 241.488 306.844 228.16 306.844ZM78.1185 16.151C73.681 16.151 70.0664 19.7708 70.0664 24.224V282.62C70.0664 287.068 73.681 290.693 78.1185 290.693H228.16C232.603 290.693 236.217 287.068 236.217 282.62V24.224C236.217 19.7708 232.603 16.151 228.16 16.151H78.1185Z" fill="black"/>
</g>
<path d="M153.139 217.375C163.879 217.375 172.582 208.651 172.582 197.885C172.582 187.125 163.879 178.401 153.139 178.401C142.4 178.401 133.697 187.125 133.697 197.885C133.697 208.651 142.4 217.375 153.139 217.375Z" fill="black"/>
<path d="M153.139 126.88C114.092 126.88 82.3477 158.75 82.3477 197.885C82.3477 237.021 114.092 268.839 153.139 268.839C192.186 268.839 223.926 237.021 223.926 197.885C223.926 158.75 192.186 126.88 153.139 126.88ZM153.139 233.521C133.535 233.521 117.582 217.536 117.582 197.885C117.582 178.24 133.535 162.25 153.139 162.25C172.743 162.25 188.691 178.24 188.691 197.885C188.691 217.536 172.743 233.521 153.139 233.521Z" fill="black"/>
<path d="M153.139 109.26C133.535 109.26 117.582 93.276 117.582 73.6302C117.582 53.9896 133.535 37.9948 153.139 37.9948C172.743 37.9948 188.697 53.9844 188.697 73.6302C188.697 93.2812 172.743 109.26 153.139 109.26ZM153.139 54.1458C142.421 54.1458 133.697 62.8854 133.697 73.6302C133.697 84.375 142.421 93.1146 153.139 93.1146C163.858 93.1146 172.582 84.3698 172.582 73.6302C172.582 62.8906 163.858 54.1458 153.139 54.1458Z" fill="black"/>
<path d="M37.7018 173.891C35.1029 173.891 32.5404 172.635 30.9883 170.292C23.8216 159.495 23.7852 147.87 30.905 136.682C33.3008 132.927 38.28 131.828 42.0248 134.219C45.7748 136.615 46.8789 141.609 44.4883 145.37C40.8164 151.13 40.7904 155.911 44.3998 161.344C46.8685 165.052 45.8581 170.068 42.155 172.542C40.7852 173.458 39.2331 173.891 37.6966 173.891H37.7018Z" fill="black"/>
<path d="M19.0196 195.005C16.4206 195.005 13.8581 193.745 12.306 191.406C-4.07418 166.74 -4.10022 141.229 12.2175 115.573C14.6133 111.812 19.5925 110.708 23.3425 113.104C27.0925 115.5 28.1914 120.5 25.8008 124.255C13.0456 144.302 13.0196 163.339 25.7175 182.458C28.181 186.167 27.1706 191.182 23.4727 193.656C22.1029 194.573 20.556 195.005 19.0196 195.005Z" fill="black"/>
<path d="M268.577 173.891C267.04 173.891 265.488 173.458 264.119 172.542C260.415 170.068 259.405 165.052 261.874 161.344C265.483 155.911 265.457 151.141 261.785 145.37C259.395 141.609 260.499 136.615 264.249 134.219C267.994 131.828 272.978 132.927 275.369 136.682C282.488 147.87 282.452 159.495 275.285 170.292C273.733 172.635 271.176 173.891 268.577 173.891Z" fill="black"/>
<path d="M287.259 195.005C285.723 195.005 284.176 194.573 282.801 193.656C279.103 191.182 278.092 186.167 280.556 182.458C293.254 163.339 293.228 144.302 280.473 124.255C278.082 120.5 279.181 115.5 282.931 113.104C286.681 110.708 291.665 111.812 294.056 115.573C310.379 141.229 310.348 166.74 293.967 191.406C292.415 193.745 289.858 195.005 287.259 195.005Z" fill="black"/>
<path d="M151.642 144.719C151.642 144.084 151.788 143.605 152.079 143.282C152.371 142.949 152.788 142.782 153.329 142.782C153.882 142.782 154.314 142.949 154.621 143.282C154.939 143.605 155.1 144.084 155.1 144.719C155.1 145.344 154.939 145.824 154.621 146.157C154.314 146.49 153.882 146.657 153.329 146.657C152.84 146.657 152.439 146.511 152.121 146.219C151.798 145.917 151.642 145.417 151.642 144.719Z" fill="black"/>
</svg>
