<svg xmlns="http://www.w3.org/2000/svg" xmlns:xlink="http://www.w3.org/1999/xlink" width="794" zoomAndPan="magnify" viewBox="0 0 595.5 842.249979" height="1123" preserveAspectRatio="xMidYMid meet" version="1.2"><defs><clipPath id="59441eaaf8"><path d="M 178.507812 243.996094 L 416.132812 243.996094 L 416.132812 448.640625 L 178.507812 448.640625 Z M 178.507812 243.996094 "/></clipPath></defs><g id="726b48b938"><g clip-rule="nonzero" clip-path="url(#59441eaaf8)"><path style=" stroke:none;fill-rule:nonzero;fill:#000000;fill-opacity:1;" d="M 397.636719 243.976562 L 379.230469 243.976562 L 379.230469 254.039062 L 397.628906 254.039062 C 402.238281 254.039062 405.988281 257.800781 405.988281 262.425781 L 405.988281 430.140625 C 405.988281 434.765625 402.238281 438.527344 397.628906 438.527344 L 357.492188 438.527344 L 357.492188 341.253906 L 362.507812 341.253906 C 366.203125 341.253906 369.199219 338.25 369.199219 334.542969 L 369.199219 243.976562 L 339.09375 243.976562 L 339.09375 334.542969 C 339.09375 338.25 342.089844 341.253906 345.785156 341.253906 L 350.800781 341.253906 L 350.800781 438.527344 L 300.628906 438.527344 L 300.628906 341.253906 L 305.648438 341.253906 C 309.34375 341.253906 312.335938 338.25 312.335938 334.542969 L 312.335938 243.976562 L 282.234375 243.976562 L 282.234375 334.542969 C 282.234375 338.25 285.230469 341.253906 288.925781 341.253906 L 293.941406 341.253906 L 293.941406 438.527344 L 243.769531 438.527344 L 243.769531 341.253906 L 248.789062 341.253906 C 252.480469 341.253906 255.476562 338.25 255.476562 334.542969 L 255.476562 243.976562 L 225.375 243.976562 L 225.375 334.542969 C 225.375 338.25 228.371094 341.253906 232.0625 341.253906 L 237.082031 341.253906 L 237.082031 438.527344 L 196.945312 438.527344 C 192.332031 438.527344 188.582031 434.765625 188.582031 430.140625 L 188.582031 262.425781 C 188.582031 257.804688 192.335938 254.042969 196.945312 254.042969 L 215.339844 254.042969 L 215.339844 243.976562 L 195.894531 243.976562 L 195.894531 244.007812 C 186.238281 244.554688 178.546875 252.605469 178.546875 262.425781 L 178.546875 430.140625 C 178.546875 440.3125 186.800781 448.589844 196.945312 448.589844 L 397.628906 448.589844 C 407.769531 448.589844 416.023438 440.3125 416.023438 430.140625 L 416.023438 262.425781 C 416.023438 252.257812 407.777344 243.984375 397.636719 243.976562 Z M 397.636719 243.976562 "/></g><g style="fill:#000000;fill-opacity:1;"><g transform="translate(294.572017, 320.449643)"><path style="stroke:none" d="M 1.625 -1.140625 C 1.625 -1.617188 1.734375 -1.976562 1.953125 -2.21875 C 2.171875 -2.46875 2.484375 -2.59375 2.890625 -2.59375 C 3.304688 -2.59375 3.628906 -2.46875 3.859375 -2.21875 C 4.097656 -1.976562 4.21875 -1.617188 4.21875 -1.140625 C 4.21875 -0.671875 4.097656 -0.3125 3.859375 -0.0625 C 3.628906 0.1875 3.304688 0.3125 2.890625 0.3125 C 2.523438 0.3125 2.222656 0.203125 1.984375 -0.015625 C 1.742188 -0.242188 1.625 -0.617188 1.625 -1.140625 Z M 1.625 -1.140625 "/></g></g></g></svg>