<svg width="317" height="165" viewBox="0 0 317 165" fill="none" xmlns="http://www.w3.org/2000/svg">
<mask id="mask0_39_18" style="mask-type:luminance" maskUnits="userSpaceOnUse" x="0" y="0" width="317" height="165">
<path d="M0 0H316.484V164.885H0V0Z" fill="white"/>
</mask>
<g mask="url(#mask0_39_18)">
<path d="M316.375 0.109375V164.802H0V0.109375H316.375ZM274.344 79.7083V156.672H308.255V8.23438H288.354V79.7083H274.344ZM266.219 156.672V79.7083H252.208V8.23438H232.307V79.7083H218.297V156.672H266.219ZM210.177 156.672V79.7083H196.161V8.23438H176.26V79.7083H162.25V156.672H210.177ZM154.13 156.672V79.7083H140.12V8.23438H120.219V79.7083H106.203V156.672H154.13ZM98.0833 156.672V79.7083H84.0729V8.23438H64.1719V79.7083H50.1615V156.672H98.0833ZM42.0365 156.672V79.7083H28.026V8.23438H8.125V156.672H42.0365ZM260.339 8.23438V71.5885H280.24V8.23438H260.339ZM148.245 8.23438V71.5885H168.146V8.23438H148.245ZM204.292 8.23438V71.5885H224.193V8.23438H204.292ZM92.1979 8.23438V71.5885H112.099V8.23438H92.1979ZM36.1563 8.23438V71.5885H56.0573V8.23438H36.1563Z" fill="black"/>
</g>
<path d="M214.512 156.819C214.512 156.183 214.658 155.704 214.95 155.381C215.242 155.048 215.658 154.881 216.2 154.881C216.752 154.881 217.184 155.048 217.492 155.381C217.809 155.704 217.971 156.183 217.971 156.819C217.971 157.444 217.809 157.923 217.492 158.256C217.184 158.59 216.752 158.756 216.2 158.756C215.71 158.756 215.309 158.61 214.992 158.319C214.669 158.017 214.512 157.517 214.512 156.819Z" fill="black"/>
</svg>
