<svg width="317" height="211" viewBox="0 0 317 211" fill="none" xmlns="http://www.w3.org/2000/svg">
<path fill-rule="evenodd" clip-rule="evenodd" d="M1.81772 1.85938H46.5625V209.193H1.81772V1.85938Z" fill="white"/>
<mask id="mask0_2_148" style="mask-type:luminance" maskUnits="userSpaceOnUse" x="0" y="0" width="50" height="211">
<path d="M0 0H49.1042V210.891H0V0Z" fill="white"/>
</mask>
<g mask="url(#mask0_2_148)">
<path fill-rule="evenodd" clip-rule="evenodd" d="M48.25 1.8594C48.25 0.927103 47.4948 0.166687 46.5625 0.166687H1.81771C0.880208 0.166687 0.125 0.927103 0.125 1.8594V209.193C0.125 210.13 0.880208 210.891 1.81771 210.891H46.5625C47.4948 210.891 48.25 210.13 48.25 209.193V1.8594ZM44.8698 3.55731V207.495H3.50521V3.55731H44.8698Z" fill="black"/>
</g>
<path fill-rule="evenodd" clip-rule="evenodd" d="M46.5625 1.85938H91.3073V209.193H46.5625V1.85938Z" fill="white"/>
<mask id="mask1_2_148" style="mask-type:luminance" maskUnits="userSpaceOnUse" x="43" y="0" width="51" height="211">
<path d="M43.7708 0H93.1042V210.891H43.7708V0Z" fill="white"/>
</mask>
<g mask="url(#mask1_2_148)">
<path fill-rule="evenodd" clip-rule="evenodd" d="M93 1.8594C93 0.927103 92.2396 0.166687 91.3073 0.166687H46.5625C45.625 0.166687 44.8698 0.927103 44.8698 1.8594V209.193C44.8698 210.13 45.625 210.891 46.5625 210.891H91.3073C92.2396 210.891 93 210.13 93 209.193V1.8594ZM89.6146 3.55731V207.495H48.25V3.55731H89.6146Z" fill="black"/>
</g>
<path fill-rule="evenodd" clip-rule="evenodd" d="M91.3073 1.85938H136.052V209.193H91.3073V1.85938Z" fill="white"/>
<mask id="mask2_2_148" style="mask-type:luminance" maskUnits="userSpaceOnUse" x="89" y="0" width="50" height="211">
<path d="M89.1042 0H138.438V210.891H89.1042V0Z" fill="white"/>
</mask>
<g mask="url(#mask2_2_148)">
<path fill-rule="evenodd" clip-rule="evenodd" d="M137.745 1.8594C137.745 0.927103 136.99 0.166687 136.052 0.166687H91.3073C90.375 0.166687 89.6146 0.927103 89.6146 1.8594V209.193C89.6146 210.13 90.375 210.891 91.3073 210.891H136.052C136.99 210.891 137.745 210.13 137.745 209.193V1.8594ZM134.365 3.55731V207.495H93V3.55731H134.365Z" fill="black"/>
</g>
<path fill-rule="evenodd" clip-rule="evenodd" d="M136.052 1.85938H180.802V209.193H136.052V1.85938Z" fill="white"/>
<mask id="mask3_2_148" style="mask-type:luminance" maskUnits="userSpaceOnUse" x="133" y="0" width="51" height="211">
<path d="M133.104 0H183.771V210.891H133.104V0Z" fill="white"/>
</mask>
<g mask="url(#mask3_2_148)">
<path fill-rule="evenodd" clip-rule="evenodd" d="M182.49 1.8594C182.49 0.927103 181.734 0.166687 180.802 0.166687H136.052C135.12 0.166687 134.365 0.927103 134.365 1.8594V209.193C134.365 210.13 135.12 210.891 136.052 210.891H180.802C181.734 210.891 182.49 210.13 182.49 209.193V1.8594ZM179.109 3.55731V207.495H137.745V3.55731H179.109Z" fill="black"/>
</g>
<path fill-rule="evenodd" clip-rule="evenodd" d="M180.802 1.85938H225.547V209.193H180.802V1.85938Z" fill="white"/>
<mask id="mask4_2_148" style="mask-type:luminance" maskUnits="userSpaceOnUse" x="178" y="0" width="50" height="211">
<path d="M178.438 0H227.771V210.891H178.438V0Z" fill="white"/>
</mask>
<g mask="url(#mask4_2_148)">
<path fill-rule="evenodd" clip-rule="evenodd" d="M227.24 1.8594C227.24 0.927103 226.479 0.166687 225.547 0.166687H180.802C179.865 0.166687 179.109 0.927103 179.109 1.8594V209.193C179.109 210.13 179.865 210.891 180.802 210.891H225.547C226.479 210.891 227.24 210.13 227.24 209.193V1.8594ZM223.854 3.55731V207.495H182.49V3.55731H223.854Z" fill="black"/>
</g>
<path fill-rule="evenodd" clip-rule="evenodd" d="M225.547 1.85938H270.292V209.193H225.547V1.85938Z" fill="white"/>
<mask id="mask5_2_148" style="mask-type:luminance" maskUnits="userSpaceOnUse" x="223" y="0" width="51" height="211">
<path d="M223.771 0H273.104V210.891H223.771V0Z" fill="white"/>
</mask>
<g mask="url(#mask5_2_148)">
<path fill-rule="evenodd" clip-rule="evenodd" d="M271.984 1.8594C271.984 0.927103 271.229 0.166687 270.292 0.166687H225.547C224.615 0.166687 223.854 0.927103 223.854 1.8594V209.193C223.854 210.13 224.615 210.891 225.547 210.891H270.292C271.229 210.891 271.984 210.13 271.984 209.193V1.8594ZM268.604 3.55731V207.495H227.24V3.55731H268.604Z" fill="black"/>
</g>
<path fill-rule="evenodd" clip-rule="evenodd" d="M270.292 1.85938H315.042V209.193H270.292V1.85938Z" fill="white"/>
<mask id="mask6_2_148" style="mask-type:luminance" maskUnits="userSpaceOnUse" x="267" y="0" width="50" height="211">
<path d="M267.771 0H316.839V210.891H267.771V0Z" fill="white"/>
</mask>
<g mask="url(#mask6_2_148)">
<path fill-rule="evenodd" clip-rule="evenodd" d="M316.729 1.8594C316.729 0.927103 315.974 0.166687 315.042 0.166687H270.292C269.359 0.166687 268.604 0.927103 268.604 1.8594V209.193C268.604 210.13 269.359 210.891 270.292 210.891H315.042C315.974 210.891 316.729 210.13 316.729 209.193V1.8594ZM313.349 3.55731V207.495H271.984V3.55731H313.349Z" fill="black"/>
</g>
<path fill-rule="evenodd" clip-rule="evenodd" d="M32.3073 1.85938H60.9531V131.516H32.3073V1.85938Z" fill="black"/>
<path fill-rule="evenodd" clip-rule="evenodd" d="M62.0208 1.85939C62.0208 1.27084 61.5417 0.786469 60.9531 0.786469H32.3073C31.7188 0.786469 31.2396 1.27084 31.2396 1.85939V131.516C31.2396 132.109 31.7188 132.589 32.3073 132.589H60.9531C61.5417 132.589 62.0208 132.109 62.0208 131.516V1.85939ZM59.8802 2.9323V130.443H33.3802V2.9323H59.8802Z" fill="black"/>
<path fill-rule="evenodd" clip-rule="evenodd" d="M76.9844 1.85938H105.63V131.516H76.9844V1.85938Z" fill="black"/>
<path fill-rule="evenodd" clip-rule="evenodd" d="M106.698 1.85939C106.698 1.27084 106.219 0.786469 105.63 0.786469H76.9844C76.3959 0.786469 75.9167 1.27084 75.9167 1.85939V131.516C75.9167 132.109 76.3959 132.589 76.9844 132.589H105.63C106.219 132.589 106.698 132.109 106.698 131.516V1.85939ZM104.557 2.9323V130.443H78.0573V2.9323H104.557Z" fill="black"/>
<path fill-rule="evenodd" clip-rule="evenodd" d="M166.479 1.85938H195.125V131.516H166.479V1.85938Z" fill="black"/>
<path fill-rule="evenodd" clip-rule="evenodd" d="M196.193 1.85939C196.193 1.27084 195.714 0.786469 195.125 0.786469H166.479C165.885 0.786469 165.406 1.27084 165.406 1.85939V131.516C165.406 132.109 165.885 132.589 166.479 132.589H195.125C195.714 132.589 196.193 132.109 196.193 131.516V1.85939ZM194.052 2.9323V130.443H167.547C167.547 130.443 167.547 15.3021 167.547 2.9323H194.052Z" fill="black"/>
<path fill-rule="evenodd" clip-rule="evenodd" d="M211.224 1.85938H239.87V131.516H211.224V1.85938Z" fill="black"/>
<path fill-rule="evenodd" clip-rule="evenodd" d="M240.938 1.85939C240.938 1.27084 240.458 0.786469 239.87 0.786469H211.224C210.635 0.786469 210.156 1.27084 210.156 1.85939V131.516C210.156 132.109 210.635 132.589 211.224 132.589H239.87C240.458 132.589 240.938 132.109 240.938 131.516V1.85939ZM238.797 2.9323V130.443H212.292V2.9323H238.797Z" fill="black"/>
<path fill-rule="evenodd" clip-rule="evenodd" d="M255.969 1.07812H284.615V130.729H255.969V1.07812Z" fill="black"/>
<mask id="mask7_2_148" style="mask-type:luminance" maskUnits="userSpaceOnUse" x="254" y="0" width="33" height="133">
<path d="M254.438 0H286.438V132.484H254.438V0Z" fill="white"/>
</mask>
<g mask="url(#mask7_2_148)">
<path fill-rule="evenodd" clip-rule="evenodd" d="M285.687 1.07814C285.687 0.484386 285.208 0.00521851 284.615 0.00521851H255.969C255.38 0.00521851 254.901 0.484386 254.901 1.07814V130.729C254.901 131.323 255.38 131.802 255.969 131.802H284.615C285.208 131.802 285.687 131.323 285.687 130.729V1.07814ZM283.547 2.15105V129.656H257.042C257.042 117.932 257.042 13.875 257.042 2.15105H283.547Z" fill="black"/>
</g>
<path d="M48.3263 105.731C48.3263 105.095 48.4721 104.616 48.7638 104.293C49.0554 103.96 49.4721 103.793 50.0138 103.793C50.5658 103.793 50.9981 103.96 51.3054 104.293C51.6231 104.616 51.7846 105.095 51.7846 105.731C51.7846 106.356 51.6231 106.835 51.3054 107.168C50.9981 107.502 50.5658 107.668 50.0138 107.668C49.5242 107.668 49.1231 107.523 48.8054 107.231C48.4825 106.929 48.3263 106.429 48.3263 105.731Z" fill="black"/>
</svg>
