<svg width="317" height="260" viewBox="0 0 317 260" fill="none" xmlns="http://www.w3.org/2000/svg">
<path fill-rule="evenodd" clip-rule="evenodd" d="M298.193 218.365C295.719 218.365 293.245 216.505 293.245 213.411V32.7812H211.589C208.495 32.7812 206.641 30.3073 206.641 27.8333C206.641 25.3594 208.495 23.5052 211.589 23.5052H298.193C300.667 23.5052 302.526 25.3594 302.526 27.8333V214.031C302.526 216.505 300.052 218.365 298.193 218.365ZM18.5885 218.365C16.1145 218.365 14.2604 216.505 14.2604 213.411V27.8333C14.2604 25.3594 16.1145 23.5052 18.5885 23.5052H105.193C108.286 23.5052 110.141 25.3594 110.141 27.8333C110.141 30.3073 108.286 32.7812 105.193 32.7812H22.9166V214.031C22.9166 216.505 21.0625 218.365 18.5885 218.365Z" fill="black"/>
<mask id="mask0_3_427" style="mask-type:luminance" maskUnits="userSpaceOnUse" x="0" y="208" width="317" height="52">
<path d="M0 208.849H316.807V259.865H0V208.849Z" fill="white"/>
</mask>
<g mask="url(#mask0_3_427)">
<path fill-rule="evenodd" clip-rule="evenodd" d="M293.245 259.807H23.5365C10.5469 259.807 0.03125 248.672 0.03125 235.062V214.031C0.03125 211.557 1.88542 209.083 4.35938 209.083H312.422C314.896 209.083 316.75 211.557 316.75 214.031V235.062C316.75 248.672 306.234 259.807 293.245 259.807ZM8.69271 218.365V234.448C8.69271 243.104 15.4948 250.531 23.5365 250.531H293.245C301.286 250.531 307.474 243.104 307.474 234.448V218.365H8.69271Z" fill="black"/>
</g>
<path fill-rule="evenodd" clip-rule="evenodd" d="M277.161 197.948H239.427C236.953 197.948 234.479 195.474 234.479 193C234.479 190.526 236.953 188.672 239.427 188.672H272.833V166.401C272.833 163.927 274.688 162.068 277.161 162.068C279.635 162.068 282.109 163.927 282.109 166.401V193C281.49 195.474 279.635 197.948 277.161 197.948ZM77.3542 197.948H39.6198C37.1458 197.948 34.6719 195.474 34.6719 193V166.401C34.6719 163.927 37.1458 162.068 39.6198 162.068C42.0937 162.068 43.9531 163.927 43.9531 166.401V188.672H77.974C80.4479 188.672 82.3021 190.526 82.3021 193C82.3021 195.474 79.8281 197.948 77.3542 197.948ZM277.161 90.9323C274.068 90.9323 272.214 89.0781 272.214 86.5989V53.1979H239.427C236.953 53.1979 234.479 50.7239 234.479 48.25C234.479 45.776 236.953 43.9166 239.427 43.9166H277.161C279.635 43.9166 282.109 45.776 282.109 48.25V86.5989C281.49 89.0781 279.635 90.9323 277.161 90.9323ZM39.6198 90.9323C37.1458 90.9323 34.6719 89.0781 34.6719 86.5989V48.8645C34.6719 46.3906 37.1458 43.9166 39.6198 43.9166H77.3542C79.8281 43.9166 82.3021 46.3906 82.3021 48.8645C82.3021 51.3437 79.8281 53.1979 77.3542 53.1979H43.9531V86.5989C43.9531 89.0781 42.0937 90.9323 39.6198 90.9323Z" fill="black"/>
<path fill-rule="evenodd" clip-rule="evenodd" d="M184.99 239.396H131.792C123.75 239.396 116.943 232.589 116.943 224.547V214.031C116.943 211.557 118.802 209.083 121.276 209.083C123.75 209.083 126.224 211.557 126.224 214.031V224.547C126.224 227.021 128.698 230.115 131.792 230.115H184.99C188.083 230.115 191.177 227.021 191.177 224.547V214.031C191.177 211.557 193.031 209.083 196.125 209.083C198.599 209.083 200.453 211.557 200.453 214.031V224.547C199.839 232.589 193.031 239.396 184.99 239.396Z" fill="black"/>
<path fill-rule="evenodd" clip-rule="evenodd" d="M55.0834 239.396H28.4844C25.3907 239.396 23.5365 236.922 23.5365 234.448C23.5365 231.969 25.3907 230.115 28.4844 230.115H55.0834C58.1771 230.115 60.0365 231.969 60.0365 234.448C60.0365 236.922 57.5573 239.396 55.0834 239.396Z" fill="black"/>
<mask id="mask1_3_427" style="mask-type:luminance" maskUnits="userSpaceOnUse" x="48" y="0" width="222" height="165">
<path d="M48 0H269.333V164.849H48V0Z" fill="white"/>
</mask>
<g mask="url(#mask1_3_427)">
<path fill-rule="evenodd" clip-rule="evenodd" d="M233.859 163.927H220.87C218.396 163.927 216.536 162.068 216.536 159.594V98.974C216.536 96.5 218.396 94.6406 220.87 94.6406H225.818V76.7031C225.818 39.5885 195.505 9.27604 157.771 9.27604C120.656 9.27604 90.3438 38.9688 90.3438 76.7031V94.6406H94.6771C97.7708 94.6406 99.625 96.5 99.625 98.974V159.594C99.625 162.068 97.7708 164.547 94.6771 164.547H82.3021C74.8802 164.547 67.4583 158.979 65.6042 151.552H61.2708C53.849 151.552 48.2812 145.37 48.2812 138.562V120.625C48.2812 113.818 53.849 107.635 61.2708 107.635H65.6042C67.4583 100.208 74.2604 95.2604 81.6875 94.6406V76.7031C81.6875 34.0208 116.328 0 158.391 0C200.453 0 235.099 34.0208 235.099 76.7031V94.6406C242.521 94.6406 249.323 100.208 251.182 107.635H255.51C262.318 107.635 268.5 113.203 268.5 120.625V137.943C268.5 144.75 262.932 150.938 255.51 150.938H251.182C248.708 158.359 241.901 163.927 233.859 163.927ZM225.818 155.266H233.859C238.188 155.266 241.901 151.552 241.901 147.224V146.604C241.901 144.13 244.375 142.276 246.849 142.276H255.51C257.365 142.276 259.224 140.417 259.224 137.943V120.625C259.224 118.151 257.365 116.292 255.51 116.292H246.849C244.375 116.292 241.901 114.438 241.901 111.964C241.901 107.016 238.807 103.302 233.859 103.302H225.818V155.266ZM61.2708 116.292C59.4167 116.292 57.5573 118.151 57.5573 120.625V137.943C57.5573 140.417 59.4167 142.276 61.2708 142.276H69.9323C72.4063 142.276 74.8802 144.13 74.8802 146.604V147.224C74.8802 151.552 78.5938 155.266 82.9219 155.266H90.9635V103.302H82.3021C77.974 103.302 74.2604 107.016 74.2604 111.964C74.2604 114.438 72.4063 116.292 69.9323 116.292H61.2708Z" fill="black"/>
</g>
<path fill-rule="evenodd" clip-rule="evenodd" d="M176.328 148.458C174.474 148.458 172.62 146.604 172 144.75L165.198 112.583L157.771 144.75C157.156 146.604 155.297 147.844 153.443 148.458C151.589 148.458 149.729 147.224 149.115 144.75L139.833 113.818L136.12 129.286C135.505 131.141 133.646 132.375 131.792 132.375H107.047C104.573 132.375 102.719 130.521 102.719 127.427C102.719 124.953 104.573 123.099 107.047 123.099H128.078L135.505 95.2604C136.12 93.4063 137.979 92.1667 139.833 92.1667C141.688 92.1667 143.547 93.4063 144.161 95.2604L152.823 125.573L160.865 90.9323C160.865 89.0781 162.719 87.8386 165.198 87.8386C167.052 87.8386 168.906 89.0781 169.526 90.9323L176.948 125.573L185.609 95.8802C186.229 94.0261 188.083 92.1667 189.938 92.1667C191.797 92.1667 193.651 94.0261 194.271 95.8802L201.693 123.099H209.734C212.208 123.099 214.062 125.573 214.062 128.047C214.062 130.521 212.208 132.375 209.734 132.375H198.599C196.125 132.375 194.271 131.141 194.271 129.286L189.938 113.818L180.661 145.37C180.042 147.224 178.188 148.458 176.328 148.458Z" fill="black"/>
<path d="M181.5 121.514C181.5 120.879 181.646 120.399 181.938 120.077C182.229 119.743 182.646 119.577 183.188 119.577C183.74 119.577 184.172 119.743 184.479 120.077C184.797 120.399 184.959 120.879 184.959 121.514C184.959 122.139 184.797 122.618 184.479 122.952C184.172 123.285 183.74 123.452 183.188 123.452C182.698 123.452 182.297 123.306 181.979 123.014C181.656 122.712 181.5 122.212 181.5 121.514Z" fill="black"/>
</svg>
