<svg width="317" height="272" viewBox="0 0 317 272" fill="none" xmlns="http://www.w3.org/2000/svg">
<mask id="mask0_3_370" style="mask-type:luminance" maskUnits="userSpaceOnUse" x="0" y="0" width="317" height="272">
<path d="M0 0H316.833V271.859H0V0Z" fill="white"/>
</mask>
<g mask="url(#mask0_3_370)">
<path d="M314.208 130.964C312.578 130.057 310.589 130.104 309.005 131.099L254.781 164.667H235.5V133.005C235.5 125.432 229.344 119.26 221.786 119.26H186.75C191.594 116.495 196.12 113 200.193 108.964C212.234 96.901 218.844 80.8906 218.844 63.8333C218.844 46.7812 212.234 30.7656 200.193 18.7031C188.156 6.63542 172.177 0.015625 155.156 0.015625C138.141 0.015625 122.161 6.63542 110.12 18.7031C99.4375 29.4062 93.0104 43.2396 91.7448 58.1667C83.9583 48.7292 72.2344 42.6979 59.0677 42.6979C35.7083 42.6979 16.6979 61.75 16.6979 85.151C16.6979 99.0781 23.4427 111.505 33.8073 119.219H13.7135C6.15104 119.219 0 125.385 0 132.958V258.104C0 265.677 6.15104 271.844 13.7135 271.844H221.74C229.297 271.844 235.453 265.677 235.453 258.104V226.443H254.734L308.958 260.01C309.776 260.505 310.724 260.781 311.677 260.781C312.536 260.781 313.396 260.552 314.167 260.146C315.792 259.234 316.792 257.516 316.792 255.651V135.453C316.833 133.594 315.839 131.87 314.208 130.964ZM155.115 10.3594C184.531 10.3594 208.479 34.349 208.479 63.8333C208.479 93.3177 184.531 117.312 155.115 117.312C125.693 117.312 101.75 93.3177 101.75 63.8333C101.75 34.349 125.693 10.3594 155.115 10.3594ZM26.974 85.1979C26.974 67.5104 41.3698 53.0833 59.0208 53.0833C76.6719 53.0833 91.0677 67.5104 91.0677 85.1979C91.0677 102.885 76.6719 117.312 59.0208 117.312C41.3698 117.312 26.974 102.885 26.974 85.1979ZM100.026 95.8594C102.786 100.573 106.141 104.974 110.078 108.922C114.151 113 118.677 116.448 123.521 119.219H84.2292C91.8802 113.547 97.5833 105.339 100.026 95.8594ZM225.135 258.146C225.135 260.052 223.594 261.552 221.74 261.552H13.7135C11.8125 261.552 10.3177 260.01 10.3177 258.146V133.005C10.3177 131.099 11.8542 129.604 13.7135 129.604H221.74C223.641 129.604 225.135 131.146 225.135 133.005V258.146ZM235.453 174.964H251.068V216.146H235.453V174.964ZM306.516 246.401L261.344 218.458V172.693L306.516 144.755V246.401Z" fill="black"/>
</g>
<path d="M124.016 152.328H36.3438C33.4896 152.328 31.1823 154.641 31.1823 157.5V209.703C31.1823 212.562 33.4896 214.875 36.3438 214.875H124.016C126.87 214.875 129.177 212.562 129.177 209.703V157.5C129.177 154.641 126.87 152.328 124.016 152.328ZM118.859 204.49H41.4584V162.625H118.859V204.49Z" fill="black"/>
<path d="M199.151 152.328H156.063C153.214 152.328 150.901 154.641 150.901 157.5C150.901 160.354 153.214 162.672 156.063 162.672H199.151C202.005 162.672 204.313 160.354 204.313 157.5C204.313 154.641 201.958 152.328 199.151 152.328Z" fill="black"/>
<path d="M199.151 172.057H156.063C153.214 172.057 150.901 174.37 150.901 177.229C150.901 180.089 153.214 182.401 156.063 182.401H199.151C202.005 182.401 204.313 180.089 204.313 177.229C204.266 174.37 201.958 172.057 199.151 172.057Z" fill="black"/>
<path d="M253.245 191.407C253.245 190.771 253.391 190.292 253.683 189.969C253.974 189.636 254.391 189.469 254.933 189.469C255.485 189.469 255.917 189.636 256.224 189.969C256.542 190.292 256.704 190.771 256.704 191.407C256.704 192.032 256.542 192.511 256.224 192.844C255.917 193.177 255.485 193.344 254.933 193.344C254.443 193.344 254.042 193.198 253.724 192.907C253.402 192.605 253.245 192.105 253.245 191.407Z" fill="black"/>
</svg>
