<svg width="30" height="30" viewBox="0 0 30 30" fill="none" xmlns="http://www.w3.org/2000/svg">
<circle cx="15" cy="15" r="14.5" stroke="black"/>
<mask id="mask0_68_22" style="mask-type:luminance" maskUnits="userSpaceOnUse" x="7" y="13" width="2" height="10">
<path d="M7.45557 13.9529H8.59181V22.4495H7.45557V13.9529Z" fill="white"/>
</mask>
<g mask="url(#mask0_68_22)">
<path d="M8.19521 13.9881H7.8473C7.6701 13.9881 7.52637 14.1325 7.52637 14.3101V22.1275C7.52637 22.3061 7.6701 22.4495 7.8473 22.4495H8.19521C8.37275 22.4495 8.51614 22.3058 8.51614 22.1275V14.3101C8.51614 14.1325 8.3724 13.9881 8.19521 13.9881Z" fill="black"/>
</g>
<mask id="mask1_68_22" style="mask-type:luminance" maskUnits="userSpaceOnUse" x="4" y="4" width="22" height="19">
<path d="M4.61523 4.03846H25.3845V22.4495H4.61523V4.03846Z" fill="white"/>
</mask>
<g mask="url(#mask1_68_22)">
<path d="M24.5334 14.7822C24.5764 14.4166 24.5999 14.0451 24.5999 13.6679C24.5999 8.35844 20.2929 4.03846 14.9996 4.03846C9.70586 4.03846 5.39953 8.35844 5.39953 13.6679C5.39953 14.0448 5.42275 14.4166 5.46577 14.7822C5.27901 14.8987 4.92871 15.1913 4.6228 15.8605V20.5772C5.0646 21.543 5.59995 21.7243 5.59995 21.7243L7.31216 22.4488V13.9884L6.4692 14.3456C6.45145 14.1219 6.43984 13.8963 6.43984 13.6682C6.43984 8.93407 10.2798 5.08184 14.9999 5.08184C19.72 5.08184 23.56 8.93407 23.56 13.6682C23.56 13.8963 23.5484 14.1219 23.5306 14.3456L22.6877 13.9884V22.4495L24.3999 21.725C24.3999 21.725 24.9356 21.5437 25.3767 20.5778V15.8611C25.0711 15.1923 24.7205 14.8997 24.5334 14.7829V14.7822Z" fill="black"/>
</g>
<mask id="mask2_68_22" style="mask-type:luminance" maskUnits="userSpaceOnUse" x="21" y="13" width="2" height="10">
<path d="M21.4397 13.9529H22.4885V22.4495H21.4397V13.9529Z" fill="white"/>
</mask>
<g mask="url(#mask2_68_22)">
<path d="M22.1522 13.9881H21.8043C21.6271 13.9881 21.4834 14.1325 21.4834 14.3101V22.1275C21.4834 22.3061 21.6271 22.4495 21.8043 22.4495H22.1522C22.3294 22.4495 22.4732 22.3058 22.4732 22.1275V14.3101C22.4735 14.1325 22.3298 13.9881 22.1526 13.9881H22.1522Z" fill="black"/>
</g>
<path d="M23.9304 17.9794C23.9304 17.9377 23.94 17.9063 23.9591 17.8852C23.9782 17.8633 24.0055 17.8524 24.041 17.8524C24.0772 17.8524 24.1056 17.8633 24.1257 17.8852C24.1465 17.9063 24.1571 17.9377 24.1571 17.9794C24.1571 18.0204 24.1465 18.0518 24.1257 18.0736C24.1056 18.0955 24.0772 18.1064 24.041 18.1064C24.0089 18.1064 23.9827 18.0969 23.9618 18.0777C23.9407 18.0579 23.9304 18.0252 23.9304 17.9794Z" fill="black"/>
</svg>
