<svg width="30" height="30" viewBox="0 0 30 30" fill="none" xmlns="http://www.w3.org/2000/svg">
<circle cx="15" cy="15" r="14.5" stroke="black"/>
<path d="M11.8571 12.4431C12.994 11.5068 13.1566 9.82626 12.2203 8.68939C11.2841 7.55253 9.60351 7.38989 8.46665 8.32613C7.32978 9.26238 7.16714 10.943 8.10338 12.0798C9.03963 13.2167 10.7202 13.3793 11.8571 12.4431ZM10.1619 10.3846L10.5478 10.0668L2.47091 0.259068L2.08494 0.576922L1.69898 0.894775L9.7759 10.7025L10.1619 10.3846Z" fill="black"/>
<path d="M21.7275 8.15557C20.7003 7.10017 19.012 7.07731 17.9566 8.10452C16.9012 9.13172 16.8783 10.82 17.9055 11.8754C18.9327 12.9308 20.621 12.9537 21.6764 11.9265C22.7318 10.8993 22.7547 9.21097 21.7275 8.15557ZM28.9214 1.15385L28.5727 0.79554L19.4678 9.65718L19.8165 10.0155L20.1652 10.3738L29.2701 1.51215L28.9214 1.15385Z" fill="black"/>
</svg>
